M48
;DRILL file {KiCad (5.0.1-3-g963ef8bb5)} date 2019年10月10日 木曜日 01:43:45
;FORMAT={-:-/ absolute / metric / decimal}
FMAT,2
METRIC,TZ
T1C0.300
T2C0.400
T3C0.500
T4C0.600
T5C0.700
T6C0.800
T7C0.900
T8C1.000
%
G90
G05
M71
T1
X129.88Y-129.
X130.585Y-127.86
X131.391Y-129.065
X131.712Y-125.252
X131.87Y-126.776
X131.871Y-126.035
X132.32Y-122.96
X134.73Y-118.63
X134.95Y-128.56
X136.08Y-118.
X137.064Y-98.206
X137.59Y-119.49
X137.68Y-117.56
X137.728Y-100.959
X137.76Y-118.15
X137.96Y-97.83
X138.11Y-94.17
X138.971Y-101.483
X139.66Y-117.84
X140.479Y-102.991
X140.81Y-103.72
X140.83Y-114.56
X140.94Y-93.74
X141.01Y-102.04
X141.15Y-115.16
X141.29Y-116.67
X141.72Y-115.96
X141.75Y-105.905
X141.77Y-96.172
X142.01Y-101.76
X142.19Y-92.29
X142.407Y-106.834
X142.71Y-101.55
X143.19Y-115.94
X143.21Y-91.21
X143.25Y-113.43
X143.28Y-97.28
X143.31Y-128.67
X143.33Y-128.02
X143.41Y-108.66
X143.58Y-94.214
X143.658Y-103.05
X144.16Y-94.205
X144.21Y-88.
X144.216Y-98.575
X144.34Y-104.45
X144.49Y-95.076
X144.51Y-135.7
X144.598Y-102.751
X144.685Y-93.275
X144.83Y-92.46
X144.89Y-106.98
X145.478Y-102.76
X145.63Y-100.68
X145.64Y-88.77
X145.71Y-86.1
X145.894Y-105.67
X145.98Y-93.39
X146.29Y-96.62
X146.381Y-100.2
X146.492Y-102.3
X146.52Y-101.43
X146.557Y-104.289
X146.68Y-97.12
X146.728Y-99.78
X146.78Y-136.21
X146.797Y-103.805
X146.91Y-110.61
X146.923Y-104.903
X147.037Y-103.205
X147.147Y-89.693
X147.19Y-99.34
X147.27Y-107.89
X147.536Y-136.154
X147.79Y-97.66
X147.89Y-94.55
X148.27Y-136.21
X148.329Y-96.8
X148.96Y-137.54
X149.111Y-93.316
X149.276Y-105.508
X149.36Y-95.71
X149.48Y-97.3
X149.76Y-112.63
X149.768Y-96.843
X149.85Y-83.18
X150.Y-138.96
X150.09Y-86.625
X150.14Y-115.67
X150.15Y-114.67
X150.16Y-91.644
X150.289Y-96.625
X150.34Y-133.06
X150.506Y-136.605
X150.93Y-96.41
X151.21Y-91.302
X151.27Y-86.61
X151.49Y-96.75
X151.519Y-90.859
X151.52Y-108.19
X151.62Y-106.88
X151.655Y-83.86
X151.99Y-96.17
X152.598Y-88.442
X152.873Y-96.033
X152.937Y-97.249
X152.94Y-107.91
X153.03Y-95.516
X153.1Y-114.99
X153.319Y-97.631
X153.82Y-105.1
X154.02Y-109.62
X154.23Y-95.05
X154.419Y-94.381
X154.51Y-87.85
X154.55Y-104.463
X154.654Y-105.078
X154.72Y-97.689
X154.91Y-98.774
X154.92Y-104.07
X155.139Y-114.201
X155.35Y-99.18
X155.38Y-96.01
X155.4Y-99.81
X155.49Y-138.
X155.75Y-110.844
X155.86Y-112.32
X155.87Y-111.38
X155.9Y-104.73
X155.913Y-110.33
X155.96Y-103.78
X155.99Y-99.23
X156.302Y-102.041
X156.416Y-124.577
X156.58Y-102.504
X156.62Y-103.45
X156.63Y-92.94
X156.93Y-108.69
X157.15Y-105.87
X157.151Y-125.174
X157.546Y-93.644
X157.56Y-101.09
X157.576Y-91.416
X157.81Y-103.44
X157.81Y-105.05
X157.89Y-90.48
X158.37Y-106.03
X158.94Y-87.48
X159.01Y-102.157
X159.52Y-119.61
X159.599Y-101.097
X159.61Y-102.18
X159.71Y-106.84
X159.735Y-94.057
X159.95Y-103.81
X160.26Y-125.35
X160.665Y-91.33
X160.89Y-92.04
X160.91Y-96.689
X161.35Y-120.34
X161.67Y-95.41
X161.67Y-98.
X161.74Y-103.83
X161.77Y-110.76
X161.78Y-102.62
X161.83Y-116.86
X161.92Y-107.71
X162.35Y-119.9
X162.955Y-137.99
X163.31Y-120.34
X163.53Y-139.25
X164.71Y-96.67
X165.61Y-123.63
X166.31Y-114.05
X167.47Y-129.81
X167.84Y-112.38
X168.95Y-127.76
X169.87Y-128.84
X170.18Y-125.16
X170.21Y-126.65
X170.334Y-125.886
X170.48Y-123.01
X171.01Y-110.7
X171.266Y-114.05
X171.47Y-124.41
X171.47Y-125.91
X173.36Y-128.54
T2
X130.68Y-114.045
X130.76Y-110.37
X134.235Y-111.99
X135.68Y-110.37
X135.729Y-96.953
X136.498Y-126.04
X136.67Y-121.76
X137.977Y-92.312
X139.17Y-130.46
X139.77Y-129.46
X139.83Y-118.57
X140.47Y-120.42
X140.67Y-126.71
X140.699Y-127.71
X141.29Y-110.908
X143.47Y-126.26
X144.92Y-112.06
X145.572Y-107.712
X147.67Y-128.54
X147.67Y-131.435
X147.97Y-115.36
X148.758Y-128.946
X149.941Y-110.05
X150.97Y-126.51
X151.077Y-106.377
X152.915Y-112.
X154.433Y-130.537
X155.729Y-85.066
X156.025Y-130.212
X156.77Y-119.61
X157.11Y-114.91
X157.686Y-98.736
X158.744Y-100.912
X158.983Y-127.062
X159.02Y-113.41
X159.12Y-89.91
X159.12Y-139.31
X159.27Y-136.85
X159.92Y-100.36
X159.92Y-89.28
X160.156Y-115.96
X160.386Y-110.11
X160.699Y-111.61
X161.52Y-112.36
X163.751Y-129.89
X164.28Y-100.746
X164.888Y-92.975
X165.365Y-102.3
X167.62Y-98.66
T3
X151.42Y-134.76
X151.42Y-136.01
X151.42Y-137.26
X130.77Y-129.86
X132.02Y-129.86
X133.27Y-129.86
X169.22Y-129.81
X170.47Y-129.81
X171.72Y-129.81
T4
X145.22Y-123.96
X145.457Y-118.321
X162.2Y-120.98
X162.57Y-125.31
X157.97Y-110.11
X157.97Y-111.11
X157.97Y-112.11
X129.24Y-110.98
X129.24Y-112.98
X172.82Y-111.38
X172.82Y-113.38
T5
X161.27Y-130.39
X162.54Y-130.39
T6
X153.11Y-121.876
X153.11Y-123.876
X136.48Y-124.84
X136.48Y-120.44
X149.3Y-121.908
X149.3Y-123.908
X166.06Y-120.5
X166.06Y-124.9
T7
X153.174Y-90.714
X156.174Y-94.814
X157.97Y-96.61
X147.474Y-92.506
X149.27Y-90.71
X154.97Y-92.51
X144.574Y-96.706
X146.37Y-94.91
T8
X148.47Y-106.39G85X148.47Y-106.79
G05
X148.47Y-112.39G85X148.47Y-112.79
G05
X148.47Y-86.61G85X148.07Y-86.61
G05
X154.47Y-86.61G85X154.07Y-86.61
G05
X154.07Y-106.79G85X154.07Y-106.39
G05
X154.07Y-112.79G85X154.07Y-112.39
G05
X139.37Y-93.41G85X139.37Y-93.81
G05
X139.37Y-99.41G85X139.37Y-99.81
G05
X163.17Y-93.81G85X163.17Y-93.41
G05
X163.17Y-99.81G85X163.17Y-99.41
G05
T0
M30
