G04 #@! TF.GenerationSoftware,KiCad,Pcbnew,(5.0.1-3-g963ef8bb5)*
G04 #@! TF.CreationDate,2019-10-10T01:43:39+09:00*
G04 #@! TF.ProjectId,mouse_v2,6D6F7573655F76322E6B696361645F70,rev?*
G04 #@! TF.SameCoordinates,Original*
G04 #@! TF.FileFunction,Copper,L2,Bot,Signal*
G04 #@! TF.FilePolarity,Positive*
%FSLAX46Y46*%
G04 Gerber Fmt 4.6, Leading zero omitted, Abs format (unit mm)*
G04 Created by KiCad (PCBNEW (5.0.1-3-g963ef8bb5)) date 2019年10月10日 木曜日 01:43:39*
%MOMM*%
%LPD*%
G01*
G04 APERTURE LIST*
G04 #@! TA.AperFunction,ComponentPad*
%ADD10C,0.600000*%
G04 #@! TD*
G04 #@! TA.AperFunction,WasherPad*
%ADD11C,1.000000*%
G04 #@! TD*
G04 #@! TA.AperFunction,ComponentPad*
%ADD12R,1.200000X1.200000*%
G04 #@! TD*
G04 #@! TA.AperFunction,Conductor*
%ADD13C,0.100000*%
G04 #@! TD*
G04 #@! TA.AperFunction,SMDPad,CuDef*
%ADD14C,0.590000*%
G04 #@! TD*
G04 #@! TA.AperFunction,ComponentPad*
%ADD15C,1.800000*%
G04 #@! TD*
G04 #@! TA.AperFunction,SMDPad,CuDef*
%ADD16R,1.000000X1.400000*%
G04 #@! TD*
G04 #@! TA.AperFunction,ComponentPad*
%ADD17C,1.000000*%
G04 #@! TD*
G04 #@! TA.AperFunction,SMDPad,CuDef*
%ADD18R,1.400000X1.000000*%
G04 #@! TD*
G04 #@! TA.AperFunction,ComponentPad*
%ADD19R,1.350000X1.350000*%
G04 #@! TD*
G04 #@! TA.AperFunction,ComponentPad*
%ADD20O,1.350000X1.350000*%
G04 #@! TD*
G04 #@! TA.AperFunction,ComponentPad*
%ADD21R,1.000000X1.000000*%
G04 #@! TD*
G04 #@! TA.AperFunction,ComponentPad*
%ADD22O,1.000000X1.000000*%
G04 #@! TD*
G04 #@! TA.AperFunction,SMDPad,CuDef*
%ADD23R,2.100000X0.750000*%
G04 #@! TD*
G04 #@! TA.AperFunction,ComponentPad*
%ADD24O,1.500000X2.000000*%
G04 #@! TD*
G04 #@! TA.AperFunction,ComponentPad*
%ADD25O,2.000000X1.500000*%
G04 #@! TD*
G04 #@! TA.AperFunction,SMDPad,CuDef*
%ADD26R,1.700000X1.000000*%
G04 #@! TD*
G04 #@! TA.AperFunction,ViaPad*
%ADD27C,0.800000*%
G04 #@! TD*
G04 #@! TA.AperFunction,ViaPad*
%ADD28C,1.000000*%
G04 #@! TD*
G04 #@! TA.AperFunction,ViaPad*
%ADD29C,0.500000*%
G04 #@! TD*
G04 #@! TA.AperFunction,ViaPad*
%ADD30C,0.400000*%
G04 #@! TD*
G04 #@! TA.AperFunction,ViaPad*
%ADD31C,0.600000*%
G04 #@! TD*
G04 #@! TA.AperFunction,Conductor*
%ADD32C,0.600000*%
G04 #@! TD*
G04 #@! TA.AperFunction,Conductor*
%ADD33C,0.800000*%
G04 #@! TD*
G04 #@! TA.AperFunction,Conductor*
%ADD34C,0.250000*%
G04 #@! TD*
G04 #@! TA.AperFunction,Conductor*
%ADD35C,0.500000*%
G04 #@! TD*
G04 #@! TA.AperFunction,Conductor*
%ADD36C,0.200000*%
G04 #@! TD*
G04 #@! TA.AperFunction,Conductor*
%ADD37C,0.300000*%
G04 #@! TD*
G04 #@! TA.AperFunction,Conductor*
%ADD38C,0.254000*%
G04 #@! TD*
G04 APERTURE END LIST*
D10*
G04 #@! TO.P,U7,13*
G04 #@! TO.N,GND*
X157970000Y-111110000D03*
X157970000Y-112110000D03*
X157970000Y-110110000D03*
G04 #@! TD*
D11*
G04 #@! TO.P,,*
G04 #@! TO.N,*
X152840000Y-128440000D03*
X149840000Y-128440000D03*
G04 #@! TD*
D12*
G04 #@! TO.P,,*
G04 #@! TO.N,*
X166060000Y-124899999D03*
X166059999Y-120499999D03*
G04 #@! TD*
D13*
G04 #@! TO.N,/encoder1/t_GND*
G04 #@! TO.C,C9*
G36*
X131066958Y-112120710D02*
X131081276Y-112122834D01*
X131095317Y-112126351D01*
X131108946Y-112131228D01*
X131122031Y-112137417D01*
X131134447Y-112144858D01*
X131146073Y-112153481D01*
X131156798Y-112163202D01*
X131166519Y-112173927D01*
X131175142Y-112185553D01*
X131182583Y-112197969D01*
X131188772Y-112211054D01*
X131193649Y-112224683D01*
X131197166Y-112238724D01*
X131199290Y-112253042D01*
X131200000Y-112267500D01*
X131200000Y-112562500D01*
X131199290Y-112576958D01*
X131197166Y-112591276D01*
X131193649Y-112605317D01*
X131188772Y-112618946D01*
X131182583Y-112632031D01*
X131175142Y-112644447D01*
X131166519Y-112656073D01*
X131156798Y-112666798D01*
X131146073Y-112676519D01*
X131134447Y-112685142D01*
X131122031Y-112692583D01*
X131108946Y-112698772D01*
X131095317Y-112703649D01*
X131081276Y-112707166D01*
X131066958Y-112709290D01*
X131052500Y-112710000D01*
X130707500Y-112710000D01*
X130693042Y-112709290D01*
X130678724Y-112707166D01*
X130664683Y-112703649D01*
X130651054Y-112698772D01*
X130637969Y-112692583D01*
X130625553Y-112685142D01*
X130613927Y-112676519D01*
X130603202Y-112666798D01*
X130593481Y-112656073D01*
X130584858Y-112644447D01*
X130577417Y-112632031D01*
X130571228Y-112618946D01*
X130566351Y-112605317D01*
X130562834Y-112591276D01*
X130560710Y-112576958D01*
X130560000Y-112562500D01*
X130560000Y-112267500D01*
X130560710Y-112253042D01*
X130562834Y-112238724D01*
X130566351Y-112224683D01*
X130571228Y-112211054D01*
X130577417Y-112197969D01*
X130584858Y-112185553D01*
X130593481Y-112173927D01*
X130603202Y-112163202D01*
X130613927Y-112153481D01*
X130625553Y-112144858D01*
X130637969Y-112137417D01*
X130651054Y-112131228D01*
X130664683Y-112126351D01*
X130678724Y-112122834D01*
X130693042Y-112120710D01*
X130707500Y-112120000D01*
X131052500Y-112120000D01*
X131066958Y-112120710D01*
X131066958Y-112120710D01*
G37*
D14*
G04 #@! TD*
G04 #@! TO.P,C9,2*
G04 #@! TO.N,/encoder1/t_GND*
X130880000Y-112415000D03*
D13*
G04 #@! TO.N,/encoder1/3V3*
G04 #@! TO.C,C9*
G36*
X131066958Y-111150710D02*
X131081276Y-111152834D01*
X131095317Y-111156351D01*
X131108946Y-111161228D01*
X131122031Y-111167417D01*
X131134447Y-111174858D01*
X131146073Y-111183481D01*
X131156798Y-111193202D01*
X131166519Y-111203927D01*
X131175142Y-111215553D01*
X131182583Y-111227969D01*
X131188772Y-111241054D01*
X131193649Y-111254683D01*
X131197166Y-111268724D01*
X131199290Y-111283042D01*
X131200000Y-111297500D01*
X131200000Y-111592500D01*
X131199290Y-111606958D01*
X131197166Y-111621276D01*
X131193649Y-111635317D01*
X131188772Y-111648946D01*
X131182583Y-111662031D01*
X131175142Y-111674447D01*
X131166519Y-111686073D01*
X131156798Y-111696798D01*
X131146073Y-111706519D01*
X131134447Y-111715142D01*
X131122031Y-111722583D01*
X131108946Y-111728772D01*
X131095317Y-111733649D01*
X131081276Y-111737166D01*
X131066958Y-111739290D01*
X131052500Y-111740000D01*
X130707500Y-111740000D01*
X130693042Y-111739290D01*
X130678724Y-111737166D01*
X130664683Y-111733649D01*
X130651054Y-111728772D01*
X130637969Y-111722583D01*
X130625553Y-111715142D01*
X130613927Y-111706519D01*
X130603202Y-111696798D01*
X130593481Y-111686073D01*
X130584858Y-111674447D01*
X130577417Y-111662031D01*
X130571228Y-111648946D01*
X130566351Y-111635317D01*
X130562834Y-111621276D01*
X130560710Y-111606958D01*
X130560000Y-111592500D01*
X130560000Y-111297500D01*
X130560710Y-111283042D01*
X130562834Y-111268724D01*
X130566351Y-111254683D01*
X130571228Y-111241054D01*
X130577417Y-111227969D01*
X130584858Y-111215553D01*
X130593481Y-111203927D01*
X130603202Y-111193202D01*
X130613927Y-111183481D01*
X130625553Y-111174858D01*
X130637969Y-111167417D01*
X130651054Y-111161228D01*
X130664683Y-111156351D01*
X130678724Y-111152834D01*
X130693042Y-111150710D01*
X130707500Y-111150000D01*
X131052500Y-111150000D01*
X131066958Y-111150710D01*
X131066958Y-111150710D01*
G37*
D14*
G04 #@! TD*
G04 #@! TO.P,C9,1*
G04 #@! TO.N,/encoder1/3V3*
X130880000Y-111445000D03*
D15*
G04 #@! TO.P,D1,2*
G04 #@! TO.N,Net-(C15-Pad2)*
X144573949Y-96706051D03*
G04 #@! TO.P,D1,1*
G04 #@! TO.N,3.3VA*
X146370000Y-94910000D03*
D13*
G04 #@! TD*
G04 #@! TO.N,3.3VA*
G04 #@! TO.C,D1*
G36*
X146370000Y-93637208D02*
X147642792Y-94910000D01*
X146370000Y-96182792D01*
X145097208Y-94910000D01*
X146370000Y-93637208D01*
X146370000Y-93637208D01*
G37*
D15*
G04 #@! TO.P,D2,1*
G04 #@! TO.N,Net-(D2-Pad1)*
X149270000Y-90710000D03*
D13*
G04 #@! TD*
G04 #@! TO.N,Net-(D2-Pad1)*
G04 #@! TO.C,D2*
G36*
X149270000Y-89437208D02*
X150542792Y-90710000D01*
X149270000Y-91982792D01*
X147997208Y-90710000D01*
X149270000Y-89437208D01*
X149270000Y-89437208D01*
G37*
D15*
G04 #@! TO.P,D2,2*
G04 #@! TO.N,BATT*
X147473949Y-92506051D03*
G04 #@! TD*
G04 #@! TO.P,D4,1*
G04 #@! TO.N,3.3VA*
X157970000Y-96610000D03*
D13*
G04 #@! TD*
G04 #@! TO.N,3.3VA*
G04 #@! TO.C,D4*
G36*
X159242792Y-96610000D02*
X157970000Y-97882792D01*
X156697208Y-96610000D01*
X157970000Y-95337208D01*
X159242792Y-96610000D01*
X159242792Y-96610000D01*
G37*
D15*
G04 #@! TO.P,D4,2*
G04 #@! TO.N,Net-(C26-Pad2)*
X156173949Y-94813949D03*
G04 #@! TD*
G04 #@! TO.P,D5,2*
G04 #@! TO.N,BATT*
X153173949Y-90713949D03*
G04 #@! TO.P,D5,1*
G04 #@! TO.N,Net-(D5-Pad1)*
X154970000Y-92510000D03*
D13*
G04 #@! TD*
G04 #@! TO.N,Net-(D5-Pad1)*
G04 #@! TO.C,D5*
G36*
X156242792Y-92510000D02*
X154970000Y-93782792D01*
X153697208Y-92510000D01*
X154970000Y-91237208D01*
X156242792Y-92510000D01*
X156242792Y-92510000D01*
G37*
D16*
G04 #@! TO.P,,5*
G04 #@! TO.N,/ToF1/t_GND*
X173470000Y-129810000D03*
G04 #@! TO.P,,1*
G04 #@! TO.N,/ToF1/2V8*
X167470000Y-129810000D03*
D17*
G04 #@! TO.P,,3*
G04 #@! TO.N,Net-(J3-Pad3)*
X170470000Y-129810000D03*
G04 #@! TO.P,,4*
G04 #@! TO.N,Net-(J3-Pad4)*
X171720000Y-129810000D03*
G04 #@! TO.P,,2*
G04 #@! TO.N,Net-(J3-Pad2)*
X169220000Y-129810000D03*
G04 #@! TD*
G04 #@! TO.P,,2*
G04 #@! TO.N,Net-(J5-Pad2)*
X151420000Y-137260000D03*
G04 #@! TO.P,,4*
G04 #@! TO.N,Net-(J5-Pad4)*
X151420000Y-134760000D03*
G04 #@! TO.P,,3*
G04 #@! TO.N,Net-(J5-Pad3)*
X151420000Y-136010000D03*
D18*
G04 #@! TO.P,,1*
G04 #@! TO.N,/ToF2/2V8*
X151420000Y-139010000D03*
G04 #@! TO.P,,5*
G04 #@! TO.N,/ToF2/t_GND*
X151420000Y-133010000D03*
G04 #@! TD*
D16*
G04 #@! TO.P,,5*
G04 #@! TO.N,/ToF3/t_GND*
X135020000Y-129860000D03*
G04 #@! TO.P,,1*
G04 #@! TO.N,/ToF3/2V8*
X129020000Y-129860000D03*
D17*
G04 #@! TO.P,,3*
G04 #@! TO.N,Net-(J7-Pad3)*
X132020000Y-129860000D03*
G04 #@! TO.P,,4*
G04 #@! TO.N,Net-(J7-Pad4)*
X133270000Y-129860000D03*
G04 #@! TO.P,,2*
G04 #@! TO.N,Net-(J7-Pad2)*
X130770000Y-129860000D03*
G04 #@! TD*
D19*
G04 #@! TO.P,,1*
G04 #@! TO.N,Net-(J12-Pad1)*
X149300000Y-121908000D03*
D20*
G04 #@! TO.P,,2*
G04 #@! TO.N,Net-(J12-Pad2)*
X149300000Y-123908000D03*
G04 #@! TD*
G04 #@! TO.P,,2*
G04 #@! TO.N,Net-(J13-Pad2)*
X153110000Y-121876000D03*
D19*
G04 #@! TO.P,,1*
G04 #@! TO.N,Net-(J13-Pad1)*
X153110000Y-123876000D03*
G04 #@! TD*
D21*
G04 #@! TO.P,,1*
G04 #@! TO.N,GND*
X161270000Y-130390000D03*
D22*
G04 #@! TO.P,,2*
G04 #@! TO.N,Net-(J14-Pad2)*
X162540000Y-130390000D03*
G04 #@! TD*
D23*
G04 #@! TO.P,,1*
G04 #@! TO.N,/converter/NRST*
X157470000Y-138040000D03*
G04 #@! TO.P,,2*
G04 #@! TO.N,/converter/3.3V*
X161070000Y-138040000D03*
G04 #@! TO.P,,3*
G04 #@! TO.N,/converter/SWCLK*
X157470000Y-139310000D03*
G04 #@! TO.P,,4*
G04 #@! TO.N,/converter/SWDIO*
X161070000Y-139310000D03*
G04 #@! TO.P,,5*
G04 #@! TO.N,Net-(J15-Pad5)*
X157470000Y-140580000D03*
G04 #@! TO.P,,6*
G04 #@! TO.N,/converter/t_GND*
X161070000Y-140580000D03*
G04 #@! TD*
D12*
G04 #@! TO.P,,*
G04 #@! TO.N,*
X136480001Y-120439999D03*
X136480000Y-124839999D03*
G04 #@! TD*
D24*
G04 #@! TO.P,,1*
G04 #@! TO.N,2.8V*
X139370000Y-93610000D03*
G04 #@! TO.P,,5*
G04 #@! TO.N,GND*
X139370000Y-99610000D03*
G04 #@! TD*
G04 #@! TO.P,,5*
G04 #@! TO.N,GND*
X163170000Y-93610000D03*
G04 #@! TO.P,,1*
G04 #@! TO.N,2.8V*
X163170000Y-99610000D03*
G04 #@! TD*
D25*
G04 #@! TO.P,,1*
G04 #@! TO.N,2.8V*
X154270000Y-86610000D03*
G04 #@! TO.P,,5*
G04 #@! TO.N,GND*
X148270000Y-86610000D03*
G04 #@! TD*
D24*
G04 #@! TO.P,,4*
G04 #@! TO.N,GND*
X154070000Y-106590000D03*
G04 #@! TO.P,,1*
G04 #@! TO.N,3.3V*
X154070000Y-112590000D03*
G04 #@! TD*
G04 #@! TO.P,,1*
G04 #@! TO.N,3.3V*
X148470000Y-106590000D03*
G04 #@! TO.P,,4*
G04 #@! TO.N,GND*
X148470000Y-112590000D03*
G04 #@! TD*
D17*
G04 #@! TO.P,,3*
G04 #@! TO.N,Net-(J9-Pad3)*
X129240000Y-112980000D03*
G04 #@! TO.P,,2*
G04 #@! TO.N,Net-(J9-Pad2)*
X129240000Y-110980000D03*
D26*
G04 #@! TO.P,,4*
G04 #@! TO.N,/encoder1/t_GND*
X129390000Y-114980000D03*
G04 #@! TO.P,,1*
G04 #@! TO.N,/encoder1/3V3*
X129390000Y-108980000D03*
G04 #@! TD*
G04 #@! TO.P,,1*
G04 #@! TO.N,/encoder2/3V3*
X172670000Y-115380000D03*
G04 #@! TO.P,,4*
G04 #@! TO.N,/encoder2/t_GND*
X172670000Y-109380000D03*
D17*
G04 #@! TO.P,,2*
G04 #@! TO.N,Net-(J11-Pad2)*
X172820000Y-113380000D03*
G04 #@! TO.P,,3*
G04 #@! TO.N,Net-(J11-Pad3)*
X172820000Y-111380000D03*
G04 #@! TD*
D13*
G04 #@! TO.N,/encoder2/3V3*
G04 #@! TO.C,C10*
G36*
X171076958Y-112720710D02*
X171091276Y-112722834D01*
X171105317Y-112726351D01*
X171118946Y-112731228D01*
X171132031Y-112737417D01*
X171144447Y-112744858D01*
X171156073Y-112753481D01*
X171166798Y-112763202D01*
X171176519Y-112773927D01*
X171185142Y-112785553D01*
X171192583Y-112797969D01*
X171198772Y-112811054D01*
X171203649Y-112824683D01*
X171207166Y-112838724D01*
X171209290Y-112853042D01*
X171210000Y-112867500D01*
X171210000Y-113162500D01*
X171209290Y-113176958D01*
X171207166Y-113191276D01*
X171203649Y-113205317D01*
X171198772Y-113218946D01*
X171192583Y-113232031D01*
X171185142Y-113244447D01*
X171176519Y-113256073D01*
X171166798Y-113266798D01*
X171156073Y-113276519D01*
X171144447Y-113285142D01*
X171132031Y-113292583D01*
X171118946Y-113298772D01*
X171105317Y-113303649D01*
X171091276Y-113307166D01*
X171076958Y-113309290D01*
X171062500Y-113310000D01*
X170717500Y-113310000D01*
X170703042Y-113309290D01*
X170688724Y-113307166D01*
X170674683Y-113303649D01*
X170661054Y-113298772D01*
X170647969Y-113292583D01*
X170635553Y-113285142D01*
X170623927Y-113276519D01*
X170613202Y-113266798D01*
X170603481Y-113256073D01*
X170594858Y-113244447D01*
X170587417Y-113232031D01*
X170581228Y-113218946D01*
X170576351Y-113205317D01*
X170572834Y-113191276D01*
X170570710Y-113176958D01*
X170570000Y-113162500D01*
X170570000Y-112867500D01*
X170570710Y-112853042D01*
X170572834Y-112838724D01*
X170576351Y-112824683D01*
X170581228Y-112811054D01*
X170587417Y-112797969D01*
X170594858Y-112785553D01*
X170603481Y-112773927D01*
X170613202Y-112763202D01*
X170623927Y-112753481D01*
X170635553Y-112744858D01*
X170647969Y-112737417D01*
X170661054Y-112731228D01*
X170674683Y-112726351D01*
X170688724Y-112722834D01*
X170703042Y-112720710D01*
X170717500Y-112720000D01*
X171062500Y-112720000D01*
X171076958Y-112720710D01*
X171076958Y-112720710D01*
G37*
D14*
G04 #@! TD*
G04 #@! TO.P,C10,1*
G04 #@! TO.N,/encoder2/3V3*
X170890000Y-113015000D03*
D13*
G04 #@! TO.N,/encoder2/t_GND*
G04 #@! TO.C,C10*
G36*
X171076958Y-111750710D02*
X171091276Y-111752834D01*
X171105317Y-111756351D01*
X171118946Y-111761228D01*
X171132031Y-111767417D01*
X171144447Y-111774858D01*
X171156073Y-111783481D01*
X171166798Y-111793202D01*
X171176519Y-111803927D01*
X171185142Y-111815553D01*
X171192583Y-111827969D01*
X171198772Y-111841054D01*
X171203649Y-111854683D01*
X171207166Y-111868724D01*
X171209290Y-111883042D01*
X171210000Y-111897500D01*
X171210000Y-112192500D01*
X171209290Y-112206958D01*
X171207166Y-112221276D01*
X171203649Y-112235317D01*
X171198772Y-112248946D01*
X171192583Y-112262031D01*
X171185142Y-112274447D01*
X171176519Y-112286073D01*
X171166798Y-112296798D01*
X171156073Y-112306519D01*
X171144447Y-112315142D01*
X171132031Y-112322583D01*
X171118946Y-112328772D01*
X171105317Y-112333649D01*
X171091276Y-112337166D01*
X171076958Y-112339290D01*
X171062500Y-112340000D01*
X170717500Y-112340000D01*
X170703042Y-112339290D01*
X170688724Y-112337166D01*
X170674683Y-112333649D01*
X170661054Y-112328772D01*
X170647969Y-112322583D01*
X170635553Y-112315142D01*
X170623927Y-112306519D01*
X170613202Y-112296798D01*
X170603481Y-112286073D01*
X170594858Y-112274447D01*
X170587417Y-112262031D01*
X170581228Y-112248946D01*
X170576351Y-112235317D01*
X170572834Y-112221276D01*
X170570710Y-112206958D01*
X170570000Y-112192500D01*
X170570000Y-111897500D01*
X170570710Y-111883042D01*
X170572834Y-111868724D01*
X170576351Y-111854683D01*
X170581228Y-111841054D01*
X170587417Y-111827969D01*
X170594858Y-111815553D01*
X170603481Y-111803927D01*
X170613202Y-111793202D01*
X170623927Y-111783481D01*
X170635553Y-111774858D01*
X170647969Y-111767417D01*
X170661054Y-111761228D01*
X170674683Y-111756351D01*
X170688724Y-111752834D01*
X170703042Y-111750710D01*
X170717500Y-111750000D01*
X171062500Y-111750000D01*
X171076958Y-111750710D01*
X171076958Y-111750710D01*
G37*
D14*
G04 #@! TD*
G04 #@! TO.P,C10,2*
G04 #@! TO.N,/encoder2/t_GND*
X170890000Y-112045000D03*
D27*
G04 #@! TO.N,GND*
X147670000Y-131435000D03*
X148757700Y-128945787D03*
D28*
X162570000Y-125310000D03*
D27*
X139770000Y-129460000D03*
X156770000Y-119610000D03*
X165365045Y-102299769D03*
X159920131Y-89279869D03*
X155729034Y-85065666D03*
D29*
X151654513Y-83860001D03*
D27*
X157110000Y-114910000D03*
D30*
X155139102Y-114200538D03*
D27*
X162200000Y-120980010D03*
G04 #@! TO.N,/MCU/NRST*
X140698923Y-127709584D03*
X136670000Y-121760000D03*
D30*
X141010000Y-102040000D03*
X140810000Y-103720000D03*
X137590000Y-119490000D03*
X146680000Y-97120000D03*
D27*
G04 #@! TO.N,2.8V*
X139170000Y-130460000D03*
X136497784Y-126040000D03*
X159120000Y-89910000D03*
X140470000Y-120420000D03*
X139830000Y-118570000D03*
X141290000Y-110908269D03*
G04 #@! TO.N,3.3V*
X158983044Y-127061521D03*
X147670000Y-128539998D03*
X147970000Y-115360000D03*
X144920000Y-112060000D03*
D30*
X149110763Y-93315828D03*
X150289400Y-96625010D03*
X153030359Y-95516106D03*
X151490000Y-96750000D03*
X156302463Y-102040658D03*
X155860000Y-112320000D03*
D27*
X151077191Y-106376975D03*
X152914898Y-112000214D03*
D29*
G04 #@! TO.N,Net-(C12-Pad1)*
X150160479Y-91643858D03*
D30*
X151210000Y-91301730D03*
D29*
G04 #@! TO.N,Net-(C15-Pad2)*
X144216295Y-98574662D03*
D30*
G04 #@! TO.N,/MCU/IR_ADC1*
X145478499Y-102760017D03*
X144598488Y-102750857D03*
D28*
G04 #@! TO.N,BATT*
X145457488Y-118320623D03*
X145220000Y-123960000D03*
D27*
X159020002Y-113410000D03*
D29*
X140940000Y-93740000D03*
X138110000Y-94170000D03*
D27*
X158743521Y-100911591D03*
X157685758Y-98735544D03*
G04 #@! TO.N,Net-(C20-Pad2)*
X140670000Y-126710000D03*
X143470000Y-126260000D03*
D29*
G04 #@! TO.N,3.3VA*
X147190405Y-99339595D03*
D31*
X149941160Y-110049586D03*
X145572439Y-107712439D03*
D30*
X154419002Y-94380998D03*
D29*
X143658197Y-103050010D03*
G04 #@! TO.N,1.65V_REF*
X141750010Y-105904955D03*
X142406534Y-106834498D03*
D30*
G04 #@! TO.N,Net-(C26-Pad1)*
X142010000Y-101760000D03*
X142190000Y-92290000D03*
X145640000Y-88770000D03*
X155990000Y-99230000D03*
X157546135Y-93643865D03*
X157576135Y-91416135D03*
G04 #@! TO.N,/MCU/IR_ADC2*
X144890000Y-106980000D03*
X147037374Y-103204611D03*
G04 #@! TO.N,/MCU/BUTTON*
X155900000Y-104730000D03*
X157150000Y-105870000D03*
X159710000Y-106840000D03*
X161920000Y-107710000D03*
X161770000Y-110760000D03*
X161830000Y-116860000D03*
X165610000Y-123630000D03*
X163310000Y-120340000D03*
X161350000Y-120340000D03*
X159520000Y-119610000D03*
D27*
G04 #@! TO.N,Net-(D2-Pad1)*
X135729114Y-96953298D03*
X137977191Y-92311599D03*
G04 #@! TO.N,Net-(D5-Pad1)*
X164888373Y-92975318D03*
X167620000Y-98660000D03*
D30*
G04 #@! TO.N,Net-(D6-Pad2)*
X150140000Y-115670000D03*
X141290000Y-116670000D03*
X141150000Y-115160000D03*
X137680000Y-117560000D03*
G04 #@! TO.N,Net-(D7-Pad2)*
X143190000Y-115940000D03*
X141720000Y-115960000D03*
X140830000Y-114560000D03*
X136080000Y-118000000D03*
G04 #@! TO.N,Net-(D8-Pad2)*
X137760000Y-118150000D03*
X134730000Y-118630000D03*
G04 #@! TO.N,/MCU/SWCLK*
X159599061Y-101096903D03*
X160260000Y-125350000D03*
X157150759Y-125174239D03*
X143310000Y-128670000D03*
G04 #@! TO.N,/MCU/SWDIO*
X159610002Y-102180000D03*
X156416456Y-124576554D03*
X143330000Y-128020000D03*
X162350000Y-119899990D03*
G04 #@! TO.N,/MCU/TOF1_EN*
X147790000Y-97660000D03*
X147890000Y-94550000D03*
X145980000Y-93390000D03*
X144830000Y-92460000D03*
G04 #@! TO.N,/MCU/TOF_SDA*
X160665000Y-91330000D03*
X158940000Y-87480000D03*
X152937034Y-97249288D03*
X161670000Y-95410000D03*
X147146965Y-89693432D03*
X150090011Y-86625390D03*
X152598441Y-88441559D03*
X144684799Y-93275000D03*
X144160000Y-94205000D03*
G04 #@! TO.N,/MCU/TOF_SCL*
X151270000Y-86610000D03*
X160890000Y-92040000D03*
X153318873Y-97631127D03*
X160910000Y-96688663D03*
X143580010Y-94214431D03*
D29*
G04 #@! TO.N,Net-(J3-Pad3)*
X170334084Y-125886327D03*
G04 #@! TO.N,Net-(J3-Pad4)*
X170210000Y-126650000D03*
X169870000Y-128840000D03*
G04 #@! TO.N,Net-(J3-Pad2)*
X170180000Y-125160000D03*
X168950000Y-127760000D03*
D30*
G04 #@! TO.N,/MCU/TOF2_EN*
X157560000Y-101090000D03*
X161670000Y-98000000D03*
D29*
G04 #@! TO.N,Net-(J5-Pad2)*
X146780000Y-136210000D03*
X148960000Y-137540000D03*
G04 #@! TO.N,Net-(J5-Pad4)*
X148270000Y-136210000D03*
X150506086Y-136604644D03*
G04 #@! TO.N,Net-(J5-Pad3)*
X147535895Y-136153532D03*
D30*
G04 #@! TO.N,/MCU/TOF3_EN*
X154719979Y-97689294D03*
X154230000Y-95050000D03*
X155380000Y-96010000D03*
X156630000Y-92940000D03*
X157890000Y-90480000D03*
X154510000Y-87850000D03*
D29*
G04 #@! TO.N,Net-(J7-Pad3)*
X131870549Y-126035397D03*
G04 #@! TO.N,Net-(J7-Pad4)*
X131869999Y-126776000D03*
X131391000Y-129065148D03*
G04 #@! TO.N,Net-(J7-Pad2)*
X130585000Y-127860000D03*
X131712000Y-125252000D03*
D30*
G04 #@! TO.N,/MCU/ENC1_B*
X152940000Y-107910000D03*
X146727643Y-99779595D03*
G04 #@! TO.N,/MCU/ENC1_A*
X154020000Y-109620000D03*
X146381226Y-100200252D03*
G04 #@! TO.N,/MCU/ENC2_A*
X146520000Y-101430000D03*
X147270000Y-107890000D03*
G04 #@! TO.N,/MCU/ENC2_B*
X146910000Y-110610000D03*
X146492030Y-102299760D03*
D27*
G04 #@! TO.N,Net-(J12-Pad2)*
X160155774Y-115960000D03*
X160699145Y-111610000D03*
G04 #@! TO.N,Net-(J13-Pad2)*
X160386192Y-110110000D03*
X161520000Y-112360000D03*
G04 #@! TO.N,Net-(J14-Pad2)*
X163750660Y-129889678D03*
X154433217Y-130537309D03*
D29*
G04 #@! TO.N,/converter/NRST*
X155490000Y-138000000D03*
G04 #@! TO.N,/converter/SWCLK*
X162955000Y-137990000D03*
G04 #@! TO.N,/converter/SWDIO*
X163530000Y-139250000D03*
D30*
G04 #@! TO.N,Net-(LS1-Pad2)*
X149850000Y-83180000D03*
X142710000Y-101550000D03*
X144340000Y-104450000D03*
X143410000Y-108660020D03*
G04 #@! TO.N,Net-(Q1-Pad2)*
X157810001Y-103440000D03*
X156620000Y-103450000D03*
X137063873Y-98206127D03*
X148328798Y-96800000D03*
X144490000Y-95076040D03*
X146290000Y-96620000D03*
X141769989Y-96171745D03*
X158370023Y-106029990D03*
G04 #@! TO.N,Net-(Q1-Pad1)*
X137728434Y-100959499D03*
X138970749Y-101483104D03*
D27*
G04 #@! TO.N,Net-(Q2-Pad1)*
X156024626Y-130212356D03*
X150970000Y-126510000D03*
G04 #@! TO.N,Net-(Q3-Pad2)*
X164280403Y-100745708D03*
X159920000Y-100360000D03*
D30*
G04 #@! TO.N,/MCU/BATT_MONITOR*
X137960000Y-97830000D03*
X146557024Y-104289140D03*
G04 #@! TO.N,/MCU/IR_LED1*
X161780000Y-102620000D03*
X159010324Y-102157424D03*
X156580000Y-102503881D03*
X149767662Y-96842996D03*
G04 #@! TO.N,Net-(R10-Pad2)*
X161740000Y-103830000D03*
X159950000Y-103810000D03*
G04 #@! TO.N,Net-(R13-Pad2)*
X149275553Y-105508201D03*
X157810001Y-105050000D03*
X140478823Y-102991177D03*
X145894352Y-105669990D03*
G04 #@! TO.N,/MCU/IR_LED2*
X155960000Y-103780000D03*
X149480000Y-97300000D03*
G04 #@! TO.N,Net-(R25-Pad2)*
X159735000Y-94056864D03*
X164710000Y-96670000D03*
G04 #@! TO.N,/MCU/LED1*
X151619947Y-106880000D03*
X151520000Y-108190000D03*
X149760000Y-112630000D03*
X150150000Y-114670000D03*
G04 #@! TO.N,/MCU/LED2*
X146922975Y-104902974D03*
X143250000Y-113430000D03*
G04 #@! TO.N,/MCU/LED3*
X153100000Y-114990000D03*
X139660000Y-117840000D03*
G04 #@! TO.N,/MCU/SPEAKER*
X145630000Y-100680000D03*
X143280000Y-97280000D03*
X143210000Y-91210000D03*
X144210000Y-88000000D03*
X145710000Y-86100000D03*
X146797201Y-103805480D03*
G04 #@! TO.N,/MCU/MOTOR11*
X153820000Y-105100000D03*
X155870000Y-111380000D03*
G04 #@! TO.N,/MCU/MOTOR12*
X154654172Y-105077628D03*
X155750011Y-110844284D03*
G04 #@! TO.N,/MCU/MOTOR21*
X154549552Y-104462900D03*
X155913313Y-110329556D03*
G04 #@! TO.N,/MCU/MOTOR22*
X154920000Y-104070000D03*
X156930000Y-108690000D03*
G04 #@! TO.N,/MCU/IMU_NSS*
X150930000Y-96410000D03*
X149360000Y-95710000D03*
G04 #@! TO.N,/MCU/IMU_SCK*
X155400000Y-99810000D03*
X151990000Y-96170000D03*
G04 #@! TO.N,/MCU/IMU_MISO*
X151519440Y-90859182D03*
X155350000Y-99180000D03*
G04 #@! TO.N,/MCU/IMU_MOSI*
X152872526Y-96032527D03*
X154910000Y-98773631D03*
D29*
G04 #@! TO.N,/ToF1/2V8*
X171470000Y-124410000D03*
X171470000Y-125910000D03*
D30*
X167470000Y-129810000D03*
D29*
G04 #@! TO.N,/ToF2/2V8*
X150000000Y-138960000D03*
G04 #@! TO.N,/ToF3/2V8*
X129880000Y-129000000D03*
G04 #@! TO.N,/ToF1/t_GND*
X170480000Y-123010000D03*
X173360000Y-128540000D03*
G04 #@! TO.N,/ToF2/t_GND*
X144510000Y-135700000D03*
X150340000Y-133060000D03*
G04 #@! TO.N,/ToF3/t_GND*
X132320000Y-122960000D03*
X134950000Y-128560000D03*
D27*
G04 #@! TO.N,/encoder1/t_GND*
X134235000Y-111990000D03*
X130680000Y-114045000D03*
G04 #@! TO.N,/encoder1/3V3*
X135680000Y-110370000D03*
X130760000Y-110370000D03*
G04 #@! TO.N,/encoder2/3V3*
X166310000Y-114050000D03*
X171266311Y-114050000D03*
G04 #@! TO.N,/encoder2/t_GND*
X167840000Y-112380000D03*
X171010000Y-110700000D03*
G04 #@! TO.N,/converter/3.3V*
X159270000Y-136850000D03*
G04 #@! TO.N,/converter/t_GND*
X159120000Y-139310000D03*
G04 #@! TD*
D32*
G04 #@! TO.N,GND*
X146495000Y-130260000D02*
X147670000Y-131435000D01*
X147443487Y-130260000D02*
X148757700Y-128945787D01*
X146495000Y-130260000D02*
X147443487Y-130260000D01*
D33*
X161270000Y-129090000D02*
X162570000Y-127790000D01*
X161270000Y-130390000D02*
X161270000Y-129090000D01*
X162570000Y-127790000D02*
X162570000Y-125310000D01*
D32*
X140335685Y-129460000D02*
X140385685Y-129510000D01*
X139770000Y-129460000D02*
X140335685Y-129460000D01*
X145745000Y-129510000D02*
X146495000Y-130260000D01*
X140385685Y-129510000D02*
X145745000Y-129510000D01*
X156770000Y-113310000D02*
X157970000Y-112110000D01*
X156770000Y-113310000D02*
X156420000Y-113310000D01*
D34*
X165365045Y-100034752D02*
X165365045Y-102299769D01*
X163170000Y-97839707D02*
X165365045Y-100034752D01*
X163170000Y-93610000D02*
X163170000Y-97839707D01*
X159520132Y-88879870D02*
X159520132Y-88830132D01*
X159920131Y-89279869D02*
X159520132Y-88879870D01*
X155755666Y-85065666D02*
X155729034Y-85065666D01*
X159520132Y-88830132D02*
X155755666Y-85065666D01*
X148520000Y-86610000D02*
X151269999Y-83860001D01*
X151269999Y-83860001D02*
X151654513Y-83860001D01*
X148270000Y-86610000D02*
X148520000Y-86610000D01*
D32*
X156770000Y-115060000D02*
X156770000Y-113310000D01*
X156770000Y-119610000D02*
X156770000Y-115060000D01*
D35*
X156920000Y-114910000D02*
X156770000Y-115060000D01*
X157110000Y-114910000D02*
X156920000Y-114910000D01*
D36*
X156420000Y-113310000D02*
X155529462Y-114200538D01*
X155421944Y-114200538D02*
X155139102Y-114200538D01*
X155529462Y-114200538D02*
X155421944Y-114200538D01*
D35*
X162129990Y-120910000D02*
X162200000Y-120980010D01*
D32*
X161770000Y-120910000D02*
X161699999Y-120980001D01*
X161699999Y-120980001D02*
X158140001Y-120980001D01*
X157169999Y-120009999D02*
X156770000Y-119610000D01*
X158140001Y-120980001D02*
X157169999Y-120009999D01*
D35*
X161770000Y-120910000D02*
X162129990Y-120910000D01*
D34*
G04 #@! TO.N,/MCU/NRST*
X139944999Y-125034999D02*
X136670000Y-121760000D01*
X139944999Y-127521345D02*
X139944999Y-125034999D01*
X140133238Y-127709584D02*
X139944999Y-127521345D01*
X140698923Y-127709584D02*
X140133238Y-127709584D01*
D36*
X143150002Y-101761202D02*
X143150002Y-100519925D01*
X142671205Y-102239999D02*
X143150002Y-101761202D01*
X141209999Y-102239999D02*
X142671205Y-102239999D01*
X141010000Y-102040000D02*
X141209999Y-102239999D01*
X143150002Y-100519925D02*
X146360980Y-97308947D01*
X146360980Y-97156178D02*
X146360980Y-97308947D01*
X146397158Y-97120000D02*
X146360980Y-97156178D01*
X146680000Y-97120000D02*
X146397158Y-97120000D01*
X139628798Y-117399998D02*
X139397160Y-117399998D01*
X139397160Y-117399998D02*
X137590000Y-119207158D01*
X140810000Y-106720000D02*
X142750000Y-108660000D01*
X137590000Y-119207158D02*
X137590000Y-119490000D01*
X140810000Y-103720000D02*
X140810000Y-106720000D01*
X142750000Y-108660000D02*
X142750000Y-114278796D01*
X142750000Y-114278796D02*
X139628798Y-117399998D01*
D32*
G04 #@! TO.N,2.8V*
X136497784Y-126236958D02*
X136497784Y-126040000D01*
X138722639Y-130012639D02*
X136497784Y-126236958D01*
X139170000Y-130460000D02*
X138722639Y-130012639D01*
D34*
X155820000Y-86610000D02*
X154270000Y-86610000D01*
X159120000Y-89910000D02*
X155820000Y-86610000D01*
X151637362Y-81865745D02*
X151386495Y-81757556D01*
X154270000Y-84175530D02*
X152713607Y-82619137D01*
X152713607Y-82619137D02*
X151637362Y-81865745D01*
X154270000Y-86610000D02*
X154270000Y-84175530D01*
X150906751Y-81865743D02*
X139478847Y-89865490D01*
X151157617Y-81757556D02*
X150906751Y-81865743D01*
X151386495Y-81757556D02*
X151157617Y-81757556D01*
X139370000Y-89974337D02*
X139370000Y-93610000D01*
X139478847Y-89865490D02*
X139370000Y-89974337D01*
D35*
X140470000Y-119210000D02*
X139830000Y-118570000D01*
X140470000Y-120420000D02*
X140470000Y-119210000D01*
X142160603Y-109030603D02*
X141330000Y-108200000D01*
X142160603Y-110072278D02*
X142160603Y-109030603D01*
X141324612Y-110908269D02*
X142160603Y-110072278D01*
X141290000Y-110908269D02*
X141324612Y-110908269D01*
X141330000Y-108200000D02*
X139795010Y-108200000D01*
X139716836Y-103695524D02*
X136045218Y-101917279D01*
X140030000Y-107965010D02*
X140030000Y-104008688D01*
X140030000Y-104008688D02*
X139716836Y-103695524D01*
X139795010Y-108200000D02*
X140030000Y-107965010D01*
X136045218Y-101917279D02*
X136045218Y-98184782D01*
X141640001Y-93403999D02*
X141276001Y-93039999D01*
X141640001Y-94206738D02*
X141640001Y-93403999D01*
X141276001Y-93039999D02*
X139940001Y-93039999D01*
X140336719Y-95510020D02*
X141640001Y-94206738D01*
X139940001Y-93039999D02*
X139370000Y-93610000D01*
X138263976Y-95510020D02*
X140336719Y-95510020D01*
X136973747Y-96800249D02*
X138263976Y-95510020D01*
X136973747Y-97256253D02*
X136973747Y-96800249D01*
X136045218Y-98184782D02*
X136973747Y-97256253D01*
D34*
G04 #@! TO.N,3.3V*
X157706522Y-125784999D02*
X150424999Y-125784999D01*
X150424999Y-125784999D02*
X147670000Y-128539998D01*
X158983044Y-127061521D02*
X157706522Y-125784999D01*
D32*
X147970000Y-115110000D02*
X144920000Y-112060000D01*
X147970000Y-115360000D02*
X147970000Y-115110000D01*
X149820000Y-106590000D02*
X148470000Y-106590000D01*
X150290000Y-107060000D02*
X150629700Y-107060000D01*
X150290000Y-107060000D02*
X149820000Y-106590000D01*
D36*
X151490000Y-96018798D02*
X151490000Y-96750000D01*
X151992692Y-95516106D02*
X151490000Y-96018798D01*
X153030359Y-95516106D02*
X151992692Y-95516106D01*
X151490000Y-96750000D02*
X151490000Y-97790000D01*
X151490000Y-97790000D02*
X155863871Y-102163871D01*
X155987084Y-102040658D02*
X156302463Y-102040658D01*
X155863871Y-102163871D02*
X155987084Y-102040658D01*
X149110763Y-93315828D02*
X148910764Y-93515827D01*
X148910764Y-95911968D02*
X149148798Y-96150002D01*
X148910764Y-93515827D02*
X148910764Y-95911968D01*
X150089401Y-96425011D02*
X150289400Y-96625010D01*
X149148798Y-96150002D02*
X149814392Y-96150002D01*
X149814392Y-96150002D02*
X150089401Y-96425011D01*
D32*
X150629700Y-106824466D02*
X150677192Y-106776974D01*
X150677192Y-106776974D02*
X151077191Y-106376975D01*
X150629700Y-107060000D02*
X150629700Y-106824466D01*
X150629700Y-107060000D02*
X150629700Y-109715016D01*
X150629700Y-109715016D02*
X152514899Y-111600215D01*
X152514899Y-111600215D02*
X152914898Y-112000214D01*
X154070000Y-114190000D02*
X154070000Y-112590000D01*
X158983044Y-127061521D02*
X158983044Y-123155046D01*
X158983044Y-123155046D02*
X154070000Y-118242002D01*
X154070000Y-118242002D02*
X154070000Y-114190000D01*
D36*
X157590002Y-105628798D02*
X157370001Y-105408797D01*
X155860000Y-112320000D02*
X156830009Y-111349991D01*
X156830009Y-111349991D02*
X156830009Y-109441193D01*
X156830009Y-109441193D02*
X157590002Y-108681200D01*
X156585305Y-102040658D02*
X156302463Y-102040658D01*
X157370001Y-105408797D02*
X157370001Y-102650001D01*
X157370001Y-102650001D02*
X156760658Y-102040658D01*
X157590002Y-108681200D02*
X157590002Y-105628798D01*
X156760658Y-102040658D02*
X156585305Y-102040658D01*
G04 #@! TO.N,Net-(C12-Pad1)*
X150630467Y-91173870D02*
X150160479Y-91643858D01*
X150799298Y-91173870D02*
X150630467Y-91173870D01*
X150927158Y-91301730D02*
X150799298Y-91173870D01*
X151210000Y-91301730D02*
X150927158Y-91301730D01*
G04 #@! TO.N,Net-(C15-Pad2)*
X143862742Y-98574662D02*
X144216295Y-98574662D01*
X144573949Y-96706051D02*
X143609999Y-97670001D01*
X143609999Y-97670001D02*
X143609999Y-98321919D01*
X143609999Y-98321919D02*
X143862742Y-98574662D01*
G04 #@! TO.N,/MCU/IR_ADC1*
X145478499Y-102760017D02*
X144607648Y-102760017D01*
X144607648Y-102760017D02*
X144598488Y-102750857D01*
D32*
G04 #@! TO.N,BATT*
X145457488Y-123722512D02*
X145220000Y-123960000D01*
X145457488Y-118320623D02*
X145457488Y-123722512D01*
D34*
X138875010Y-94935010D02*
X138110000Y-94170000D01*
X140098543Y-94935010D02*
X138875010Y-94935010D01*
X140940000Y-94093553D02*
X140098543Y-94935010D01*
X140940000Y-93740000D02*
X140940000Y-94093553D01*
D35*
X151447198Y-88987198D02*
X152273950Y-89813950D01*
X147473949Y-92506051D02*
X147473949Y-90681701D01*
X147473949Y-90681701D02*
X149168452Y-88987198D01*
X149168452Y-88987198D02*
X151447198Y-88987198D01*
X152273950Y-89813950D02*
X153173949Y-90713949D01*
X159972812Y-96932873D02*
X158170141Y-98735544D01*
X159972812Y-95227338D02*
X159972812Y-96932873D01*
X153173949Y-90713949D02*
X155459423Y-90713949D01*
X155459423Y-90713949D02*
X159972812Y-95227338D01*
X158170141Y-98735544D02*
X157685758Y-98735544D01*
D32*
X158999999Y-106777201D02*
X158999999Y-106162799D01*
X159020002Y-106142796D02*
X159020002Y-103500002D01*
X159020002Y-103500002D02*
X158343522Y-102823522D01*
X158343522Y-102823522D02*
X158343522Y-101311590D01*
X159020002Y-113410000D02*
X159020002Y-106797204D01*
X158343522Y-101311590D02*
X158743521Y-100911591D01*
X158999999Y-106162799D02*
X159020002Y-106142796D01*
X159020002Y-106797204D02*
X158999999Y-106777201D01*
D34*
G04 #@! TO.N,Net-(C20-Pad2)*
X141120000Y-126260000D02*
X143470000Y-126260000D01*
X140670000Y-126710000D02*
X141120000Y-126260000D01*
D35*
G04 #@! TO.N,3.3VA*
X149641161Y-109749587D02*
X147619587Y-109749587D01*
X149941160Y-110049586D02*
X149641161Y-109749587D01*
X147619587Y-109749587D02*
X145582439Y-107712439D01*
X145582439Y-107712439D02*
X145572439Y-107712439D01*
D36*
X143658197Y-102696457D02*
X143658197Y-103050010D01*
X146816682Y-98965872D02*
X145717940Y-98965872D01*
X147190405Y-99339595D02*
X146816682Y-98965872D01*
X145717940Y-98965872D02*
X143658197Y-101025615D01*
X143658197Y-101025615D02*
X143658197Y-102696457D01*
X146370000Y-94910000D02*
X147077106Y-94202894D01*
X147077106Y-94202894D02*
X147572495Y-94202894D01*
X147572495Y-94202894D02*
X148899562Y-92875827D01*
X148899562Y-92875827D02*
X152913831Y-92875827D01*
X152913831Y-92875827D02*
X154419002Y-94380998D01*
D34*
X147190405Y-95730405D02*
X147077106Y-95617106D01*
X147077106Y-95617106D02*
X146370000Y-94910000D01*
X147190405Y-99339595D02*
X147190405Y-95730405D01*
G04 #@! TO.N,1.65V_REF*
X141750010Y-105904955D02*
X142406534Y-106561479D01*
X142406534Y-106561479D02*
X142406534Y-106834498D01*
D36*
G04 #@! TO.N,Net-(C26-Pad1)*
X142010000Y-101760000D02*
X142209999Y-101560001D01*
X142209999Y-101560001D02*
X142209999Y-92309999D01*
X142209999Y-92309999D02*
X142190000Y-92290000D01*
X155790001Y-99030001D02*
X155790001Y-97177781D01*
X157870584Y-98122802D02*
X158069416Y-98122802D01*
X155990000Y-99230000D02*
X155790001Y-99030001D01*
X158069416Y-98122802D02*
X159482802Y-96709416D01*
X155790001Y-97177781D02*
X155990000Y-96977782D01*
X155990000Y-96977782D02*
X156725564Y-96977782D01*
X159482802Y-95580532D02*
X157746134Y-93843864D01*
X159482802Y-96709416D02*
X159482802Y-95580532D01*
X156725564Y-96977782D02*
X157870584Y-98122802D01*
X157746134Y-93843864D02*
X157546135Y-93643865D01*
X145640000Y-88770000D02*
X145839999Y-88570001D01*
X148789915Y-84440000D02*
X149920000Y-84440000D01*
X145839999Y-87389916D02*
X148789915Y-84440000D01*
X149920000Y-84440000D02*
X149920000Y-84400000D01*
X149920000Y-84400000D02*
X151640000Y-82680000D01*
X145839999Y-88570001D02*
X145839999Y-87389916D01*
X151640000Y-82680000D02*
X153029990Y-84069990D01*
X153029990Y-84069990D02*
X153029990Y-87020075D01*
X157426050Y-91416135D02*
X157576135Y-91416135D01*
X153029990Y-87020075D02*
X157426050Y-91416135D01*
G04 #@! TO.N,/MCU/IR_ADC2*
X145349989Y-106520011D02*
X146210839Y-106520011D01*
X146799969Y-105648250D02*
X147389999Y-105058220D01*
X147389999Y-105058220D02*
X147389999Y-103557236D01*
X147389999Y-103557236D02*
X147237373Y-103404610D01*
X144890000Y-106980000D02*
X145349989Y-106520011D01*
X147237373Y-103404610D02*
X147037374Y-103204611D01*
X146799969Y-105930881D02*
X146799969Y-105648250D01*
X146210839Y-106520011D02*
X146799969Y-105930881D01*
G04 #@! TO.N,/MCU/BUTTON*
X155900000Y-104730000D02*
X156010000Y-104730000D01*
X156010000Y-104730000D02*
X157150000Y-105870000D01*
X161050000Y-106840000D02*
X161920000Y-107710000D01*
X159710000Y-106840000D02*
X161050000Y-106840000D01*
X162052842Y-110760000D02*
X162380000Y-111087158D01*
X161770000Y-110760000D02*
X162052842Y-110760000D01*
X162380000Y-111087158D02*
X162380000Y-116830000D01*
X161860000Y-116830000D02*
X161830000Y-116860000D01*
X162380000Y-116830000D02*
X161860000Y-116830000D01*
X163310000Y-121330000D02*
X163310000Y-120340000D01*
X165610000Y-123630000D02*
X163310000Y-121330000D01*
X160250000Y-120340000D02*
X159520000Y-119610000D01*
X161350000Y-120340000D02*
X160250000Y-120340000D01*
D32*
G04 #@! TO.N,Net-(D2-Pad1)*
X136129113Y-96553299D02*
X136129113Y-95898006D01*
X135729114Y-96953298D02*
X136129113Y-96553299D01*
X137933606Y-92268014D02*
X137977191Y-92311599D01*
X137887198Y-92268014D02*
X137933606Y-92268014D01*
X136129113Y-95898006D02*
X137977191Y-92311599D01*
G04 #@! TO.N,Net-(D5-Pad1)*
X164888373Y-95928373D02*
X167620000Y-98660000D01*
X164888373Y-92975318D02*
X164888373Y-95928373D01*
D36*
G04 #@! TO.N,Net-(D6-Pad2)*
X150140000Y-115952842D02*
X149422842Y-116670000D01*
X150140000Y-115670000D02*
X150140000Y-115952842D01*
X149422842Y-116670000D02*
X141290000Y-116670000D01*
X138750000Y-117560000D02*
X137680000Y-117560000D01*
X141150000Y-115160000D02*
X138750000Y-117560000D01*
G04 #@! TO.N,Net-(D7-Pad2)*
X143190000Y-115940000D02*
X142907158Y-115940000D01*
X141740000Y-115940000D02*
X141720000Y-115960000D01*
X142907158Y-115940000D02*
X141740000Y-115940000D01*
X140830000Y-114560000D02*
X138570000Y-116820000D01*
X138570000Y-116820000D02*
X138550000Y-116820000D01*
X138550000Y-116820000D02*
X138280000Y-117090000D01*
X138280000Y-117090000D02*
X136860000Y-117090000D01*
X136860000Y-117220000D02*
X136080000Y-118000000D01*
X136860000Y-117090000D02*
X136860000Y-117220000D01*
G04 #@! TO.N,Net-(D8-Pad2)*
X137280000Y-118630000D02*
X134730000Y-118630000D01*
X137760000Y-118150000D02*
X137280000Y-118630000D01*
G04 #@! TO.N,/MCU/SWCLK*
X160012875Y-101510717D02*
X162380717Y-101510717D01*
X159599061Y-101096903D02*
X160012875Y-101510717D01*
X162380717Y-101510717D02*
X162840000Y-101970000D01*
X162840000Y-101970000D02*
X162840000Y-104690000D01*
X162840000Y-104690000D02*
X162840000Y-113480000D01*
X162840000Y-123944798D02*
X161424798Y-125360000D01*
X162840000Y-113480000D02*
X162840000Y-123944798D01*
X160270000Y-125360000D02*
X160260000Y-125350000D01*
X161424798Y-125360000D02*
X160270000Y-125360000D01*
X156867917Y-125174239D02*
X156662156Y-125380000D01*
X157150759Y-125174239D02*
X156867917Y-125174239D01*
X156662156Y-125380000D02*
X150810000Y-125380000D01*
X146560011Y-125419989D02*
X143310000Y-128670000D01*
X146600000Y-125380000D02*
X146560011Y-125419989D01*
X150810000Y-125380000D02*
X146600000Y-125380000D01*
G04 #@! TO.N,/MCU/SWDIO*
X156416456Y-124576554D02*
X156416456Y-124859396D01*
X156416456Y-124859396D02*
X156235862Y-125039990D01*
X156235862Y-125039990D02*
X147999990Y-125039990D01*
X147999990Y-125039990D02*
X147990000Y-125030000D01*
X147990000Y-125030000D02*
X146060000Y-125030000D01*
X143330000Y-127760000D02*
X143330000Y-128020000D01*
X146060000Y-125030000D02*
X143330000Y-127760000D01*
X159610002Y-102180000D02*
X162350000Y-102180000D01*
X161208990Y-108340000D02*
X159730000Y-109818990D01*
X159515773Y-117065763D02*
X162350000Y-119899990D01*
X159515773Y-115652799D02*
X159515773Y-117065763D01*
X162440000Y-108340000D02*
X161208990Y-108340000D01*
X162350000Y-102180000D02*
X162440000Y-102270000D01*
X159730000Y-115438572D02*
X159515773Y-115652799D01*
X159730000Y-109818990D02*
X159730000Y-115438572D01*
X162440000Y-102270000D02*
X162440000Y-108340000D01*
G04 #@! TO.N,/MCU/TOF1_EN*
X147790000Y-97660000D02*
X147790000Y-95600000D01*
X147890000Y-95500000D02*
X147890000Y-94550000D01*
X147790000Y-95600000D02*
X147890000Y-95500000D01*
X145760000Y-93390000D02*
X144830000Y-92460000D01*
X145980000Y-93390000D02*
X145760000Y-93390000D01*
G04 #@! TO.N,/MCU/TOF_SDA*
X159067464Y-87480000D02*
X158940000Y-87480000D01*
X160864999Y-89277535D02*
X159067464Y-87480000D01*
X160864999Y-91130001D02*
X160864999Y-89277535D01*
X160665000Y-91330000D02*
X160864999Y-91130001D01*
X150090011Y-86625390D02*
X149890012Y-86825389D01*
X147346964Y-89493433D02*
X147146965Y-89693432D01*
X149890012Y-86825389D02*
X149890012Y-86950385D01*
X149890012Y-86950385D02*
X147346964Y-89493433D01*
X151206883Y-87050001D02*
X152398442Y-88241560D01*
X152398442Y-88241560D02*
X152598441Y-88441559D01*
X150090011Y-86625390D02*
X150514622Y-87050001D01*
X150514622Y-87050001D02*
X151206883Y-87050001D01*
X157569141Y-100590011D02*
X158399162Y-99759990D01*
X161670000Y-96579865D02*
X161670000Y-95692842D01*
X152737035Y-97449287D02*
X152737035Y-98397881D01*
X158399162Y-99759990D02*
X158489875Y-99759990D01*
X158489875Y-99759990D02*
X161670000Y-96579865D01*
X152937034Y-97249288D02*
X152737035Y-97449287D01*
X161670000Y-95692842D02*
X161670000Y-95410000D01*
X154929165Y-100590011D02*
X157569141Y-100590011D01*
X152737035Y-98397881D02*
X154929165Y-100590011D01*
X144160000Y-94205000D02*
X144160000Y-93799799D01*
X144160000Y-93799799D02*
X144684799Y-93275000D01*
G04 #@! TO.N,/MCU/TOF_SCL*
X153740838Y-88680010D02*
X153940010Y-88480838D01*
X151270000Y-86610000D02*
X151389152Y-86610000D01*
X157499172Y-92040000D02*
X160607158Y-92040000D01*
X151389152Y-86610000D02*
X153459162Y-88680010D01*
X153940010Y-88480838D02*
X157499172Y-92040000D01*
X153459162Y-88680010D02*
X153740838Y-88680010D01*
X160607158Y-92040000D02*
X160890000Y-92040000D01*
X153318873Y-97631127D02*
X153318873Y-98498871D01*
X155070002Y-100250000D02*
X157248304Y-100250000D01*
X158168684Y-99429979D02*
X160710001Y-96888662D01*
X153318873Y-98498871D02*
X155070002Y-100250000D01*
X160710001Y-96888662D02*
X160910000Y-96688663D01*
X158068325Y-99429979D02*
X158168684Y-99429979D01*
X157248304Y-100250000D02*
X158068325Y-99429979D01*
X152387239Y-88881561D02*
X151905678Y-88400000D01*
X153539287Y-88881561D02*
X152387239Y-88881561D01*
X153940010Y-88480838D02*
X153539287Y-88881561D01*
X151905678Y-88400000D02*
X149062670Y-88400000D01*
X143580010Y-93931589D02*
X143580010Y-94214431D01*
X145442672Y-92019998D02*
X144618798Y-92019998D01*
X143580010Y-93058786D02*
X143580010Y-93931589D01*
X149062670Y-88400000D02*
X145442672Y-92019998D01*
X144618798Y-92019998D02*
X143580010Y-93058786D01*
D34*
G04 #@! TO.N,Net-(J3-Pad3)*
X170334084Y-125886327D02*
X170806327Y-125886327D01*
X170806327Y-127996327D02*
X170810000Y-128000000D01*
X170806327Y-125886327D02*
X170806327Y-127996327D01*
X170810000Y-128000000D02*
X170810000Y-128820000D01*
X170810000Y-128820000D02*
X170490000Y-128820000D01*
X170470000Y-128840000D02*
X170470000Y-129384990D01*
X170490000Y-128820000D02*
X170470000Y-128840000D01*
G04 #@! TO.N,Net-(J3-Pad4)*
X169870000Y-126990000D02*
X169870000Y-128840000D01*
X170210000Y-126650000D02*
X169870000Y-126990000D01*
G04 #@! TO.N,Net-(J3-Pad2)*
X170180000Y-125160000D02*
X168890010Y-125160000D01*
X168900000Y-125169990D02*
X168900000Y-127710000D01*
X168900000Y-127710000D02*
X168950000Y-127760000D01*
X168890010Y-125160000D02*
X168900000Y-125169990D01*
X169220000Y-128450000D02*
X169220000Y-129384990D01*
X168950000Y-128180000D02*
X169220000Y-128450000D01*
X168950000Y-127760000D02*
X168950000Y-128180000D01*
D36*
G04 #@! TO.N,/MCU/TOF2_EN*
X157759999Y-100890001D02*
X157859999Y-100890001D01*
X157560000Y-101090000D02*
X157759999Y-100890001D01*
X160750000Y-98000000D02*
X161670000Y-98000000D01*
X157859999Y-100890001D02*
X160750000Y-98000000D01*
D34*
G04 #@! TO.N,Net-(J5-Pad2)*
X146780000Y-136210000D02*
X146780000Y-137584990D01*
X148915010Y-137584990D02*
X148960000Y-137540000D01*
X146780000Y-137584990D02*
X148915010Y-137584990D01*
X149209999Y-137290001D02*
X151054990Y-137290001D01*
X148960000Y-137540000D02*
X149209999Y-137290001D01*
G04 #@! TO.N,Net-(J5-Pad4)*
X148520009Y-136460009D02*
X150390009Y-136460009D01*
X148270000Y-136210000D02*
X148520009Y-136460009D01*
X150506086Y-136576086D02*
X150506086Y-136604644D01*
X150390009Y-136460009D02*
X150506086Y-136576086D01*
G04 #@! TO.N,Net-(J5-Pad3)*
X150550000Y-135930000D02*
X150630000Y-136010000D01*
X150550000Y-135310000D02*
X150550000Y-135930000D01*
X150630000Y-136010000D02*
X150994990Y-136010000D01*
X147530000Y-135310000D02*
X150550000Y-135310000D01*
X147530000Y-135794084D02*
X147530000Y-135310000D01*
X147535895Y-135799979D02*
X147530000Y-135794084D01*
X147535895Y-136153532D02*
X147535895Y-135799979D01*
D36*
G04 #@! TO.N,/MCU/TOF3_EN*
X154230000Y-95332842D02*
X154230000Y-95050000D01*
X154230000Y-95992050D02*
X154230000Y-95332842D01*
X154719979Y-96482029D02*
X154230000Y-95992050D01*
X154719979Y-97689294D02*
X154719979Y-96482029D01*
X155380000Y-96010000D02*
X156665100Y-96010000D01*
X156665100Y-96010000D02*
X157400000Y-95275100D01*
X157400000Y-95275100D02*
X157400000Y-94120000D01*
X156630000Y-93350000D02*
X156630000Y-92940000D01*
X157400000Y-94120000D02*
X156630000Y-93350000D01*
X155260000Y-87850000D02*
X154510000Y-87850000D01*
X157890000Y-90480000D02*
X155260000Y-87850000D01*
D34*
G04 #@! TO.N,Net-(J7-Pad3)*
X131870549Y-126035397D02*
X132706603Y-126035397D01*
X132706603Y-126035397D02*
X132728000Y-126056794D01*
X132728000Y-126056794D02*
X132728000Y-128808000D01*
X132728000Y-128808000D02*
X131966000Y-128808000D01*
X131966000Y-128808000D02*
X131966000Y-129434990D01*
G04 #@! TO.N,Net-(J7-Pad4)*
X131391000Y-127254999D02*
X131391000Y-129065148D01*
X131869999Y-126776000D02*
X131391000Y-127254999D01*
G04 #@! TO.N,Net-(J7-Pad2)*
X131670000Y-125210000D02*
X130445010Y-125210000D01*
X130445010Y-127720010D02*
X130585000Y-127860000D01*
X130445010Y-125210000D02*
X130445010Y-127720010D01*
X130585000Y-128280000D02*
X130770000Y-128465000D01*
X130585000Y-127860000D02*
X130585000Y-128280000D01*
X130770000Y-128465000D02*
X130770000Y-128760000D01*
X130770000Y-128760000D02*
X130770000Y-129634990D01*
D36*
G04 #@! TO.N,/MCU/ENC1_B*
X152739979Y-107709979D02*
X152739979Y-105791931D01*
X152739979Y-105791931D02*
X146927642Y-99979594D01*
X146927642Y-99979594D02*
X146727643Y-99779595D01*
X152940000Y-107910000D02*
X152739979Y-107709979D01*
G04 #@! TO.N,/MCU/ENC1_A*
X152399968Y-108021168D02*
X152399968Y-105979122D01*
X152728800Y-108350000D02*
X152399968Y-108021168D01*
X154219999Y-108480001D02*
X154089999Y-108350001D01*
X154089999Y-108350001D02*
X152728800Y-108350000D01*
X152399968Y-105979122D02*
X147510837Y-101089991D01*
X147510837Y-101089991D02*
X147270965Y-101089991D01*
X147270965Y-101089991D02*
X146581225Y-100400251D01*
X146581225Y-100400251D02*
X146381226Y-100200252D01*
X154020000Y-109620000D02*
X154219999Y-109420001D01*
X154219999Y-109420001D02*
X154219999Y-108480001D01*
G04 #@! TO.N,/MCU/ENC2_A*
X146520000Y-101430000D02*
X148070021Y-102980021D01*
X147479990Y-105929925D02*
X147479990Y-107680010D01*
X147469999Y-107690001D02*
X147270000Y-107890000D01*
X148070021Y-105339894D02*
X147479990Y-105929925D01*
X147479990Y-107680010D02*
X147469999Y-107690001D01*
X148070021Y-102980021D02*
X148070021Y-105339894D01*
G04 #@! TO.N,/MCU/ENC2_B*
X147139980Y-105789087D02*
X147730010Y-105199057D01*
X147730010Y-105199057D02*
X147730010Y-103254898D01*
X147139980Y-106071718D02*
X147139980Y-105789087D01*
X147730010Y-103254898D02*
X146774872Y-102299760D01*
X146774872Y-102299760D02*
X146492030Y-102299760D01*
X144950000Y-107571202D02*
X145661180Y-106860022D01*
X144950000Y-108650000D02*
X144950000Y-107571202D01*
X145661180Y-106860022D02*
X146351677Y-106860021D01*
X146351677Y-106860021D02*
X147139980Y-106071718D01*
X146910000Y-110610000D02*
X144950000Y-108650000D01*
D37*
G04 #@! TO.N,Net-(J12-Pad2)*
X160155774Y-112153371D02*
X160699145Y-111610000D01*
X160155774Y-115960000D02*
X160155774Y-112153371D01*
G04 #@! TO.N,Net-(J13-Pad2)*
X160786191Y-110509999D02*
X160386192Y-110110000D01*
X161919999Y-111643807D02*
X160786191Y-110509999D01*
X161919999Y-111960001D02*
X161919999Y-111643807D01*
X161520000Y-112360000D02*
X161919999Y-111960001D01*
D34*
G04 #@! TO.N,Net-(J14-Pad2)*
X163750660Y-129889678D02*
X161930348Y-131709990D01*
X154489116Y-130537309D02*
X154433217Y-130537309D01*
X155661797Y-131709990D02*
X154489116Y-130537309D01*
X161930348Y-131709990D02*
X155661797Y-131709990D01*
G04 #@! TO.N,/converter/NRST*
X155530000Y-138040000D02*
X155490000Y-138000000D01*
X157470000Y-138040000D02*
X155530000Y-138040000D01*
G04 #@! TO.N,/converter/SWCLK*
X157470000Y-139310000D02*
X156795000Y-139310000D01*
X161060002Y-136020000D02*
X161070002Y-136030000D01*
X161060002Y-136020000D02*
X162850000Y-136020000D01*
X162955000Y-136125000D02*
X162955000Y-137990000D01*
X162850000Y-136020000D02*
X162955000Y-136125000D01*
X155900000Y-136020000D02*
X161060002Y-136020000D01*
X155900000Y-136020000D02*
X155230000Y-136020000D01*
X155230000Y-136020000D02*
X155220000Y-136030000D01*
X155230000Y-136020000D02*
X154810000Y-136020000D01*
X154810000Y-136020000D02*
X154790000Y-136040000D01*
X154790000Y-136040000D02*
X154790000Y-139270000D01*
X154830000Y-139310000D02*
X157470000Y-139310000D01*
X154790000Y-139270000D02*
X154830000Y-139310000D01*
G04 #@! TO.N,/converter/SWDIO*
X161130000Y-139250000D02*
X161070000Y-139310000D01*
X162870002Y-139250000D02*
X161130000Y-139250000D01*
X162870002Y-139250000D02*
X163530000Y-139250000D01*
D36*
G04 #@! TO.N,Net-(LS1-Pad2)*
X143410000Y-108377178D02*
X143410000Y-108660020D01*
X144340000Y-104450000D02*
X143410000Y-105380000D01*
X143410000Y-105380000D02*
X143410000Y-108377178D01*
X146050011Y-86640837D02*
X145499988Y-87190860D01*
X142689989Y-90340011D02*
X142689989Y-96887995D01*
X142710000Y-101267158D02*
X142710000Y-101550000D01*
X145499988Y-87190860D02*
X145499988Y-87530012D01*
X142689989Y-96887995D02*
X142710000Y-96908006D01*
X149850000Y-83180000D02*
X148930011Y-84099989D01*
X142710000Y-96908006D02*
X142710000Y-101267158D01*
X145499988Y-87530012D02*
X142689989Y-90340011D01*
X148930011Y-84099989D02*
X148429163Y-84099989D01*
X148429163Y-84099989D02*
X146050011Y-86479141D01*
X146050011Y-86479141D02*
X146050011Y-86640837D01*
G04 #@! TO.N,Net-(Q1-Pad2)*
X155748799Y-104220001D02*
X148328798Y-96800000D01*
X156620000Y-103771202D02*
X156171201Y-104220001D01*
X156620000Y-103450000D02*
X156620000Y-103771202D01*
X156171201Y-104220001D02*
X155748799Y-104220001D01*
X144746040Y-95076040D02*
X144490000Y-95076040D01*
X146290000Y-96620000D02*
X144746040Y-95076040D01*
X137063873Y-98206127D02*
X137063873Y-97923285D01*
X141487147Y-96171745D02*
X141769989Y-96171745D01*
X137063873Y-97923285D02*
X138815413Y-96171745D01*
X138815413Y-96171745D02*
X141487147Y-96171745D01*
X158370023Y-104000022D02*
X158370023Y-105747148D01*
X157810001Y-103440000D02*
X158370023Y-104000022D01*
X158370023Y-105747148D02*
X158370023Y-106029990D01*
G04 #@! TO.N,Net-(Q1-Pad1)*
X137928433Y-101159498D02*
X137728434Y-100959499D01*
X138970749Y-101483104D02*
X138252039Y-101483104D01*
X138252039Y-101483104D02*
X137928433Y-101159498D01*
D34*
G04 #@! TO.N,Net-(Q2-Pad1)*
X152322270Y-126510000D02*
X150970000Y-126510000D01*
X156024626Y-130212356D02*
X152322270Y-126510000D01*
G04 #@! TO.N,Net-(Q3-Pad2)*
X160705707Y-101145707D02*
X159920000Y-100360000D01*
X163880404Y-101145707D02*
X160705707Y-101145707D01*
X164280403Y-100745708D02*
X163880404Y-101145707D01*
D36*
G04 #@! TO.N,/MCU/BATT_MONITOR*
X137960000Y-97830000D02*
X137960000Y-99850085D01*
X137960000Y-99850085D02*
X141049903Y-102939988D01*
X141049903Y-102939988D02*
X141162038Y-102939988D01*
X145937872Y-103669988D02*
X146357025Y-104089141D01*
X141892038Y-103669988D02*
X145937872Y-103669988D01*
X141162038Y-102939988D02*
X141892038Y-103669988D01*
X146357025Y-104089141D02*
X146557024Y-104289140D01*
G04 #@! TO.N,/MCU/IR_LED1*
X159010324Y-102231524D02*
X159010324Y-102157424D01*
X159398800Y-102620000D02*
X159010324Y-102231524D01*
X161780000Y-102620000D02*
X159398800Y-102620000D01*
X155428547Y-102503881D02*
X149767662Y-96842996D01*
X156580000Y-102503881D02*
X155428547Y-102503881D01*
G04 #@! TO.N,Net-(R10-Pad2)*
X159970000Y-103830000D02*
X159950000Y-103810000D01*
X161740000Y-103830000D02*
X159970000Y-103830000D01*
G04 #@! TO.N,Net-(R13-Pad2)*
X141021201Y-103279999D02*
X141751201Y-104009999D01*
X145894352Y-105387148D02*
X145894352Y-105669990D01*
X140478823Y-102991177D02*
X140767645Y-103279999D01*
X144529159Y-104009999D02*
X145894352Y-105375192D01*
X140767645Y-103279999D02*
X141021201Y-103279999D01*
X141751201Y-104009999D02*
X144529159Y-104009999D01*
X145894352Y-105375192D02*
X145894352Y-105387148D01*
X157930012Y-108822038D02*
X157930012Y-105170011D01*
X155419999Y-112531201D02*
X155668798Y-112780000D01*
X151301009Y-105508201D02*
X152059957Y-106267149D01*
X157930012Y-105170011D02*
X157810001Y-105050000D01*
X156051202Y-112780000D02*
X157170019Y-111661183D01*
X149275553Y-105508201D02*
X151301009Y-105508201D01*
X152059957Y-106267149D02*
X152059957Y-108162005D01*
X152059957Y-108162005D02*
X152587963Y-108690011D01*
X153570000Y-110050002D02*
X155419999Y-111900001D01*
X157170020Y-111490828D02*
X157170020Y-109582030D01*
X155668798Y-112780000D02*
X156051202Y-112780000D01*
X152587963Y-108690011D02*
X153570000Y-108690011D01*
X157170019Y-111661183D02*
X157170020Y-111490828D01*
X157170020Y-109582030D02*
X157930012Y-108822038D01*
X155419999Y-111900001D02*
X155419999Y-112531201D01*
X153570000Y-108690011D02*
X153570000Y-110050002D01*
G04 #@! TO.N,/MCU/IR_LED2*
X155960000Y-103780000D02*
X149480000Y-97300000D01*
G04 #@! TO.N,Net-(R25-Pad2)*
X164160010Y-92949925D02*
X164160010Y-96120010D01*
X164160010Y-96120010D02*
X164710000Y-96670000D01*
X163580075Y-92369990D02*
X164160010Y-92949925D01*
X161421874Y-92369990D02*
X163580075Y-92369990D01*
X159735000Y-94056864D02*
X161421874Y-92369990D01*
G04 #@! TO.N,/MCU/LED1*
X151619947Y-106880000D02*
X151619947Y-108090053D01*
X151619947Y-108090053D02*
X151520000Y-108190000D01*
X150150000Y-113020000D02*
X150150000Y-114670000D01*
X149760000Y-112630000D02*
X150150000Y-113020000D01*
G04 #@! TO.N,/MCU/LED2*
X146722976Y-105244397D02*
X146459960Y-105507414D01*
X146722976Y-105102973D02*
X146722976Y-105244397D01*
X146922975Y-104902974D02*
X146722976Y-105102973D01*
X146459960Y-105507414D02*
X146459959Y-105790043D01*
X146459959Y-105790043D02*
X146140002Y-106110000D01*
X146140002Y-106110000D02*
X145000000Y-106110000D01*
X145000000Y-106110000D02*
X143910000Y-107200000D01*
X143910000Y-107200000D02*
X143910000Y-109560000D01*
X143910000Y-112770000D02*
X143250000Y-113430000D01*
X143910000Y-109560000D02*
X143910000Y-112770000D01*
G04 #@! TO.N,/MCU/LED3*
X152900001Y-115189999D02*
X152900001Y-115949999D01*
X153100000Y-114990000D02*
X152900001Y-115189999D01*
X152900001Y-115949999D02*
X151590000Y-117260000D01*
X151590000Y-117260000D02*
X141040000Y-117260000D01*
X140460000Y-117840000D02*
X139660000Y-117840000D01*
X141040000Y-117260000D02*
X140460000Y-117840000D01*
G04 #@! TO.N,/MCU/SPEAKER*
X144210000Y-88000000D02*
X145710000Y-86500000D01*
X145710000Y-86500000D02*
X145710000Y-86100000D01*
X143140000Y-96857158D02*
X143140000Y-91280000D01*
X143140000Y-91280000D02*
X143210000Y-91210000D01*
X143280000Y-97280000D02*
X143280000Y-96997158D01*
X143280000Y-96997158D02*
X143140000Y-96857158D01*
X146797201Y-103805480D02*
X145920000Y-102928279D01*
X145829999Y-100879999D02*
X145839999Y-100879999D01*
X145630000Y-100680000D02*
X145829999Y-100879999D01*
X145920000Y-100960000D02*
X145920000Y-102928279D01*
X145839999Y-100879999D02*
X145920000Y-100960000D01*
G04 #@! TO.N,/MCU/MOTOR11*
X155809979Y-109307973D02*
X155129989Y-109987963D01*
X155809979Y-107860000D02*
X155809979Y-109307973D01*
X155129989Y-110908605D02*
X155601384Y-111380000D01*
X153079990Y-105840010D02*
X153079990Y-107250075D01*
X155601384Y-111380000D02*
X155870000Y-111380000D01*
X155129989Y-109987963D02*
X155129989Y-110908605D01*
X153820000Y-105100000D02*
X153079990Y-105840010D01*
X153079990Y-107250075D02*
X153689915Y-107860000D01*
X153689915Y-107860000D02*
X155809979Y-107860000D01*
G04 #@! TO.N,/MCU/MOTOR12*
X154654172Y-105360470D02*
X156149989Y-106856287D01*
X156149989Y-106856287D02*
X156149989Y-109448809D01*
X156149989Y-109448809D02*
X155469999Y-110128799D01*
X155469999Y-110128799D02*
X155469999Y-110564272D01*
X155469999Y-110564272D02*
X155550012Y-110644285D01*
X154654172Y-105077628D02*
X154654172Y-105360470D01*
X155550012Y-110644285D02*
X155750011Y-110844284D01*
G04 #@! TO.N,/MCU/MOTOR21*
X155119988Y-104921190D02*
X155119989Y-105082039D01*
X156490000Y-106452050D02*
X156490000Y-109752869D01*
X154549552Y-104462900D02*
X154661698Y-104462900D01*
X154661698Y-104462900D02*
X155119988Y-104921190D01*
X155119989Y-105082039D02*
X156490000Y-106452050D01*
X156113312Y-110129557D02*
X155913313Y-110329556D01*
X156490000Y-109752869D02*
X156113312Y-110129557D01*
G04 #@! TO.N,/MCU/MOTOR22*
X156930000Y-106411202D02*
X156930000Y-108407158D01*
X155459999Y-104609999D02*
X155459999Y-104941201D01*
X154920000Y-104070000D02*
X155459999Y-104609999D01*
X155459999Y-104941201D02*
X156930000Y-106411202D01*
X156930000Y-108407158D02*
X156930000Y-108690000D01*
G04 #@! TO.N,/MCU/IMU_NSS*
X150930000Y-96410000D02*
X150050000Y-95530000D01*
X149540000Y-95530000D02*
X149360000Y-95710000D01*
X150050000Y-95530000D02*
X149540000Y-95530000D01*
G04 #@! TO.N,/MCU/IMU_SCK*
X153909978Y-98602820D02*
X153909978Y-97599978D01*
X155117158Y-99810000D02*
X153909978Y-98602820D01*
X153909978Y-97599978D02*
X152920000Y-96610000D01*
X155400000Y-99810000D02*
X155117158Y-99810000D01*
X152920000Y-96610000D02*
X152430000Y-96610000D01*
X152430000Y-96610000D02*
X152189999Y-96369999D01*
X152189999Y-96369999D02*
X151990000Y-96170000D01*
G04 #@! TO.N,/MCU/IMU_MISO*
X154939999Y-96221201D02*
X155350000Y-96631202D01*
X155350000Y-98897158D02*
X155350000Y-99180000D01*
X155350000Y-96631202D02*
X155350000Y-98897158D01*
X151519440Y-90859182D02*
X154939999Y-94279741D01*
X154939999Y-94279741D02*
X154939999Y-96221201D01*
G04 #@! TO.N,/MCU/IMU_MOSI*
X152872526Y-96032527D02*
X154249989Y-97409990D01*
X154710001Y-98573632D02*
X154910000Y-98773631D01*
X154249989Y-97409990D02*
X154249989Y-98113620D01*
X154249989Y-98113620D02*
X154710001Y-98573632D01*
G04 #@! TO.N,/ToF1/2V8*
X171470000Y-124410000D02*
X171470000Y-125910000D01*
G04 #@! TO.N,/ToF2/2V8*
X151370000Y-138960000D02*
X151420000Y-139010000D01*
X150000000Y-138960000D02*
X151370000Y-138960000D01*
G04 #@! TO.N,/ToF3/2V8*
X129564302Y-129249999D02*
X129020000Y-129794301D01*
X129020000Y-129794301D02*
X129020000Y-129860000D01*
X129630001Y-129249999D02*
X129564302Y-129249999D01*
X129880000Y-129000000D02*
X129630001Y-129249999D01*
G04 #@! TO.N,/ToF1/t_GND*
X170480000Y-123010000D02*
X171920000Y-123010000D01*
X173470000Y-129610000D02*
X173470000Y-129810000D01*
X172069990Y-124195988D02*
X172069990Y-128209990D01*
X172069990Y-128209990D02*
X173470000Y-129610000D01*
X171920000Y-124045998D02*
X172069990Y-124195988D01*
X171920000Y-123010000D02*
X171920000Y-124045998D01*
X173360000Y-129700000D02*
X173470000Y-129810000D01*
X173360000Y-128540000D02*
X173360000Y-129700000D01*
G04 #@! TO.N,/ToF2/t_GND*
X149780000Y-134450000D02*
X151220000Y-133010000D01*
X151220000Y-133010000D02*
X151420000Y-133010000D01*
X144510000Y-134450000D02*
X149780000Y-134450000D01*
X144510000Y-135700000D02*
X144510000Y-134450000D01*
X150390000Y-133010000D02*
X150340000Y-133060000D01*
X151420000Y-133010000D02*
X150390000Y-133010000D01*
G04 #@! TO.N,/ToF3/t_GND*
X132320000Y-122960000D02*
X133632674Y-122960000D01*
X133620000Y-128260000D02*
X135020000Y-129660000D01*
X135020000Y-129660000D02*
X135020000Y-129860000D01*
X133620000Y-122972674D02*
X133620000Y-128260000D01*
X133632674Y-122960000D02*
X133620000Y-122972674D01*
X135020000Y-128630000D02*
X134950000Y-128560000D01*
X135020000Y-129860000D02*
X135020000Y-128630000D01*
D32*
G04 #@! TO.N,/encoder1/t_GND*
X134235000Y-111990000D02*
X132735000Y-111990000D01*
X132735000Y-111990000D02*
X130680000Y-114045000D01*
X130680000Y-114045000D02*
X129785010Y-114939990D01*
X130880000Y-113845000D02*
X130680000Y-114045000D01*
X130880000Y-112415000D02*
X130880000Y-113845000D01*
G04 #@! TO.N,/encoder1/3V3*
X135680000Y-110370000D02*
X130760000Y-110370000D01*
X130760000Y-110370000D02*
X129780010Y-109390010D01*
X130880000Y-110490000D02*
X130760000Y-110370000D01*
X130880000Y-111445000D02*
X130880000Y-110490000D01*
G04 #@! TO.N,/encoder2/3V3*
X171266311Y-114050000D02*
X172556301Y-115339990D01*
X166310000Y-114050000D02*
X171266311Y-114050000D01*
X171370000Y-113946311D02*
X171266311Y-114050000D01*
X171266311Y-113391311D02*
X170890000Y-113015000D01*
X171266311Y-114050000D02*
X171266311Y-113391311D01*
G04 #@! TO.N,/encoder2/t_GND*
X172299990Y-109420010D02*
X172556301Y-109420010D01*
X167840000Y-112380000D02*
X169340000Y-112380000D01*
X171010000Y-110710000D02*
X171010000Y-110700000D01*
X169340000Y-112380000D02*
X171010000Y-110710000D01*
X171010000Y-110710000D02*
X172299990Y-109420010D01*
X170890000Y-110820000D02*
X171010000Y-110700000D01*
X170890000Y-112045000D02*
X170890000Y-110820000D01*
G04 #@! TO.N,/converter/3.3V*
X160460000Y-138040000D02*
X159270000Y-136850000D01*
X161070000Y-138040000D02*
X160460000Y-138040000D01*
G04 #@! TO.N,/converter/t_GND*
X159420000Y-140580000D02*
X161070000Y-140580000D01*
X159120000Y-140280000D02*
X159420000Y-140580000D01*
X159120000Y-139310000D02*
X159120000Y-140280000D01*
G04 #@! TD*
D38*
G04 #@! TO.N,GND*
G36*
X136464126Y-122795000D02*
X136630199Y-122795000D01*
X139185000Y-125349802D01*
X139184999Y-127446498D01*
X139170111Y-127521345D01*
X139184999Y-127596192D01*
X139184999Y-127596196D01*
X139229095Y-127817881D01*
X139397070Y-128069274D01*
X139460529Y-128111676D01*
X139542907Y-128194054D01*
X139585309Y-128257513D01*
X139836701Y-128425488D01*
X139979526Y-128453898D01*
X140112643Y-128587015D01*
X140493049Y-128744584D01*
X140904797Y-128744584D01*
X141285203Y-128587015D01*
X141576354Y-128295864D01*
X141733923Y-127915458D01*
X141733923Y-127503710D01*
X141597717Y-127174879D01*
X141661870Y-127020000D01*
X142766289Y-127020000D01*
X142883720Y-127137431D01*
X142904511Y-127146043D01*
X142861465Y-127189089D01*
X142800095Y-127230095D01*
X142637646Y-127473218D01*
X142623178Y-127545953D01*
X142622121Y-127547010D01*
X142495000Y-127853908D01*
X142495000Y-128186092D01*
X142550822Y-128320858D01*
X142475000Y-128503908D01*
X142475000Y-128836092D01*
X142602121Y-129142990D01*
X142837010Y-129377879D01*
X143143908Y-129505000D01*
X143476092Y-129505000D01*
X143782990Y-129377879D01*
X144017879Y-129142990D01*
X144117880Y-128901566D01*
X146904447Y-126115000D01*
X149020196Y-126115000D01*
X147630199Y-127504998D01*
X147464126Y-127504998D01*
X147083720Y-127662567D01*
X146792569Y-127953718D01*
X146635000Y-128334124D01*
X146635000Y-128745872D01*
X146792569Y-129126278D01*
X147083720Y-129417429D01*
X147464126Y-129574998D01*
X147875874Y-129574998D01*
X148256280Y-129417429D01*
X148547431Y-129126278D01*
X148705000Y-128745872D01*
X148705000Y-128665766D01*
X148877793Y-129082926D01*
X149168724Y-129373857D01*
X149089642Y-129389587D01*
X149074328Y-129390256D01*
X149022405Y-129402962D01*
X148979692Y-129411458D01*
X148975073Y-129414544D01*
X148922729Y-129427353D01*
X148818763Y-129475833D01*
X148662817Y-129548551D01*
X148536952Y-129640839D01*
X148536951Y-129640840D01*
X148343203Y-129852278D01*
X148262238Y-129985706D01*
X148262236Y-129985711D01*
X148224682Y-130047598D01*
X147732448Y-131400000D01*
X146289925Y-131400000D01*
X146220000Y-131386091D01*
X146150074Y-131400000D01*
X145942972Y-131441195D01*
X145708119Y-131598119D01*
X145551195Y-131832972D01*
X145496091Y-132110000D01*
X145510000Y-132179926D01*
X145510001Y-133715000D01*
X145230000Y-133715000D01*
X145230000Y-132179926D01*
X145243909Y-132110000D01*
X145194379Y-131860992D01*
X145188805Y-131832972D01*
X145031881Y-131598119D01*
X144797028Y-131441195D01*
X144656875Y-131413317D01*
X144589926Y-131400000D01*
X144520000Y-131386091D01*
X144450075Y-131400000D01*
X140014482Y-131400000D01*
X139973284Y-131382935D01*
X139752464Y-131339011D01*
X139756280Y-131337431D01*
X140047431Y-131046280D01*
X140205000Y-130665874D01*
X140205000Y-130254126D01*
X140047431Y-129873720D01*
X139756280Y-129582569D01*
X139514858Y-129482569D01*
X139467840Y-129435551D01*
X137532784Y-126151674D01*
X137532784Y-125901166D01*
X137537809Y-125897808D01*
X137678157Y-125687764D01*
X137727440Y-125439999D01*
X137727440Y-124239999D01*
X137678157Y-123992234D01*
X137537809Y-123782190D01*
X137327765Y-123641842D01*
X137080000Y-123592559D01*
X135880000Y-123592559D01*
X135691258Y-123630102D01*
X135590199Y-123610000D01*
X135747028Y-123578805D01*
X135981881Y-123421881D01*
X136138805Y-123187028D01*
X136175332Y-123003392D01*
X136180000Y-122979926D01*
X136180000Y-122979925D01*
X136193909Y-122910000D01*
X136180000Y-122840074D01*
X136180000Y-122677311D01*
X136464126Y-122795000D01*
X136464126Y-122795000D01*
G37*
X136464126Y-122795000D02*
X136630199Y-122795000D01*
X139185000Y-125349802D01*
X139184999Y-127446498D01*
X139170111Y-127521345D01*
X139184999Y-127596192D01*
X139184999Y-127596196D01*
X139229095Y-127817881D01*
X139397070Y-128069274D01*
X139460529Y-128111676D01*
X139542907Y-128194054D01*
X139585309Y-128257513D01*
X139836701Y-128425488D01*
X139979526Y-128453898D01*
X140112643Y-128587015D01*
X140493049Y-128744584D01*
X140904797Y-128744584D01*
X141285203Y-128587015D01*
X141576354Y-128295864D01*
X141733923Y-127915458D01*
X141733923Y-127503710D01*
X141597717Y-127174879D01*
X141661870Y-127020000D01*
X142766289Y-127020000D01*
X142883720Y-127137431D01*
X142904511Y-127146043D01*
X142861465Y-127189089D01*
X142800095Y-127230095D01*
X142637646Y-127473218D01*
X142623178Y-127545953D01*
X142622121Y-127547010D01*
X142495000Y-127853908D01*
X142495000Y-128186092D01*
X142550822Y-128320858D01*
X142475000Y-128503908D01*
X142475000Y-128836092D01*
X142602121Y-129142990D01*
X142837010Y-129377879D01*
X143143908Y-129505000D01*
X143476092Y-129505000D01*
X143782990Y-129377879D01*
X144017879Y-129142990D01*
X144117880Y-128901566D01*
X146904447Y-126115000D01*
X149020196Y-126115000D01*
X147630199Y-127504998D01*
X147464126Y-127504998D01*
X147083720Y-127662567D01*
X146792569Y-127953718D01*
X146635000Y-128334124D01*
X146635000Y-128745872D01*
X146792569Y-129126278D01*
X147083720Y-129417429D01*
X147464126Y-129574998D01*
X147875874Y-129574998D01*
X148256280Y-129417429D01*
X148547431Y-129126278D01*
X148705000Y-128745872D01*
X148705000Y-128665766D01*
X148877793Y-129082926D01*
X149168724Y-129373857D01*
X149089642Y-129389587D01*
X149074328Y-129390256D01*
X149022405Y-129402962D01*
X148979692Y-129411458D01*
X148975073Y-129414544D01*
X148922729Y-129427353D01*
X148818763Y-129475833D01*
X148662817Y-129548551D01*
X148536952Y-129640839D01*
X148536951Y-129640840D01*
X148343203Y-129852278D01*
X148262238Y-129985706D01*
X148262236Y-129985711D01*
X148224682Y-130047598D01*
X147732448Y-131400000D01*
X146289925Y-131400000D01*
X146220000Y-131386091D01*
X146150074Y-131400000D01*
X145942972Y-131441195D01*
X145708119Y-131598119D01*
X145551195Y-131832972D01*
X145496091Y-132110000D01*
X145510000Y-132179926D01*
X145510001Y-133715000D01*
X145230000Y-133715000D01*
X145230000Y-132179926D01*
X145243909Y-132110000D01*
X145194379Y-131860992D01*
X145188805Y-131832972D01*
X145031881Y-131598119D01*
X144797028Y-131441195D01*
X144656875Y-131413317D01*
X144589926Y-131400000D01*
X144520000Y-131386091D01*
X144450075Y-131400000D01*
X140014482Y-131400000D01*
X139973284Y-131382935D01*
X139752464Y-131339011D01*
X139756280Y-131337431D01*
X140047431Y-131046280D01*
X140205000Y-130665874D01*
X140205000Y-130254126D01*
X140047431Y-129873720D01*
X139756280Y-129582569D01*
X139514858Y-129482569D01*
X139467840Y-129435551D01*
X137532784Y-126151674D01*
X137532784Y-125901166D01*
X137537809Y-125897808D01*
X137678157Y-125687764D01*
X137727440Y-125439999D01*
X137727440Y-124239999D01*
X137678157Y-123992234D01*
X137537809Y-123782190D01*
X137327765Y-123641842D01*
X137080000Y-123592559D01*
X135880000Y-123592559D01*
X135691258Y-123630102D01*
X135590199Y-123610000D01*
X135747028Y-123578805D01*
X135981881Y-123421881D01*
X136138805Y-123187028D01*
X136175332Y-123003392D01*
X136180000Y-122979926D01*
X136180000Y-122979925D01*
X136193909Y-122910000D01*
X136180000Y-122840074D01*
X136180000Y-122677311D01*
X136464126Y-122795000D01*
G36*
X164802121Y-123861568D02*
X164873729Y-124034445D01*
X164861843Y-124052234D01*
X164812560Y-124299999D01*
X164812560Y-125499999D01*
X164861843Y-125747764D01*
X165002191Y-125957808D01*
X165212235Y-126098156D01*
X165460000Y-126147439D01*
X165915186Y-126147439D01*
X164248627Y-128975667D01*
X163956534Y-128854678D01*
X163544786Y-128854678D01*
X163164380Y-129012247D01*
X162876857Y-129299770D01*
X162651783Y-129255000D01*
X162428217Y-129255000D01*
X162097145Y-129320854D01*
X162081130Y-129331555D01*
X161896310Y-129255000D01*
X161555750Y-129255000D01*
X161397000Y-129413750D01*
X161397000Y-130263000D01*
X161408027Y-130263000D01*
X161382765Y-130390000D01*
X161408027Y-130517000D01*
X161397000Y-130517000D01*
X161397000Y-130537000D01*
X161143000Y-130537000D01*
X161143000Y-130517000D01*
X160293750Y-130517000D01*
X160135000Y-130675750D01*
X160135000Y-130949990D01*
X156750703Y-130949990D01*
X156902057Y-130798636D01*
X157059626Y-130418230D01*
X157059626Y-130006482D01*
X156959059Y-129763691D01*
X160135000Y-129763691D01*
X160135000Y-130104250D01*
X160293750Y-130263000D01*
X161143000Y-130263000D01*
X161143000Y-129413750D01*
X160984250Y-129255000D01*
X160643690Y-129255000D01*
X160410301Y-129351673D01*
X160231673Y-129530302D01*
X160135000Y-129763691D01*
X156959059Y-129763691D01*
X156902057Y-129626076D01*
X156610906Y-129334925D01*
X156230500Y-129177356D01*
X156064428Y-129177356D01*
X153432070Y-126544999D01*
X157391721Y-126544999D01*
X157948044Y-127101323D01*
X157948044Y-127267395D01*
X158105613Y-127647801D01*
X158396764Y-127938952D01*
X158777170Y-128096521D01*
X159188918Y-128096521D01*
X159569324Y-127938952D01*
X159860475Y-127647801D01*
X160018044Y-127267395D01*
X160018044Y-126855647D01*
X159918044Y-126614225D01*
X159918044Y-126112155D01*
X160093908Y-126185000D01*
X160426092Y-126185000D01*
X160643372Y-126095000D01*
X161352414Y-126095000D01*
X161424798Y-126109398D01*
X161497182Y-126095000D01*
X161497186Y-126095000D01*
X161711581Y-126052354D01*
X161954703Y-125889905D01*
X161995709Y-125828535D01*
X163308537Y-124515708D01*
X163369905Y-124474703D01*
X163532354Y-124231581D01*
X163575000Y-124017186D01*
X163575000Y-124017182D01*
X163589398Y-123944798D01*
X163575000Y-123872414D01*
X163575000Y-122634446D01*
X164802121Y-123861568D01*
X164802121Y-123861568D01*
G37*
X164802121Y-123861568D02*
X164873729Y-124034445D01*
X164861843Y-124052234D01*
X164812560Y-124299999D01*
X164812560Y-125499999D01*
X164861843Y-125747764D01*
X165002191Y-125957808D01*
X165212235Y-126098156D01*
X165460000Y-126147439D01*
X165915186Y-126147439D01*
X164248627Y-128975667D01*
X163956534Y-128854678D01*
X163544786Y-128854678D01*
X163164380Y-129012247D01*
X162876857Y-129299770D01*
X162651783Y-129255000D01*
X162428217Y-129255000D01*
X162097145Y-129320854D01*
X162081130Y-129331555D01*
X161896310Y-129255000D01*
X161555750Y-129255000D01*
X161397000Y-129413750D01*
X161397000Y-130263000D01*
X161408027Y-130263000D01*
X161382765Y-130390000D01*
X161408027Y-130517000D01*
X161397000Y-130517000D01*
X161397000Y-130537000D01*
X161143000Y-130537000D01*
X161143000Y-130517000D01*
X160293750Y-130517000D01*
X160135000Y-130675750D01*
X160135000Y-130949990D01*
X156750703Y-130949990D01*
X156902057Y-130798636D01*
X157059626Y-130418230D01*
X157059626Y-130006482D01*
X156959059Y-129763691D01*
X160135000Y-129763691D01*
X160135000Y-130104250D01*
X160293750Y-130263000D01*
X161143000Y-130263000D01*
X161143000Y-129413750D01*
X160984250Y-129255000D01*
X160643690Y-129255000D01*
X160410301Y-129351673D01*
X160231673Y-129530302D01*
X160135000Y-129763691D01*
X156959059Y-129763691D01*
X156902057Y-129626076D01*
X156610906Y-129334925D01*
X156230500Y-129177356D01*
X156064428Y-129177356D01*
X153432070Y-126544999D01*
X157391721Y-126544999D01*
X157948044Y-127101323D01*
X157948044Y-127267395D01*
X158105613Y-127647801D01*
X158396764Y-127938952D01*
X158777170Y-128096521D01*
X159188918Y-128096521D01*
X159569324Y-127938952D01*
X159860475Y-127647801D01*
X160018044Y-127267395D01*
X160018044Y-126855647D01*
X159918044Y-126614225D01*
X159918044Y-126112155D01*
X160093908Y-126185000D01*
X160426092Y-126185000D01*
X160643372Y-126095000D01*
X161352414Y-126095000D01*
X161424798Y-126109398D01*
X161497182Y-126095000D01*
X161497186Y-126095000D01*
X161711581Y-126052354D01*
X161954703Y-125889905D01*
X161995709Y-125828535D01*
X163308537Y-124515708D01*
X163369905Y-124474703D01*
X163532354Y-124231581D01*
X163575000Y-124017186D01*
X163575000Y-124017182D01*
X163589398Y-123944798D01*
X163575000Y-123872414D01*
X163575000Y-122634446D01*
X164802121Y-123861568D01*
G36*
X158085002Y-112202888D02*
X157984143Y-112303748D01*
X157970000Y-112289605D01*
X157505181Y-112754424D01*
X157517393Y-112949025D01*
X157872927Y-113058363D01*
X158052414Y-113041379D01*
X157985002Y-113204126D01*
X157985002Y-113615874D01*
X158142571Y-113996280D01*
X158433722Y-114287431D01*
X158814128Y-114445000D01*
X158995001Y-114445000D01*
X158995001Y-115116792D01*
X158985868Y-115122894D01*
X158823419Y-115366017D01*
X158780773Y-115580412D01*
X158780773Y-115580415D01*
X158766375Y-115652799D01*
X158780773Y-115725184D01*
X158780774Y-116993374D01*
X158766375Y-117065763D01*
X158823419Y-117352545D01*
X158944864Y-117534300D01*
X158985869Y-117595668D01*
X159047236Y-117636672D01*
X160994160Y-119583596D01*
X160942486Y-119605000D01*
X160554447Y-119605000D01*
X160327879Y-119378433D01*
X160227879Y-119137010D01*
X159992990Y-118902121D01*
X159686092Y-118775000D01*
X159353908Y-118775000D01*
X159047010Y-118902121D01*
X158812121Y-119137010D01*
X158685000Y-119443908D01*
X158685000Y-119776092D01*
X158812121Y-120082990D01*
X159047010Y-120317879D01*
X159288433Y-120417879D01*
X159679090Y-120808537D01*
X159720095Y-120869905D01*
X159963217Y-121032354D01*
X160177612Y-121075000D01*
X160177616Y-121075000D01*
X160250000Y-121089398D01*
X160322384Y-121075000D01*
X160942486Y-121075000D01*
X161152289Y-121161903D01*
X160863700Y-121281441D01*
X160462267Y-121682874D01*
X160245012Y-122207373D01*
X160245012Y-122775085D01*
X160462267Y-123299584D01*
X160863700Y-123701017D01*
X161388199Y-123918272D01*
X161827079Y-123918272D01*
X161120352Y-124625000D01*
X160691656Y-124625000D01*
X160426092Y-124515000D01*
X160093908Y-124515000D01*
X159918044Y-124587845D01*
X159918044Y-123247126D01*
X159936360Y-123155045D01*
X159918044Y-123062964D01*
X159918044Y-123062960D01*
X159863794Y-122790227D01*
X159657141Y-122480949D01*
X159579075Y-122428787D01*
X155005000Y-117854713D01*
X155005000Y-113880978D01*
X155068529Y-113838529D01*
X155334439Y-113440565D01*
X155382015Y-113472354D01*
X155596410Y-113515000D01*
X155596414Y-113515000D01*
X155668798Y-113529398D01*
X155741182Y-113515000D01*
X155978818Y-113515000D01*
X156051202Y-113529398D01*
X156123586Y-113515000D01*
X156123590Y-113515000D01*
X156337985Y-113472354D01*
X156581107Y-113309905D01*
X156622113Y-113248535D01*
X157297586Y-112573063D01*
X157325576Y-112574819D01*
X157790395Y-112110000D01*
X157776253Y-112095858D01*
X157827666Y-112044444D01*
X157872927Y-112058363D01*
X158085002Y-112038295D01*
X158085002Y-112202888D01*
X158085002Y-112202888D01*
G37*
X158085002Y-112202888D02*
X157984143Y-112303748D01*
X157970000Y-112289605D01*
X157505181Y-112754424D01*
X157517393Y-112949025D01*
X157872927Y-113058363D01*
X158052414Y-113041379D01*
X157985002Y-113204126D01*
X157985002Y-113615874D01*
X158142571Y-113996280D01*
X158433722Y-114287431D01*
X158814128Y-114445000D01*
X158995001Y-114445000D01*
X158995001Y-115116792D01*
X158985868Y-115122894D01*
X158823419Y-115366017D01*
X158780773Y-115580412D01*
X158780773Y-115580415D01*
X158766375Y-115652799D01*
X158780773Y-115725184D01*
X158780774Y-116993374D01*
X158766375Y-117065763D01*
X158823419Y-117352545D01*
X158944864Y-117534300D01*
X158985869Y-117595668D01*
X159047236Y-117636672D01*
X160994160Y-119583596D01*
X160942486Y-119605000D01*
X160554447Y-119605000D01*
X160327879Y-119378433D01*
X160227879Y-119137010D01*
X159992990Y-118902121D01*
X159686092Y-118775000D01*
X159353908Y-118775000D01*
X159047010Y-118902121D01*
X158812121Y-119137010D01*
X158685000Y-119443908D01*
X158685000Y-119776092D01*
X158812121Y-120082990D01*
X159047010Y-120317879D01*
X159288433Y-120417879D01*
X159679090Y-120808537D01*
X159720095Y-120869905D01*
X159963217Y-121032354D01*
X160177612Y-121075000D01*
X160177616Y-121075000D01*
X160250000Y-121089398D01*
X160322384Y-121075000D01*
X160942486Y-121075000D01*
X161152289Y-121161903D01*
X160863700Y-121281441D01*
X160462267Y-121682874D01*
X160245012Y-122207373D01*
X160245012Y-122775085D01*
X160462267Y-123299584D01*
X160863700Y-123701017D01*
X161388199Y-123918272D01*
X161827079Y-123918272D01*
X161120352Y-124625000D01*
X160691656Y-124625000D01*
X160426092Y-124515000D01*
X160093908Y-124515000D01*
X159918044Y-124587845D01*
X159918044Y-123247126D01*
X159936360Y-123155045D01*
X159918044Y-123062964D01*
X159918044Y-123062960D01*
X159863794Y-122790227D01*
X159657141Y-122480949D01*
X159579075Y-122428787D01*
X155005000Y-117854713D01*
X155005000Y-113880978D01*
X155068529Y-113838529D01*
X155334439Y-113440565D01*
X155382015Y-113472354D01*
X155596410Y-113515000D01*
X155596414Y-113515000D01*
X155668798Y-113529398D01*
X155741182Y-113515000D01*
X155978818Y-113515000D01*
X156051202Y-113529398D01*
X156123586Y-113515000D01*
X156123590Y-113515000D01*
X156337985Y-113472354D01*
X156581107Y-113309905D01*
X156622113Y-113248535D01*
X157297586Y-112573063D01*
X157325576Y-112574819D01*
X157790395Y-112110000D01*
X157776253Y-112095858D01*
X157827666Y-112044444D01*
X157872927Y-112058363D01*
X158085002Y-112038295D01*
X158085002Y-112202888D01*
G36*
X162105001Y-120702306D02*
X162105001Y-121125941D01*
X161955911Y-121064186D01*
X161783621Y-121064186D01*
X161822990Y-121047879D01*
X162057879Y-120812990D01*
X162103913Y-120701855D01*
X162105001Y-120702306D01*
X162105001Y-120702306D01*
G37*
X162105001Y-120702306D02*
X162105001Y-121125941D01*
X161955911Y-121064186D01*
X161783621Y-121064186D01*
X161822990Y-121047879D01*
X162057879Y-120812990D01*
X162103913Y-120701855D01*
X162105001Y-120702306D01*
G36*
X146102121Y-110841568D02*
X146202121Y-111082990D01*
X146437010Y-111317879D01*
X146743908Y-111445000D01*
X147076092Y-111445000D01*
X147382990Y-111317879D01*
X147617879Y-111082990D01*
X147745000Y-110776092D01*
X147745000Y-110634587D01*
X149203871Y-110634587D01*
X149411525Y-110842241D01*
X149755177Y-110984586D01*
X150127143Y-110984586D01*
X150445227Y-110852832D01*
X151918868Y-112326474D01*
X151918871Y-112326476D01*
X151937467Y-112345072D01*
X152037467Y-112586494D01*
X152328618Y-112877645D01*
X152695591Y-113029650D01*
X152765359Y-113380400D01*
X153071472Y-113838529D01*
X153135000Y-113880977D01*
X153135000Y-114155000D01*
X152933908Y-114155000D01*
X152627010Y-114282121D01*
X152392121Y-114517010D01*
X152272112Y-114806738D01*
X152207647Y-114903217D01*
X152165001Y-115117612D01*
X152165001Y-115117615D01*
X152150603Y-115189999D01*
X152165001Y-115262383D01*
X152165001Y-115645552D01*
X151285554Y-116525000D01*
X150607289Y-116525000D01*
X150608537Y-116523752D01*
X150669905Y-116482747D01*
X150832354Y-116239625D01*
X150854991Y-116125819D01*
X150975000Y-115836092D01*
X150975000Y-115503908D01*
X150847879Y-115197010D01*
X150825869Y-115175000D01*
X150857879Y-115142990D01*
X150985000Y-114836092D01*
X150985000Y-114503908D01*
X150885000Y-114262486D01*
X150885000Y-113092383D01*
X150899398Y-113019999D01*
X150885000Y-112947613D01*
X150885000Y-112947612D01*
X150842354Y-112733217D01*
X150679905Y-112490095D01*
X150618535Y-112449089D01*
X150567880Y-112398434D01*
X150467879Y-112157010D01*
X150232990Y-111922121D01*
X149926092Y-111795000D01*
X149740802Y-111795000D01*
X149719964Y-111718279D01*
X149386894Y-111287264D01*
X148914235Y-111016519D01*
X148811185Y-110997682D01*
X148597000Y-111120344D01*
X148597000Y-112463000D01*
X148617000Y-112463000D01*
X148617000Y-112717000D01*
X148597000Y-112717000D01*
X148597000Y-114059656D01*
X148811185Y-114182318D01*
X148914235Y-114163481D01*
X149386894Y-113892736D01*
X149415001Y-113856364D01*
X149415001Y-114262484D01*
X149315000Y-114503908D01*
X149315000Y-114836092D01*
X149442121Y-115142990D01*
X149464131Y-115165000D01*
X149432121Y-115197010D01*
X149305000Y-115503908D01*
X149305000Y-115748395D01*
X149118396Y-115935000D01*
X148852103Y-115935000D01*
X149005000Y-115565874D01*
X149005000Y-115154126D01*
X148864738Y-114815502D01*
X148850750Y-114745181D01*
X148644097Y-114435903D01*
X148566031Y-114383741D01*
X148278744Y-114096455D01*
X148343000Y-114059656D01*
X148343000Y-112717000D01*
X147238132Y-112717000D01*
X147094657Y-112912367D01*
X146426235Y-112243945D01*
X147077261Y-112243945D01*
X147238132Y-112463000D01*
X148343000Y-112463000D01*
X148343000Y-111120344D01*
X148128815Y-110997682D01*
X148025765Y-111016519D01*
X147553106Y-111287264D01*
X147220036Y-111718279D01*
X147077261Y-112243945D01*
X146426235Y-112243945D01*
X145897431Y-111715142D01*
X145797431Y-111473720D01*
X145506280Y-111182569D01*
X145125874Y-111025000D01*
X144714126Y-111025000D01*
X144645000Y-111053633D01*
X144645000Y-109384446D01*
X146102121Y-110841568D01*
X146102121Y-110841568D01*
G37*
X146102121Y-110841568D02*
X146202121Y-111082990D01*
X146437010Y-111317879D01*
X146743908Y-111445000D01*
X147076092Y-111445000D01*
X147382990Y-111317879D01*
X147617879Y-111082990D01*
X147745000Y-110776092D01*
X147745000Y-110634587D01*
X149203871Y-110634587D01*
X149411525Y-110842241D01*
X149755177Y-110984586D01*
X150127143Y-110984586D01*
X150445227Y-110852832D01*
X151918868Y-112326474D01*
X151918871Y-112326476D01*
X151937467Y-112345072D01*
X152037467Y-112586494D01*
X152328618Y-112877645D01*
X152695591Y-113029650D01*
X152765359Y-113380400D01*
X153071472Y-113838529D01*
X153135000Y-113880977D01*
X153135000Y-114155000D01*
X152933908Y-114155000D01*
X152627010Y-114282121D01*
X152392121Y-114517010D01*
X152272112Y-114806738D01*
X152207647Y-114903217D01*
X152165001Y-115117612D01*
X152165001Y-115117615D01*
X152150603Y-115189999D01*
X152165001Y-115262383D01*
X152165001Y-115645552D01*
X151285554Y-116525000D01*
X150607289Y-116525000D01*
X150608537Y-116523752D01*
X150669905Y-116482747D01*
X150832354Y-116239625D01*
X150854991Y-116125819D01*
X150975000Y-115836092D01*
X150975000Y-115503908D01*
X150847879Y-115197010D01*
X150825869Y-115175000D01*
X150857879Y-115142990D01*
X150985000Y-114836092D01*
X150985000Y-114503908D01*
X150885000Y-114262486D01*
X150885000Y-113092383D01*
X150899398Y-113019999D01*
X150885000Y-112947613D01*
X150885000Y-112947612D01*
X150842354Y-112733217D01*
X150679905Y-112490095D01*
X150618535Y-112449089D01*
X150567880Y-112398434D01*
X150467879Y-112157010D01*
X150232990Y-111922121D01*
X149926092Y-111795000D01*
X149740802Y-111795000D01*
X149719964Y-111718279D01*
X149386894Y-111287264D01*
X148914235Y-111016519D01*
X148811185Y-110997682D01*
X148597000Y-111120344D01*
X148597000Y-112463000D01*
X148617000Y-112463000D01*
X148617000Y-112717000D01*
X148597000Y-112717000D01*
X148597000Y-114059656D01*
X148811185Y-114182318D01*
X148914235Y-114163481D01*
X149386894Y-113892736D01*
X149415001Y-113856364D01*
X149415001Y-114262484D01*
X149315000Y-114503908D01*
X149315000Y-114836092D01*
X149442121Y-115142990D01*
X149464131Y-115165000D01*
X149432121Y-115197010D01*
X149305000Y-115503908D01*
X149305000Y-115748395D01*
X149118396Y-115935000D01*
X148852103Y-115935000D01*
X149005000Y-115565874D01*
X149005000Y-115154126D01*
X148864738Y-114815502D01*
X148850750Y-114745181D01*
X148644097Y-114435903D01*
X148566031Y-114383741D01*
X148278744Y-114096455D01*
X148343000Y-114059656D01*
X148343000Y-112717000D01*
X147238132Y-112717000D01*
X147094657Y-112912367D01*
X146426235Y-112243945D01*
X147077261Y-112243945D01*
X147238132Y-112463000D01*
X148343000Y-112463000D01*
X148343000Y-111120344D01*
X148128815Y-110997682D01*
X148025765Y-111016519D01*
X147553106Y-111287264D01*
X147220036Y-111718279D01*
X147077261Y-112243945D01*
X146426235Y-112243945D01*
X145897431Y-111715142D01*
X145797431Y-111473720D01*
X145506280Y-111182569D01*
X145125874Y-111025000D01*
X144714126Y-111025000D01*
X144645000Y-111053633D01*
X144645000Y-109384446D01*
X146102121Y-110841568D01*
G36*
X158085002Y-111167151D02*
X158067073Y-111161637D01*
X157905020Y-111176971D01*
X157905020Y-111055326D01*
X158085002Y-111038295D01*
X158085002Y-111167151D01*
X158085002Y-111167151D01*
G37*
X158085002Y-111167151D02*
X158067073Y-111161637D01*
X157905020Y-111176971D01*
X157905020Y-111055326D01*
X158085002Y-111038295D01*
X158085002Y-111167151D01*
G36*
X158085002Y-110017112D02*
X158085002Y-110167151D01*
X158067073Y-110161637D01*
X157905020Y-110176971D01*
X157905020Y-109967090D01*
X157955858Y-109916253D01*
X157970000Y-109930395D01*
X157984143Y-109916253D01*
X158085002Y-110017112D01*
X158085002Y-110017112D01*
G37*
X158085002Y-110017112D02*
X158085002Y-110167151D01*
X158067073Y-110161637D01*
X157905020Y-110176971D01*
X157905020Y-109967090D01*
X157955858Y-109916253D01*
X157970000Y-109930395D01*
X157984143Y-109916253D01*
X158085002Y-110017112D01*
G36*
X154197000Y-106463000D02*
X154217000Y-106463000D01*
X154217000Y-106717000D01*
X154197000Y-106717000D01*
X154197000Y-106737000D01*
X153943000Y-106737000D01*
X153943000Y-106717000D01*
X153923000Y-106717000D01*
X153923000Y-106463000D01*
X153943000Y-106463000D01*
X153943000Y-106443000D01*
X154197000Y-106443000D01*
X154197000Y-106463000D01*
X154197000Y-106463000D01*
G37*
X154197000Y-106463000D02*
X154217000Y-106463000D01*
X154217000Y-106717000D01*
X154197000Y-106717000D01*
X154197000Y-106737000D01*
X153943000Y-106737000D01*
X153943000Y-106717000D01*
X153923000Y-106717000D01*
X153923000Y-106463000D01*
X153943000Y-106463000D01*
X153943000Y-106443000D01*
X154197000Y-106443000D01*
X154197000Y-106463000D01*
G36*
X161777261Y-93263945D02*
X161938132Y-93483000D01*
X163043000Y-93483000D01*
X163043000Y-93463000D01*
X163297000Y-93463000D01*
X163297000Y-93483000D01*
X163317000Y-93483000D01*
X163317000Y-93737000D01*
X163297000Y-93737000D01*
X163297000Y-95079656D01*
X163425011Y-95152967D01*
X163425011Y-96047621D01*
X163410612Y-96120010D01*
X163467656Y-96406792D01*
X163588444Y-96587563D01*
X163630106Y-96649915D01*
X163691473Y-96690919D01*
X163902121Y-96901567D01*
X164002121Y-97142990D01*
X164237010Y-97377879D01*
X164543908Y-97505000D01*
X164876092Y-97505000D01*
X165064620Y-97426909D01*
X166642570Y-99004859D01*
X166742569Y-99246280D01*
X167033720Y-99537431D01*
X167414126Y-99695000D01*
X167825874Y-99695000D01*
X168057507Y-99599055D01*
X168590176Y-100698879D01*
X163575000Y-103127840D01*
X163575000Y-102042383D01*
X163589398Y-101969999D01*
X163576610Y-101905707D01*
X163805557Y-101905707D01*
X163880404Y-101920595D01*
X163955251Y-101905707D01*
X163955256Y-101905707D01*
X164176941Y-101861611D01*
X164298021Y-101780708D01*
X164486277Y-101780708D01*
X164866683Y-101623139D01*
X165157834Y-101331988D01*
X165315403Y-100951582D01*
X165315403Y-100539834D01*
X165157834Y-100159428D01*
X164866683Y-99868277D01*
X164555000Y-99739174D01*
X164555000Y-99223593D01*
X164474641Y-98819600D01*
X164168528Y-98361471D01*
X163710399Y-98055359D01*
X163170000Y-97947867D01*
X162629600Y-98055359D01*
X162505000Y-98138614D01*
X162505000Y-97833908D01*
X162377879Y-97527010D01*
X162142990Y-97292121D01*
X162039894Y-97249418D01*
X162138538Y-97150774D01*
X162199905Y-97109770D01*
X162362354Y-96866648D01*
X162405000Y-96652253D01*
X162405000Y-96652249D01*
X162419398Y-96579865D01*
X162405000Y-96507481D01*
X162405000Y-95817514D01*
X162505000Y-95576092D01*
X162505000Y-95243908D01*
X162403510Y-94998889D01*
X162725765Y-95183481D01*
X162828815Y-95202318D01*
X163043000Y-95079656D01*
X163043000Y-93737000D01*
X161938132Y-93737000D01*
X161777261Y-93956055D01*
X161920036Y-94481721D01*
X162065571Y-94670053D01*
X161836092Y-94575000D01*
X161503908Y-94575000D01*
X161197010Y-94702121D01*
X160962121Y-94937010D01*
X160864351Y-95173049D01*
X160857812Y-95140177D01*
X160857812Y-95140173D01*
X160806464Y-94882028D01*
X160757973Y-94809457D01*
X160660236Y-94663183D01*
X160660235Y-94663182D01*
X160610861Y-94589289D01*
X160536968Y-94539915D01*
X160467490Y-94470437D01*
X160542880Y-94288431D01*
X161726321Y-93104990D01*
X161820434Y-93104990D01*
X161777261Y-93263945D01*
X161777261Y-93263945D01*
G37*
X161777261Y-93263945D02*
X161938132Y-93483000D01*
X163043000Y-93483000D01*
X163043000Y-93463000D01*
X163297000Y-93463000D01*
X163297000Y-93483000D01*
X163317000Y-93483000D01*
X163317000Y-93737000D01*
X163297000Y-93737000D01*
X163297000Y-95079656D01*
X163425011Y-95152967D01*
X163425011Y-96047621D01*
X163410612Y-96120010D01*
X163467656Y-96406792D01*
X163588444Y-96587563D01*
X163630106Y-96649915D01*
X163691473Y-96690919D01*
X163902121Y-96901567D01*
X164002121Y-97142990D01*
X164237010Y-97377879D01*
X164543908Y-97505000D01*
X164876092Y-97505000D01*
X165064620Y-97426909D01*
X166642570Y-99004859D01*
X166742569Y-99246280D01*
X167033720Y-99537431D01*
X167414126Y-99695000D01*
X167825874Y-99695000D01*
X168057507Y-99599055D01*
X168590176Y-100698879D01*
X163575000Y-103127840D01*
X163575000Y-102042383D01*
X163589398Y-101969999D01*
X163576610Y-101905707D01*
X163805557Y-101905707D01*
X163880404Y-101920595D01*
X163955251Y-101905707D01*
X163955256Y-101905707D01*
X164176941Y-101861611D01*
X164298021Y-101780708D01*
X164486277Y-101780708D01*
X164866683Y-101623139D01*
X165157834Y-101331988D01*
X165315403Y-100951582D01*
X165315403Y-100539834D01*
X165157834Y-100159428D01*
X164866683Y-99868277D01*
X164555000Y-99739174D01*
X164555000Y-99223593D01*
X164474641Y-98819600D01*
X164168528Y-98361471D01*
X163710399Y-98055359D01*
X163170000Y-97947867D01*
X162629600Y-98055359D01*
X162505000Y-98138614D01*
X162505000Y-97833908D01*
X162377879Y-97527010D01*
X162142990Y-97292121D01*
X162039894Y-97249418D01*
X162138538Y-97150774D01*
X162199905Y-97109770D01*
X162362354Y-96866648D01*
X162405000Y-96652253D01*
X162405000Y-96652249D01*
X162419398Y-96579865D01*
X162405000Y-96507481D01*
X162405000Y-95817514D01*
X162505000Y-95576092D01*
X162505000Y-95243908D01*
X162403510Y-94998889D01*
X162725765Y-95183481D01*
X162828815Y-95202318D01*
X163043000Y-95079656D01*
X163043000Y-93737000D01*
X161938132Y-93737000D01*
X161777261Y-93956055D01*
X161920036Y-94481721D01*
X162065571Y-94670053D01*
X161836092Y-94575000D01*
X161503908Y-94575000D01*
X161197010Y-94702121D01*
X160962121Y-94937010D01*
X160864351Y-95173049D01*
X160857812Y-95140177D01*
X160857812Y-95140173D01*
X160806464Y-94882028D01*
X160757973Y-94809457D01*
X160660236Y-94663183D01*
X160660235Y-94663182D01*
X160610861Y-94589289D01*
X160536968Y-94539915D01*
X160467490Y-94470437D01*
X160542880Y-94288431D01*
X161726321Y-93104990D01*
X161820434Y-93104990D01*
X161777261Y-93263945D01*
G36*
X141474999Y-96953354D02*
X141474999Y-101114132D01*
X141323198Y-101265933D01*
X141176092Y-101205000D01*
X140843908Y-101205000D01*
X140537010Y-101332121D01*
X140509246Y-101359885D01*
X140143968Y-100994606D01*
X140286894Y-100912736D01*
X140619964Y-100481721D01*
X140762739Y-99956055D01*
X140601868Y-99737000D01*
X139497000Y-99737000D01*
X139497000Y-99757000D01*
X139243000Y-99757000D01*
X139243000Y-99737000D01*
X139223000Y-99737000D01*
X139223000Y-99483000D01*
X139243000Y-99483000D01*
X139243000Y-98140344D01*
X139497000Y-98140344D01*
X139497000Y-99483000D01*
X140601868Y-99483000D01*
X140762739Y-99263945D01*
X140619964Y-98738279D01*
X140286894Y-98307264D01*
X139814235Y-98036519D01*
X139711185Y-98017682D01*
X139497000Y-98140344D01*
X139243000Y-98140344D01*
X139028815Y-98017682D01*
X138925765Y-98036519D01*
X138732368Y-98147299D01*
X138795000Y-97996092D01*
X138795000Y-97663908D01*
X138668381Y-97358223D01*
X139119860Y-96906745D01*
X141362475Y-96906745D01*
X141474999Y-96953354D01*
X141474999Y-96953354D01*
G37*
X141474999Y-96953354D02*
X141474999Y-101114132D01*
X141323198Y-101265933D01*
X141176092Y-101205000D01*
X140843908Y-101205000D01*
X140537010Y-101332121D01*
X140509246Y-101359885D01*
X140143968Y-100994606D01*
X140286894Y-100912736D01*
X140619964Y-100481721D01*
X140762739Y-99956055D01*
X140601868Y-99737000D01*
X139497000Y-99737000D01*
X139497000Y-99757000D01*
X139243000Y-99757000D01*
X139243000Y-99737000D01*
X139223000Y-99737000D01*
X139223000Y-99483000D01*
X139243000Y-99483000D01*
X139243000Y-98140344D01*
X139497000Y-98140344D01*
X139497000Y-99483000D01*
X140601868Y-99483000D01*
X140762739Y-99263945D01*
X140619964Y-98738279D01*
X140286894Y-98307264D01*
X139814235Y-98036519D01*
X139711185Y-98017682D01*
X139497000Y-98140344D01*
X139243000Y-98140344D01*
X139028815Y-98017682D01*
X138925765Y-98036519D01*
X138732368Y-98147299D01*
X138795000Y-97996092D01*
X138795000Y-97663908D01*
X138668381Y-97358223D01*
X139119860Y-96906745D01*
X141362475Y-96906745D01*
X141474999Y-96953354D01*
G36*
X158773908Y-88315000D02*
X158863018Y-88315000D01*
X159491708Y-88943691D01*
X159325874Y-88875000D01*
X159159802Y-88875000D01*
X158476690Y-88191889D01*
X158773908Y-88315000D01*
X158773908Y-88315000D01*
G37*
X158773908Y-88315000D02*
X158863018Y-88315000D01*
X159491708Y-88943691D01*
X159325874Y-88875000D01*
X159159802Y-88875000D01*
X158476690Y-88191889D01*
X158773908Y-88315000D01*
G36*
X158318246Y-86920885D02*
X158232121Y-87007010D01*
X158105000Y-87313908D01*
X158105000Y-87646092D01*
X158228111Y-87943310D01*
X156410331Y-86125530D01*
X156367929Y-86062071D01*
X156116537Y-85894096D01*
X155894852Y-85850000D01*
X155894847Y-85850000D01*
X155820000Y-85835112D01*
X155745153Y-85850000D01*
X155677909Y-85850000D01*
X155518529Y-85611471D01*
X155060400Y-85305359D01*
X155030000Y-85299312D01*
X155030000Y-84619050D01*
X158318246Y-86920885D01*
X158318246Y-86920885D01*
G37*
X158318246Y-86920885D02*
X158232121Y-87007010D01*
X158105000Y-87313908D01*
X158105000Y-87646092D01*
X158228111Y-87943310D01*
X156410331Y-86125530D01*
X156367929Y-86062071D01*
X156116537Y-85894096D01*
X155894852Y-85850000D01*
X155894847Y-85850000D01*
X155820000Y-85835112D01*
X155745153Y-85850000D01*
X155677909Y-85850000D01*
X155518529Y-85611471D01*
X155060400Y-85305359D01*
X155030000Y-85299312D01*
X155030000Y-84619050D01*
X158318246Y-86920885D01*
G36*
X148397000Y-86483000D02*
X148417000Y-86483000D01*
X148417000Y-86737000D01*
X148397000Y-86737000D01*
X148397000Y-86757000D01*
X148143000Y-86757000D01*
X148143000Y-86737000D01*
X148123000Y-86737000D01*
X148123000Y-86483000D01*
X148143000Y-86483000D01*
X148143000Y-86463000D01*
X148397000Y-86463000D01*
X148397000Y-86483000D01*
X148397000Y-86483000D01*
G37*
X148397000Y-86483000D02*
X148417000Y-86483000D01*
X148417000Y-86737000D01*
X148397000Y-86737000D01*
X148397000Y-86757000D01*
X148143000Y-86757000D01*
X148143000Y-86737000D01*
X148123000Y-86737000D01*
X148123000Y-86483000D01*
X148143000Y-86483000D01*
X148143000Y-86463000D01*
X148397000Y-86463000D01*
X148397000Y-86483000D01*
G36*
X152294990Y-84374437D02*
X152294991Y-86476393D01*
X151993627Y-86175029D01*
X151977879Y-86137010D01*
X151742990Y-85902121D01*
X151436092Y-85775000D01*
X151103908Y-85775000D01*
X150797010Y-85902121D01*
X150672311Y-86026821D01*
X150563001Y-85917511D01*
X150256103Y-85790390D01*
X149923919Y-85790390D01*
X149685120Y-85889303D01*
X149572736Y-85693106D01*
X149141721Y-85360036D01*
X148958964Y-85310398D01*
X149094362Y-85175000D01*
X149847612Y-85175000D01*
X149920000Y-85189399D01*
X149992388Y-85175000D01*
X150206783Y-85132354D01*
X150449905Y-84969905D01*
X150571458Y-84787988D01*
X151640000Y-83719447D01*
X152294990Y-84374437D01*
X152294990Y-84374437D01*
G37*
X152294990Y-84374437D02*
X152294991Y-86476393D01*
X151993627Y-86175029D01*
X151977879Y-86137010D01*
X151742990Y-85902121D01*
X151436092Y-85775000D01*
X151103908Y-85775000D01*
X150797010Y-85902121D01*
X150672311Y-86026821D01*
X150563001Y-85917511D01*
X150256103Y-85790390D01*
X149923919Y-85790390D01*
X149685120Y-85889303D01*
X149572736Y-85693106D01*
X149141721Y-85360036D01*
X148958964Y-85310398D01*
X149094362Y-85175000D01*
X149847612Y-85175000D01*
X149920000Y-85189399D01*
X149992388Y-85175000D01*
X150206783Y-85132354D01*
X150449905Y-84969905D01*
X150571458Y-84787988D01*
X151640000Y-83719447D01*
X152294990Y-84374437D01*
G04 #@! TD*
M02*
