G04 #@! TF.GenerationSoftware,KiCad,Pcbnew,(5.0.1-3-g963ef8bb5)*
G04 #@! TF.CreationDate,2019-10-10T01:43:39+09:00*
G04 #@! TF.ProjectId,mouse_v2,6D6F7573655F76322E6B696361645F70,rev?*
G04 #@! TF.SameCoordinates,Original*
G04 #@! TF.FileFunction,Legend,Top*
G04 #@! TF.FilePolarity,Positive*
%FSLAX46Y46*%
G04 Gerber Fmt 4.6, Leading zero omitted, Abs format (unit mm)*
G04 Created by KiCad (PCBNEW (5.0.1-3-g963ef8bb5)) date 2019年10月10日 木曜日 01:43:39*
%MOMM*%
%LPD*%
G01*
G04 APERTURE LIST*
%ADD10C,0.200000*%
%ADD11C,0.100000*%
%ADD12C,0.150000*%
%ADD13C,0.120000*%
G04 APERTURE END LIST*
D10*
X150270000Y-114140000D02*
X142470000Y-114140000D01*
X150270000Y-120140000D02*
X150270000Y-114140000D01*
X142470000Y-120140000D02*
X150270000Y-120140000D01*
X152270000Y-114140000D02*
X160070000Y-114140000D01*
X152270000Y-120140000D02*
X152270000Y-114140000D01*
X160070000Y-120140000D02*
X152270000Y-120140000D01*
X163270000Y-125090000D02*
X163270000Y-106090000D01*
X160070000Y-125090000D02*
X163270000Y-125090000D01*
X160070000Y-106090000D02*
X160070000Y-125090000D01*
X163270000Y-106090000D02*
X160070000Y-106090000D01*
X142470000Y-106090000D02*
X139270000Y-106090000D01*
X142470000Y-125090000D02*
X142470000Y-106090000D01*
X139270000Y-125090000D02*
X142470000Y-125090000D01*
X139270000Y-106090000D02*
X139270000Y-125090000D01*
D11*
G04 #@! TO.C,D8*
X134090000Y-120525000D02*
G75*
G03X134090000Y-120525000I-50000J0D01*
G01*
D12*
G04 #@! TO.C,U7*
X158470000Y-112610000D02*
X158970000Y-112110000D01*
X156970000Y-112610000D02*
X158970000Y-112610000D01*
X158970000Y-112610000D02*
X158970000Y-109610000D01*
X158970000Y-109610000D02*
X156970000Y-109610000D01*
X156970000Y-109610000D02*
X156970000Y-112610000D01*
G04 #@! TO.C,*
X147990000Y-127040000D02*
X147990000Y-129940000D01*
X147990000Y-129940000D02*
X154690000Y-129940000D01*
X154690000Y-129940000D02*
X154690000Y-127040000D01*
X154690000Y-127040000D02*
X147990000Y-127040000D01*
D13*
X156039435Y-101174124D02*
X156375311Y-101510000D01*
X156375311Y-101510000D02*
X156039435Y-101845876D01*
X146500565Y-101845876D02*
X146164689Y-101510000D01*
X146164689Y-101510000D02*
X146500565Y-101174124D01*
X150934124Y-106279435D02*
X151270000Y-106615311D01*
X151270000Y-106615311D02*
X151605876Y-106279435D01*
X151605876Y-96740565D02*
X151270000Y-96404689D01*
G04 #@! TO.C,D1*
X143810273Y-95942376D02*
X143810273Y-95942376D01*
X143718350Y-95850452D02*
X143810273Y-95942376D01*
X143718350Y-95850452D02*
X143718350Y-95850452D01*
X143810273Y-95942376D02*
X143718350Y-95850452D01*
X145606325Y-94146325D02*
X145606325Y-94146325D01*
X145514401Y-94054401D02*
X145606325Y-94146325D01*
X145514401Y-94054401D02*
X145514401Y-94054401D01*
X145606325Y-94146325D02*
X145514401Y-94054401D01*
X143513289Y-96055513D02*
X143230446Y-96338356D01*
X142721329Y-95263553D02*
X143513289Y-96055513D01*
X142438486Y-95546396D02*
X142721329Y-95263553D01*
X143230446Y-96338356D02*
X142438486Y-95546396D01*
X145719462Y-93849340D02*
X143513289Y-96055513D01*
X143513289Y-96055513D02*
X140783856Y-93326081D01*
X145719462Y-93849340D02*
X142990030Y-91119908D01*
X140783856Y-93326080D02*
G75*
G02X142990030Y-91119908I1103087J1103086D01*
G01*
G04 #@! TO.C,D2*
X143683856Y-89126080D02*
G75*
G02X145890030Y-86919908I1103087J1103086D01*
G01*
X148619462Y-89649340D02*
X145890030Y-86919908D01*
X146413289Y-91855513D02*
X143683856Y-89126081D01*
X148619462Y-89649340D02*
X146413289Y-91855513D01*
X146130446Y-92138356D02*
X145338486Y-91346396D01*
X145338486Y-91346396D02*
X145621329Y-91063553D01*
X145621329Y-91063553D02*
X146413289Y-91855513D01*
X146413289Y-91855513D02*
X146130446Y-92138356D01*
X148506325Y-89946325D02*
X148414401Y-89854401D01*
X148414401Y-89854401D02*
X148414401Y-89854401D01*
X148414401Y-89854401D02*
X148506325Y-89946325D01*
X148506325Y-89946325D02*
X148506325Y-89946325D01*
X146710273Y-91742376D02*
X146618350Y-91650452D01*
X146618350Y-91650452D02*
X146618350Y-91650452D01*
X146618350Y-91650452D02*
X146710273Y-91742376D01*
X146710273Y-91742376D02*
X146710273Y-91742376D01*
D11*
G04 #@! TO.C,D3*
X164320000Y-129495000D02*
G75*
G03X164320000Y-129495000I-50000J0D01*
G01*
D13*
G04 #@! TO.C,D4*
X159553920Y-91023856D02*
G75*
G02X161760092Y-93230030I1103086J-1103087D01*
G01*
X159030660Y-95959462D02*
X161760092Y-93230030D01*
X156824487Y-93753289D02*
X159553919Y-91023856D01*
X159030660Y-95959462D02*
X156824487Y-93753289D01*
X156541644Y-93470446D02*
X157333604Y-92678486D01*
X157333604Y-92678486D02*
X157616447Y-92961329D01*
X157616447Y-92961329D02*
X156824487Y-93753289D01*
X156824487Y-93753289D02*
X156541644Y-93470446D01*
X158733675Y-95846325D02*
X158825599Y-95754401D01*
X158825599Y-95754401D02*
X158825599Y-95754401D01*
X158825599Y-95754401D02*
X158733675Y-95846325D01*
X158733675Y-95846325D02*
X158733675Y-95846325D01*
X156937624Y-94050273D02*
X157029548Y-93958350D01*
X157029548Y-93958350D02*
X157029548Y-93958350D01*
X157029548Y-93958350D02*
X156937624Y-94050273D01*
X156937624Y-94050273D02*
X156937624Y-94050273D01*
G04 #@! TO.C,D5*
X153937624Y-89950273D02*
X153937624Y-89950273D01*
X154029548Y-89858350D02*
X153937624Y-89950273D01*
X154029548Y-89858350D02*
X154029548Y-89858350D01*
X153937624Y-89950273D02*
X154029548Y-89858350D01*
X155733675Y-91746325D02*
X155733675Y-91746325D01*
X155825599Y-91654401D02*
X155733675Y-91746325D01*
X155825599Y-91654401D02*
X155825599Y-91654401D01*
X155733675Y-91746325D02*
X155825599Y-91654401D01*
X153824487Y-89653289D02*
X153541644Y-89370446D01*
X154616447Y-88861329D02*
X153824487Y-89653289D01*
X154333604Y-88578486D02*
X154616447Y-88861329D01*
X153541644Y-89370446D02*
X154333604Y-88578486D01*
X156030660Y-91859462D02*
X153824487Y-89653289D01*
X153824487Y-89653289D02*
X156553919Y-86923856D01*
X156030660Y-91859462D02*
X158760092Y-89130030D01*
X156553920Y-86923856D02*
G75*
G02X158760092Y-89130030I1103086J-1103087D01*
G01*
D11*
G04 #@! TO.C,D6*
X136850000Y-119115000D02*
G75*
G03X136850000Y-119115000I-50000J0D01*
G01*
G04 #@! TO.C,D7*
X135430000Y-119815000D02*
G75*
G03X135430000Y-119815000I-50000J0D01*
G01*
D13*
G04 #@! TO.C,*
X141855000Y-128045000D02*
X145385000Y-128045000D01*
X141855000Y-131975000D02*
X145385000Y-131975000D01*
X140530000Y-128110000D02*
X141855000Y-128110000D01*
X141855000Y-128045000D02*
X141855000Y-128110000D01*
X145385000Y-128045000D02*
X145385000Y-128110000D01*
X141855000Y-131910000D02*
X141855000Y-131975000D01*
X145385000Y-131910000D02*
X145385000Y-131975000D01*
X148240000Y-124968000D02*
X150360000Y-124968000D01*
X148240000Y-122908000D02*
X148240000Y-124968000D01*
X150360000Y-122908000D02*
X150360000Y-124968000D01*
X148240000Y-122908000D02*
X150360000Y-122908000D01*
X148240000Y-121908000D02*
X148240000Y-120848000D01*
X148240000Y-120848000D02*
X149300000Y-120848000D01*
X154170000Y-124936000D02*
X153110000Y-124936000D01*
X154170000Y-123876000D02*
X154170000Y-124936000D01*
X154170000Y-122876000D02*
X152050000Y-122876000D01*
X152050000Y-122876000D02*
X152050000Y-120816000D01*
X154170000Y-122876000D02*
X154170000Y-120816000D01*
X154170000Y-120816000D02*
X152050000Y-120816000D01*
X161905000Y-131720000D02*
X161905000Y-131150000D01*
X161905000Y-129630000D02*
X161905000Y-129060000D01*
X161905000Y-131720000D02*
X163235000Y-131720000D01*
X163235000Y-131720000D02*
X163235000Y-130697530D01*
X163235000Y-130082470D02*
X163235000Y-129060000D01*
X161905000Y-129060000D02*
X163235000Y-129060000D01*
X160510000Y-129060000D02*
X161270000Y-129060000D01*
X160510000Y-130390000D02*
X160510000Y-129060000D01*
X157505000Y-136075000D02*
X161035000Y-136075000D01*
X157505000Y-142545000D02*
X161035000Y-142545000D01*
X156180000Y-136140000D02*
X157505000Y-136140000D01*
X157505000Y-136075000D02*
X157505000Y-136140000D01*
X161035000Y-136075000D02*
X161035000Y-136140000D01*
X157505000Y-142480000D02*
X157505000Y-142545000D01*
X161035000Y-142480000D02*
X161035000Y-142545000D01*
G04 #@! TO.C,L3*
X160360000Y-127040279D02*
X160360000Y-126714721D01*
X161380000Y-127040279D02*
X161380000Y-126714721D01*
G04 #@! TO.C,L4*
X141260000Y-126459721D02*
X141260000Y-126785279D01*
X142280000Y-126459721D02*
X142280000Y-126785279D01*
G04 #@! TO.C,L5*
X152030000Y-112001422D02*
X152030000Y-112518578D01*
X150610000Y-112001422D02*
X150610000Y-112518578D01*
D12*
G04 #@! TO.C,LS1*
X142870000Y-113610000D02*
X146870000Y-113610000D01*
X146870000Y-113610000D02*
X146870000Y-109610000D01*
X146870000Y-109610000D02*
X142870000Y-109610000D01*
X142870000Y-109610000D02*
X142870000Y-113610000D01*
D13*
G04 #@! TO.C,Q1*
X135410000Y-98430000D02*
X136870000Y-98430000D01*
X135410000Y-101590000D02*
X137570000Y-101590000D01*
X135410000Y-101590000D02*
X135410000Y-100660000D01*
X135410000Y-98430000D02*
X135410000Y-99360000D01*
G04 #@! TO.C,Q2*
X159850000Y-129580000D02*
X158920000Y-129580000D01*
X156690000Y-129580000D02*
X157620000Y-129580000D01*
X156690000Y-129580000D02*
X156690000Y-131740000D01*
X159850000Y-129580000D02*
X159850000Y-131040000D01*
G04 #@! TO.C,Q3*
X167630000Y-101640000D02*
X167630000Y-100710000D01*
X167630000Y-98480000D02*
X167630000Y-99410000D01*
X167630000Y-98480000D02*
X165470000Y-98480000D01*
X167630000Y-101640000D02*
X166170000Y-101640000D01*
G04 #@! TO.C,Q4*
X152800000Y-82750000D02*
X152800000Y-84210000D01*
X149640000Y-82750000D02*
X149640000Y-84910000D01*
X149640000Y-82750000D02*
X150570000Y-82750000D01*
X152800000Y-82750000D02*
X151870000Y-82750000D01*
D12*
G04 #@! TO.C,*
X135860000Y-110365000D02*
X135860000Y-110865000D01*
X132610000Y-113615000D02*
X132610000Y-113115000D01*
X135860000Y-113615000D02*
X135860000Y-113115000D01*
X132610000Y-110365000D02*
X133110000Y-110365000D01*
X132610000Y-113615000D02*
X133110000Y-113615000D01*
X135860000Y-113615000D02*
X135360000Y-113615000D01*
X135860000Y-110365000D02*
X135360000Y-110365000D01*
X166215000Y-114005000D02*
X166715000Y-114005000D01*
X166215000Y-110755000D02*
X166715000Y-110755000D01*
X169465000Y-110755000D02*
X168965000Y-110755000D01*
X169465000Y-114005000D02*
X168965000Y-114005000D01*
X166215000Y-110755000D02*
X166215000Y-111255000D01*
X169465000Y-110755000D02*
X169465000Y-111255000D01*
X166215000Y-114005000D02*
X166215000Y-113505000D01*
D13*
X150010000Y-95620000D02*
X149760000Y-95620000D01*
X149760000Y-95620000D02*
X149760000Y-95370000D01*
X152730000Y-92400000D02*
X152980000Y-92400000D01*
X152980000Y-92400000D02*
X152980000Y-92650000D01*
X150010000Y-92400000D02*
X149760000Y-92400000D01*
X149760000Y-92400000D02*
X149760000Y-92650000D01*
X152730000Y-95620000D02*
X152980000Y-95620000D01*
G04 #@! TO.C,U10*
X141025000Y-103410000D02*
X141025000Y-101410000D01*
X144265000Y-102410000D02*
X144265000Y-99410000D01*
G04 #@! TO.C,U11*
X158820000Y-125230000D02*
X156370000Y-125230000D01*
X157020000Y-128450000D02*
X158820000Y-128450000D01*
G04 #@! TO.C,U12*
X145570000Y-124700000D02*
X143770000Y-124700000D01*
X143770000Y-127920000D02*
X146220000Y-127920000D01*
D12*
G04 #@! TO.C,L1*
X147260000Y-124060000D02*
X147260000Y-120760000D01*
X147260000Y-120760000D02*
X146660000Y-120760000D01*
X146660000Y-120760000D02*
X146310000Y-120410000D01*
X146310000Y-120410000D02*
X144160000Y-120410000D01*
X144160000Y-120410000D02*
X143860000Y-120760000D01*
X143860000Y-120760000D02*
X143260000Y-120760000D01*
X143260000Y-120760000D02*
X143260000Y-124060000D01*
X143260000Y-124060000D02*
X143860000Y-124060000D01*
X143860000Y-124060000D02*
X144210000Y-124410000D01*
X144210000Y-124410000D02*
X146310000Y-124410000D01*
X146310000Y-124410000D02*
X146660000Y-124060000D01*
X146660000Y-124060000D02*
X147260000Y-124060000D01*
G04 #@! TO.C,L2*
X155720000Y-120710000D02*
X155120000Y-120710000D01*
X156070000Y-120360000D02*
X155720000Y-120710000D01*
X158170000Y-120360000D02*
X156070000Y-120360000D01*
X158520000Y-120710000D02*
X158170000Y-120360000D01*
X159120000Y-120710000D02*
X158520000Y-120710000D01*
X159120000Y-124010000D02*
X159120000Y-120710000D01*
X158520000Y-124010000D02*
X159120000Y-124010000D01*
X158220000Y-124360000D02*
X158520000Y-124010000D01*
X156070000Y-124360000D02*
X158220000Y-124360000D01*
X155720000Y-124010000D02*
X156070000Y-124360000D01*
X155120000Y-124010000D02*
X155720000Y-124010000D01*
X155120000Y-120710000D02*
X155120000Y-124010000D01*
G04 #@! TO.C,U9*
X157945000Y-104335000D02*
X158045000Y-104335000D01*
X157945000Y-99685000D02*
X158145000Y-99685000D01*
X161195000Y-99685000D02*
X160995000Y-99685000D01*
X161195000Y-104335000D02*
X160995000Y-104335000D01*
X157945000Y-104335000D02*
X157945000Y-99685000D01*
X161195000Y-104335000D02*
X161195000Y-99685000D01*
X158045000Y-104335000D02*
X158045000Y-105685000D01*
G04 #@! TO.C,R14*
X137427142Y-101692380D02*
X137093809Y-101216190D01*
X136855714Y-101692380D02*
X136855714Y-100692380D01*
X137236666Y-100692380D01*
X137331904Y-100740000D01*
X137379523Y-100787619D01*
X137427142Y-100882857D01*
X137427142Y-101025714D01*
X137379523Y-101120952D01*
X137331904Y-101168571D01*
X137236666Y-101216190D01*
X136855714Y-101216190D01*
X138379523Y-101692380D02*
X137808095Y-101692380D01*
X138093809Y-101692380D02*
X138093809Y-100692380D01*
X137998571Y-100835238D01*
X137903333Y-100930476D01*
X137808095Y-100978095D01*
X139236666Y-101025714D02*
X139236666Y-101692380D01*
X138998571Y-100644761D02*
X138760476Y-101359047D01*
X139379523Y-101359047D01*
G04 #@! TO.C,D8*
X135082380Y-120108095D02*
X134082380Y-120108095D01*
X134082380Y-119870000D01*
X134130000Y-119727142D01*
X134225238Y-119631904D01*
X134320476Y-119584285D01*
X134510952Y-119536666D01*
X134653809Y-119536666D01*
X134844285Y-119584285D01*
X134939523Y-119631904D01*
X135034761Y-119727142D01*
X135082380Y-119870000D01*
X135082380Y-120108095D01*
X134510952Y-118965238D02*
X134463333Y-119060476D01*
X134415714Y-119108095D01*
X134320476Y-119155714D01*
X134272857Y-119155714D01*
X134177619Y-119108095D01*
X134130000Y-119060476D01*
X134082380Y-118965238D01*
X134082380Y-118774761D01*
X134130000Y-118679523D01*
X134177619Y-118631904D01*
X134272857Y-118584285D01*
X134320476Y-118584285D01*
X134415714Y-118631904D01*
X134463333Y-118679523D01*
X134510952Y-118774761D01*
X134510952Y-118965238D01*
X134558571Y-119060476D01*
X134606190Y-119108095D01*
X134701428Y-119155714D01*
X134891904Y-119155714D01*
X134987142Y-119108095D01*
X135034761Y-119060476D01*
X135082380Y-118965238D01*
X135082380Y-118774761D01*
X135034761Y-118679523D01*
X134987142Y-118631904D01*
X134891904Y-118584285D01*
X134701428Y-118584285D01*
X134606190Y-118631904D01*
X134558571Y-118679523D01*
X134510952Y-118774761D01*
G04 #@! TO.C,U7*
X160322380Y-111871904D02*
X161131904Y-111871904D01*
X161227142Y-111824285D01*
X161274761Y-111776666D01*
X161322380Y-111681428D01*
X161322380Y-111490952D01*
X161274761Y-111395714D01*
X161227142Y-111348095D01*
X161131904Y-111300476D01*
X160322380Y-111300476D01*
X160322380Y-110919523D02*
X160322380Y-110252857D01*
X161322380Y-110681428D01*
G04 #@! TO.C,*
G04 #@! TO.C,C1*
X152293333Y-107707142D02*
X152245714Y-107754761D01*
X152102857Y-107802380D01*
X152007619Y-107802380D01*
X151864761Y-107754761D01*
X151769523Y-107659523D01*
X151721904Y-107564285D01*
X151674285Y-107373809D01*
X151674285Y-107230952D01*
X151721904Y-107040476D01*
X151769523Y-106945238D01*
X151864761Y-106850000D01*
X152007619Y-106802380D01*
X152102857Y-106802380D01*
X152245714Y-106850000D01*
X152293333Y-106897619D01*
X153245714Y-107802380D02*
X152674285Y-107802380D01*
X152960000Y-107802380D02*
X152960000Y-106802380D01*
X152864761Y-106945238D01*
X152769523Y-107040476D01*
X152674285Y-107088095D01*
G04 #@! TO.C,C2*
X140417142Y-119311666D02*
X140464761Y-119359285D01*
X140512380Y-119502142D01*
X140512380Y-119597380D01*
X140464761Y-119740238D01*
X140369523Y-119835476D01*
X140274285Y-119883095D01*
X140083809Y-119930714D01*
X139940952Y-119930714D01*
X139750476Y-119883095D01*
X139655238Y-119835476D01*
X139560000Y-119740238D01*
X139512380Y-119597380D01*
X139512380Y-119502142D01*
X139560000Y-119359285D01*
X139607619Y-119311666D01*
X139607619Y-118930714D02*
X139560000Y-118883095D01*
X139512380Y-118787857D01*
X139512380Y-118549761D01*
X139560000Y-118454523D01*
X139607619Y-118406904D01*
X139702857Y-118359285D01*
X139798095Y-118359285D01*
X139940952Y-118406904D01*
X140512380Y-118978333D01*
X140512380Y-118359285D01*
G04 #@! TO.C,C3*
X171188333Y-129287142D02*
X171140714Y-129334761D01*
X170997857Y-129382380D01*
X170902619Y-129382380D01*
X170759761Y-129334761D01*
X170664523Y-129239523D01*
X170616904Y-129144285D01*
X170569285Y-128953809D01*
X170569285Y-128810952D01*
X170616904Y-128620476D01*
X170664523Y-128525238D01*
X170759761Y-128430000D01*
X170902619Y-128382380D01*
X170997857Y-128382380D01*
X171140714Y-128430000D01*
X171188333Y-128477619D01*
X171521666Y-128382380D02*
X172140714Y-128382380D01*
X171807380Y-128763333D01*
X171950238Y-128763333D01*
X172045476Y-128810952D01*
X172093095Y-128858571D01*
X172140714Y-128953809D01*
X172140714Y-129191904D01*
X172093095Y-129287142D01*
X172045476Y-129334761D01*
X171950238Y-129382380D01*
X171664523Y-129382380D01*
X171569285Y-129334761D01*
X171521666Y-129287142D01*
G04 #@! TO.C,C5*
X150847142Y-135291666D02*
X150894761Y-135339285D01*
X150942380Y-135482142D01*
X150942380Y-135577380D01*
X150894761Y-135720238D01*
X150799523Y-135815476D01*
X150704285Y-135863095D01*
X150513809Y-135910714D01*
X150370952Y-135910714D01*
X150180476Y-135863095D01*
X150085238Y-135815476D01*
X149990000Y-135720238D01*
X149942380Y-135577380D01*
X149942380Y-135482142D01*
X149990000Y-135339285D01*
X150037619Y-135291666D01*
X149942380Y-134386904D02*
X149942380Y-134863095D01*
X150418571Y-134910714D01*
X150370952Y-134863095D01*
X150323333Y-134767857D01*
X150323333Y-134529761D01*
X150370952Y-134434523D01*
X150418571Y-134386904D01*
X150513809Y-134339285D01*
X150751904Y-134339285D01*
X150847142Y-134386904D01*
X150894761Y-134434523D01*
X150942380Y-134529761D01*
X150942380Y-134767857D01*
X150894761Y-134863095D01*
X150847142Y-134910714D01*
G04 #@! TO.C,C7*
X132823333Y-129347142D02*
X132775714Y-129394761D01*
X132632857Y-129442380D01*
X132537619Y-129442380D01*
X132394761Y-129394761D01*
X132299523Y-129299523D01*
X132251904Y-129204285D01*
X132204285Y-129013809D01*
X132204285Y-128870952D01*
X132251904Y-128680476D01*
X132299523Y-128585238D01*
X132394761Y-128490000D01*
X132537619Y-128442380D01*
X132632857Y-128442380D01*
X132775714Y-128490000D01*
X132823333Y-128537619D01*
X133156666Y-128442380D02*
X133823333Y-128442380D01*
X133394761Y-129442380D01*
G04 #@! TO.C,C11*
X155627142Y-115417142D02*
X155579523Y-115464761D01*
X155436666Y-115512380D01*
X155341428Y-115512380D01*
X155198571Y-115464761D01*
X155103333Y-115369523D01*
X155055714Y-115274285D01*
X155008095Y-115083809D01*
X155008095Y-114940952D01*
X155055714Y-114750476D01*
X155103333Y-114655238D01*
X155198571Y-114560000D01*
X155341428Y-114512380D01*
X155436666Y-114512380D01*
X155579523Y-114560000D01*
X155627142Y-114607619D01*
X156579523Y-115512380D02*
X156008095Y-115512380D01*
X156293809Y-115512380D02*
X156293809Y-114512380D01*
X156198571Y-114655238D01*
X156103333Y-114750476D01*
X156008095Y-114798095D01*
X157531904Y-115512380D02*
X156960476Y-115512380D01*
X157246190Y-115512380D02*
X157246190Y-114512380D01*
X157150952Y-114655238D01*
X157055714Y-114750476D01*
X156960476Y-114798095D01*
G04 #@! TO.C,C12*
X149087142Y-97402857D02*
X149134761Y-97450476D01*
X149182380Y-97593333D01*
X149182380Y-97688571D01*
X149134761Y-97831428D01*
X149039523Y-97926666D01*
X148944285Y-97974285D01*
X148753809Y-98021904D01*
X148610952Y-98021904D01*
X148420476Y-97974285D01*
X148325238Y-97926666D01*
X148230000Y-97831428D01*
X148182380Y-97688571D01*
X148182380Y-97593333D01*
X148230000Y-97450476D01*
X148277619Y-97402857D01*
X149182380Y-96450476D02*
X149182380Y-97021904D01*
X149182380Y-96736190D02*
X148182380Y-96736190D01*
X148325238Y-96831428D01*
X148420476Y-96926666D01*
X148468095Y-97021904D01*
X148277619Y-96069523D02*
X148230000Y-96021904D01*
X148182380Y-95926666D01*
X148182380Y-95688571D01*
X148230000Y-95593333D01*
X148277619Y-95545714D01*
X148372857Y-95498095D01*
X148468095Y-95498095D01*
X148610952Y-95545714D01*
X149182380Y-96117142D01*
X149182380Y-95498095D01*
G04 #@! TO.C,C13*
X153257142Y-89542857D02*
X153304761Y-89590476D01*
X153352380Y-89733333D01*
X153352380Y-89828571D01*
X153304761Y-89971428D01*
X153209523Y-90066666D01*
X153114285Y-90114285D01*
X152923809Y-90161904D01*
X152780952Y-90161904D01*
X152590476Y-90114285D01*
X152495238Y-90066666D01*
X152400000Y-89971428D01*
X152352380Y-89828571D01*
X152352380Y-89733333D01*
X152400000Y-89590476D01*
X152447619Y-89542857D01*
X153352380Y-88590476D02*
X153352380Y-89161904D01*
X153352380Y-88876190D02*
X152352380Y-88876190D01*
X152495238Y-88971428D01*
X152590476Y-89066666D01*
X152638095Y-89161904D01*
X152352380Y-88257142D02*
X152352380Y-87638095D01*
X152733333Y-87971428D01*
X152733333Y-87828571D01*
X152780952Y-87733333D01*
X152828571Y-87685714D01*
X152923809Y-87638095D01*
X153161904Y-87638095D01*
X153257142Y-87685714D01*
X153304761Y-87733333D01*
X153352380Y-87828571D01*
X153352380Y-88114285D01*
X153304761Y-88209523D01*
X153257142Y-88257142D01*
G04 #@! TO.C,C14*
X148417142Y-88817142D02*
X148369523Y-88864761D01*
X148226666Y-88912380D01*
X148131428Y-88912380D01*
X147988571Y-88864761D01*
X147893333Y-88769523D01*
X147845714Y-88674285D01*
X147798095Y-88483809D01*
X147798095Y-88340952D01*
X147845714Y-88150476D01*
X147893333Y-88055238D01*
X147988571Y-87960000D01*
X148131428Y-87912380D01*
X148226666Y-87912380D01*
X148369523Y-87960000D01*
X148417142Y-88007619D01*
X149369523Y-88912380D02*
X148798095Y-88912380D01*
X149083809Y-88912380D02*
X149083809Y-87912380D01*
X148988571Y-88055238D01*
X148893333Y-88150476D01*
X148798095Y-88198095D01*
X150226666Y-88245714D02*
X150226666Y-88912380D01*
X149988571Y-87864761D02*
X149750476Y-88579047D01*
X150369523Y-88579047D01*
G04 #@! TO.C,C15*
X145647142Y-102112857D02*
X145694761Y-102160476D01*
X145742380Y-102303333D01*
X145742380Y-102398571D01*
X145694761Y-102541428D01*
X145599523Y-102636666D01*
X145504285Y-102684285D01*
X145313809Y-102731904D01*
X145170952Y-102731904D01*
X144980476Y-102684285D01*
X144885238Y-102636666D01*
X144790000Y-102541428D01*
X144742380Y-102398571D01*
X144742380Y-102303333D01*
X144790000Y-102160476D01*
X144837619Y-102112857D01*
X145742380Y-101160476D02*
X145742380Y-101731904D01*
X145742380Y-101446190D02*
X144742380Y-101446190D01*
X144885238Y-101541428D01*
X144980476Y-101636666D01*
X145028095Y-101731904D01*
X144742380Y-100255714D02*
X144742380Y-100731904D01*
X145218571Y-100779523D01*
X145170952Y-100731904D01*
X145123333Y-100636666D01*
X145123333Y-100398571D01*
X145170952Y-100303333D01*
X145218571Y-100255714D01*
X145313809Y-100208095D01*
X145551904Y-100208095D01*
X145647142Y-100255714D01*
X145694761Y-100303333D01*
X145742380Y-100398571D01*
X145742380Y-100636666D01*
X145694761Y-100731904D01*
X145647142Y-100779523D01*
G04 #@! TO.C,C16*
X145497142Y-106287142D02*
X145449523Y-106334761D01*
X145306666Y-106382380D01*
X145211428Y-106382380D01*
X145068571Y-106334761D01*
X144973333Y-106239523D01*
X144925714Y-106144285D01*
X144878095Y-105953809D01*
X144878095Y-105810952D01*
X144925714Y-105620476D01*
X144973333Y-105525238D01*
X145068571Y-105430000D01*
X145211428Y-105382380D01*
X145306666Y-105382380D01*
X145449523Y-105430000D01*
X145497142Y-105477619D01*
X146449523Y-106382380D02*
X145878095Y-106382380D01*
X146163809Y-106382380D02*
X146163809Y-105382380D01*
X146068571Y-105525238D01*
X145973333Y-105620476D01*
X145878095Y-105668095D01*
X147306666Y-105382380D02*
X147116190Y-105382380D01*
X147020952Y-105430000D01*
X146973333Y-105477619D01*
X146878095Y-105620476D01*
X146830476Y-105810952D01*
X146830476Y-106191904D01*
X146878095Y-106287142D01*
X146925714Y-106334761D01*
X147020952Y-106382380D01*
X147211428Y-106382380D01*
X147306666Y-106334761D01*
X147354285Y-106287142D01*
X147401904Y-106191904D01*
X147401904Y-105953809D01*
X147354285Y-105858571D01*
X147306666Y-105810952D01*
X147211428Y-105763333D01*
X147020952Y-105763333D01*
X146925714Y-105810952D01*
X146878095Y-105858571D01*
X146830476Y-105953809D01*
G04 #@! TO.C,C17*
X156187142Y-126232857D02*
X156234761Y-126280476D01*
X156282380Y-126423333D01*
X156282380Y-126518571D01*
X156234761Y-126661428D01*
X156139523Y-126756666D01*
X156044285Y-126804285D01*
X155853809Y-126851904D01*
X155710952Y-126851904D01*
X155520476Y-126804285D01*
X155425238Y-126756666D01*
X155330000Y-126661428D01*
X155282380Y-126518571D01*
X155282380Y-126423333D01*
X155330000Y-126280476D01*
X155377619Y-126232857D01*
X156282380Y-125280476D02*
X156282380Y-125851904D01*
X156282380Y-125566190D02*
X155282380Y-125566190D01*
X155425238Y-125661428D01*
X155520476Y-125756666D01*
X155568095Y-125851904D01*
X155282380Y-124947142D02*
X155282380Y-124280476D01*
X156282380Y-124709047D01*
G04 #@! TO.C,C18*
X148377142Y-125827142D02*
X148329523Y-125874761D01*
X148186666Y-125922380D01*
X148091428Y-125922380D01*
X147948571Y-125874761D01*
X147853333Y-125779523D01*
X147805714Y-125684285D01*
X147758095Y-125493809D01*
X147758095Y-125350952D01*
X147805714Y-125160476D01*
X147853333Y-125065238D01*
X147948571Y-124970000D01*
X148091428Y-124922380D01*
X148186666Y-124922380D01*
X148329523Y-124970000D01*
X148377142Y-125017619D01*
X149329523Y-125922380D02*
X148758095Y-125922380D01*
X149043809Y-125922380D02*
X149043809Y-124922380D01*
X148948571Y-125065238D01*
X148853333Y-125160476D01*
X148758095Y-125208095D01*
X149900952Y-125350952D02*
X149805714Y-125303333D01*
X149758095Y-125255714D01*
X149710476Y-125160476D01*
X149710476Y-125112857D01*
X149758095Y-125017619D01*
X149805714Y-124970000D01*
X149900952Y-124922380D01*
X150091428Y-124922380D01*
X150186666Y-124970000D01*
X150234285Y-125017619D01*
X150281904Y-125112857D01*
X150281904Y-125160476D01*
X150234285Y-125255714D01*
X150186666Y-125303333D01*
X150091428Y-125350952D01*
X149900952Y-125350952D01*
X149805714Y-125398571D01*
X149758095Y-125446190D01*
X149710476Y-125541428D01*
X149710476Y-125731904D01*
X149758095Y-125827142D01*
X149805714Y-125874761D01*
X149900952Y-125922380D01*
X150091428Y-125922380D01*
X150186666Y-125874761D01*
X150234285Y-125827142D01*
X150281904Y-125731904D01*
X150281904Y-125541428D01*
X150234285Y-125446190D01*
X150186666Y-125398571D01*
X150091428Y-125350952D01*
G04 #@! TO.C,C19*
X161887142Y-126087142D02*
X161839523Y-126134761D01*
X161696666Y-126182380D01*
X161601428Y-126182380D01*
X161458571Y-126134761D01*
X161363333Y-126039523D01*
X161315714Y-125944285D01*
X161268095Y-125753809D01*
X161268095Y-125610952D01*
X161315714Y-125420476D01*
X161363333Y-125325238D01*
X161458571Y-125230000D01*
X161601428Y-125182380D01*
X161696666Y-125182380D01*
X161839523Y-125230000D01*
X161887142Y-125277619D01*
X162839523Y-126182380D02*
X162268095Y-126182380D01*
X162553809Y-126182380D02*
X162553809Y-125182380D01*
X162458571Y-125325238D01*
X162363333Y-125420476D01*
X162268095Y-125468095D01*
X163315714Y-126182380D02*
X163506190Y-126182380D01*
X163601428Y-126134761D01*
X163649047Y-126087142D01*
X163744285Y-125944285D01*
X163791904Y-125753809D01*
X163791904Y-125372857D01*
X163744285Y-125277619D01*
X163696666Y-125230000D01*
X163601428Y-125182380D01*
X163410952Y-125182380D01*
X163315714Y-125230000D01*
X163268095Y-125277619D01*
X163220476Y-125372857D01*
X163220476Y-125610952D01*
X163268095Y-125706190D01*
X163315714Y-125753809D01*
X163410952Y-125801428D01*
X163601428Y-125801428D01*
X163696666Y-125753809D01*
X163744285Y-125706190D01*
X163791904Y-125610952D01*
G04 #@! TO.C,C20*
X139435142Y-127164857D02*
X139482761Y-127212476D01*
X139530380Y-127355333D01*
X139530380Y-127450571D01*
X139482761Y-127593428D01*
X139387523Y-127688666D01*
X139292285Y-127736285D01*
X139101809Y-127783904D01*
X138958952Y-127783904D01*
X138768476Y-127736285D01*
X138673238Y-127688666D01*
X138578000Y-127593428D01*
X138530380Y-127450571D01*
X138530380Y-127355333D01*
X138578000Y-127212476D01*
X138625619Y-127164857D01*
X138625619Y-126783904D02*
X138578000Y-126736285D01*
X138530380Y-126641047D01*
X138530380Y-126402952D01*
X138578000Y-126307714D01*
X138625619Y-126260095D01*
X138720857Y-126212476D01*
X138816095Y-126212476D01*
X138958952Y-126260095D01*
X139530380Y-126831523D01*
X139530380Y-126212476D01*
X138530380Y-125593428D02*
X138530380Y-125498190D01*
X138578000Y-125402952D01*
X138625619Y-125355333D01*
X138720857Y-125307714D01*
X138911333Y-125260095D01*
X139149428Y-125260095D01*
X139339904Y-125307714D01*
X139435142Y-125355333D01*
X139482761Y-125402952D01*
X139530380Y-125498190D01*
X139530380Y-125593428D01*
X139482761Y-125688666D01*
X139435142Y-125736285D01*
X139339904Y-125783904D01*
X139149428Y-125831523D01*
X138911333Y-125831523D01*
X138720857Y-125783904D01*
X138625619Y-125736285D01*
X138578000Y-125688666D01*
X138530380Y-125593428D01*
G04 #@! TO.C,C21*
X139757142Y-131052857D02*
X139804761Y-131100476D01*
X139852380Y-131243333D01*
X139852380Y-131338571D01*
X139804761Y-131481428D01*
X139709523Y-131576666D01*
X139614285Y-131624285D01*
X139423809Y-131671904D01*
X139280952Y-131671904D01*
X139090476Y-131624285D01*
X138995238Y-131576666D01*
X138900000Y-131481428D01*
X138852380Y-131338571D01*
X138852380Y-131243333D01*
X138900000Y-131100476D01*
X138947619Y-131052857D01*
X138947619Y-130671904D02*
X138900000Y-130624285D01*
X138852380Y-130529047D01*
X138852380Y-130290952D01*
X138900000Y-130195714D01*
X138947619Y-130148095D01*
X139042857Y-130100476D01*
X139138095Y-130100476D01*
X139280952Y-130148095D01*
X139852380Y-130719523D01*
X139852380Y-130100476D01*
X139852380Y-129148095D02*
X139852380Y-129719523D01*
X139852380Y-129433809D02*
X138852380Y-129433809D01*
X138995238Y-129529047D01*
X139090476Y-129624285D01*
X139138095Y-129719523D01*
G04 #@! TO.C,C22*
X138277142Y-127582857D02*
X138324761Y-127630476D01*
X138372380Y-127773333D01*
X138372380Y-127868571D01*
X138324761Y-128011428D01*
X138229523Y-128106666D01*
X138134285Y-128154285D01*
X137943809Y-128201904D01*
X137800952Y-128201904D01*
X137610476Y-128154285D01*
X137515238Y-128106666D01*
X137420000Y-128011428D01*
X137372380Y-127868571D01*
X137372380Y-127773333D01*
X137420000Y-127630476D01*
X137467619Y-127582857D01*
X137467619Y-127201904D02*
X137420000Y-127154285D01*
X137372380Y-127059047D01*
X137372380Y-126820952D01*
X137420000Y-126725714D01*
X137467619Y-126678095D01*
X137562857Y-126630476D01*
X137658095Y-126630476D01*
X137800952Y-126678095D01*
X138372380Y-127249523D01*
X138372380Y-126630476D01*
X137467619Y-126249523D02*
X137420000Y-126201904D01*
X137372380Y-126106666D01*
X137372380Y-125868571D01*
X137420000Y-125773333D01*
X137467619Y-125725714D01*
X137562857Y-125678095D01*
X137658095Y-125678095D01*
X137800952Y-125725714D01*
X138372380Y-126297142D01*
X138372380Y-125678095D01*
G04 #@! TO.C,C23*
X150377142Y-109982857D02*
X150424761Y-110030476D01*
X150472380Y-110173333D01*
X150472380Y-110268571D01*
X150424761Y-110411428D01*
X150329523Y-110506666D01*
X150234285Y-110554285D01*
X150043809Y-110601904D01*
X149900952Y-110601904D01*
X149710476Y-110554285D01*
X149615238Y-110506666D01*
X149520000Y-110411428D01*
X149472380Y-110268571D01*
X149472380Y-110173333D01*
X149520000Y-110030476D01*
X149567619Y-109982857D01*
X149567619Y-109601904D02*
X149520000Y-109554285D01*
X149472380Y-109459047D01*
X149472380Y-109220952D01*
X149520000Y-109125714D01*
X149567619Y-109078095D01*
X149662857Y-109030476D01*
X149758095Y-109030476D01*
X149900952Y-109078095D01*
X150472380Y-109649523D01*
X150472380Y-109030476D01*
X149472380Y-108697142D02*
X149472380Y-108078095D01*
X149853333Y-108411428D01*
X149853333Y-108268571D01*
X149900952Y-108173333D01*
X149948571Y-108125714D01*
X150043809Y-108078095D01*
X150281904Y-108078095D01*
X150377142Y-108125714D01*
X150424761Y-108173333D01*
X150472380Y-108268571D01*
X150472380Y-108554285D01*
X150424761Y-108649523D01*
X150377142Y-108697142D01*
G04 #@! TO.C,C24*
X153027142Y-109907142D02*
X152979523Y-109954761D01*
X152836666Y-110002380D01*
X152741428Y-110002380D01*
X152598571Y-109954761D01*
X152503333Y-109859523D01*
X152455714Y-109764285D01*
X152408095Y-109573809D01*
X152408095Y-109430952D01*
X152455714Y-109240476D01*
X152503333Y-109145238D01*
X152598571Y-109050000D01*
X152741428Y-109002380D01*
X152836666Y-109002380D01*
X152979523Y-109050000D01*
X153027142Y-109097619D01*
X153408095Y-109097619D02*
X153455714Y-109050000D01*
X153550952Y-109002380D01*
X153789047Y-109002380D01*
X153884285Y-109050000D01*
X153931904Y-109097619D01*
X153979523Y-109192857D01*
X153979523Y-109288095D01*
X153931904Y-109430952D01*
X153360476Y-110002380D01*
X153979523Y-110002380D01*
X154836666Y-109335714D02*
X154836666Y-110002380D01*
X154598571Y-108954761D02*
X154360476Y-109669047D01*
X154979523Y-109669047D01*
G04 #@! TO.C,C25*
X141257142Y-97397142D02*
X141209523Y-97444761D01*
X141066666Y-97492380D01*
X140971428Y-97492380D01*
X140828571Y-97444761D01*
X140733333Y-97349523D01*
X140685714Y-97254285D01*
X140638095Y-97063809D01*
X140638095Y-96920952D01*
X140685714Y-96730476D01*
X140733333Y-96635238D01*
X140828571Y-96540000D01*
X140971428Y-96492380D01*
X141066666Y-96492380D01*
X141209523Y-96540000D01*
X141257142Y-96587619D01*
X141638095Y-96587619D02*
X141685714Y-96540000D01*
X141780952Y-96492380D01*
X142019047Y-96492380D01*
X142114285Y-96540000D01*
X142161904Y-96587619D01*
X142209523Y-96682857D01*
X142209523Y-96778095D01*
X142161904Y-96920952D01*
X141590476Y-97492380D01*
X142209523Y-97492380D01*
X143114285Y-96492380D02*
X142638095Y-96492380D01*
X142590476Y-96968571D01*
X142638095Y-96920952D01*
X142733333Y-96873333D01*
X142971428Y-96873333D01*
X143066666Y-96920952D01*
X143114285Y-96968571D01*
X143161904Y-97063809D01*
X143161904Y-97301904D01*
X143114285Y-97397142D01*
X143066666Y-97444761D01*
X142971428Y-97492380D01*
X142733333Y-97492380D01*
X142638095Y-97444761D01*
X142590476Y-97397142D01*
G04 #@! TO.C,C26*
X157487142Y-101652857D02*
X157534761Y-101700476D01*
X157582380Y-101843333D01*
X157582380Y-101938571D01*
X157534761Y-102081428D01*
X157439523Y-102176666D01*
X157344285Y-102224285D01*
X157153809Y-102271904D01*
X157010952Y-102271904D01*
X156820476Y-102224285D01*
X156725238Y-102176666D01*
X156630000Y-102081428D01*
X156582380Y-101938571D01*
X156582380Y-101843333D01*
X156630000Y-101700476D01*
X156677619Y-101652857D01*
X156677619Y-101271904D02*
X156630000Y-101224285D01*
X156582380Y-101129047D01*
X156582380Y-100890952D01*
X156630000Y-100795714D01*
X156677619Y-100748095D01*
X156772857Y-100700476D01*
X156868095Y-100700476D01*
X157010952Y-100748095D01*
X157582380Y-101319523D01*
X157582380Y-100700476D01*
X156582380Y-99843333D02*
X156582380Y-100033809D01*
X156630000Y-100129047D01*
X156677619Y-100176666D01*
X156820476Y-100271904D01*
X157010952Y-100319523D01*
X157391904Y-100319523D01*
X157487142Y-100271904D01*
X157534761Y-100224285D01*
X157582380Y-100129047D01*
X157582380Y-99938571D01*
X157534761Y-99843333D01*
X157487142Y-99795714D01*
X157391904Y-99748095D01*
X157153809Y-99748095D01*
X157058571Y-99795714D01*
X157010952Y-99843333D01*
X156963333Y-99938571D01*
X156963333Y-100129047D01*
X157010952Y-100224285D01*
X157058571Y-100271904D01*
X157153809Y-100319523D01*
G04 #@! TO.C,C27*
X140347142Y-107997142D02*
X140299523Y-108044761D01*
X140156666Y-108092380D01*
X140061428Y-108092380D01*
X139918571Y-108044761D01*
X139823333Y-107949523D01*
X139775714Y-107854285D01*
X139728095Y-107663809D01*
X139728095Y-107520952D01*
X139775714Y-107330476D01*
X139823333Y-107235238D01*
X139918571Y-107140000D01*
X140061428Y-107092380D01*
X140156666Y-107092380D01*
X140299523Y-107140000D01*
X140347142Y-107187619D01*
X140728095Y-107187619D02*
X140775714Y-107140000D01*
X140870952Y-107092380D01*
X141109047Y-107092380D01*
X141204285Y-107140000D01*
X141251904Y-107187619D01*
X141299523Y-107282857D01*
X141299523Y-107378095D01*
X141251904Y-107520952D01*
X140680476Y-108092380D01*
X141299523Y-108092380D01*
X141632857Y-107092380D02*
X142299523Y-107092380D01*
X141870952Y-108092380D01*
G04 #@! TO.C,C28*
X157777142Y-118797142D02*
X157729523Y-118844761D01*
X157586666Y-118892380D01*
X157491428Y-118892380D01*
X157348571Y-118844761D01*
X157253333Y-118749523D01*
X157205714Y-118654285D01*
X157158095Y-118463809D01*
X157158095Y-118320952D01*
X157205714Y-118130476D01*
X157253333Y-118035238D01*
X157348571Y-117940000D01*
X157491428Y-117892380D01*
X157586666Y-117892380D01*
X157729523Y-117940000D01*
X157777142Y-117987619D01*
X158158095Y-117987619D02*
X158205714Y-117940000D01*
X158300952Y-117892380D01*
X158539047Y-117892380D01*
X158634285Y-117940000D01*
X158681904Y-117987619D01*
X158729523Y-118082857D01*
X158729523Y-118178095D01*
X158681904Y-118320952D01*
X158110476Y-118892380D01*
X158729523Y-118892380D01*
X159300952Y-118320952D02*
X159205714Y-118273333D01*
X159158095Y-118225714D01*
X159110476Y-118130476D01*
X159110476Y-118082857D01*
X159158095Y-117987619D01*
X159205714Y-117940000D01*
X159300952Y-117892380D01*
X159491428Y-117892380D01*
X159586666Y-117940000D01*
X159634285Y-117987619D01*
X159681904Y-118082857D01*
X159681904Y-118130476D01*
X159634285Y-118225714D01*
X159586666Y-118273333D01*
X159491428Y-118320952D01*
X159300952Y-118320952D01*
X159205714Y-118368571D01*
X159158095Y-118416190D01*
X159110476Y-118511428D01*
X159110476Y-118701904D01*
X159158095Y-118797142D01*
X159205714Y-118844761D01*
X159300952Y-118892380D01*
X159491428Y-118892380D01*
X159586666Y-118844761D01*
X159634285Y-118797142D01*
X159681904Y-118701904D01*
X159681904Y-118511428D01*
X159634285Y-118416190D01*
X159586666Y-118368571D01*
X159491428Y-118320952D01*
G04 #@! TO.C,D1*
X143617969Y-94931793D02*
X142910862Y-94224687D01*
X143079221Y-94056328D01*
X143213908Y-93988984D01*
X143348595Y-93988984D01*
X143449610Y-94022656D01*
X143617969Y-94123671D01*
X143718984Y-94224687D01*
X143820000Y-94393045D01*
X143853671Y-94494061D01*
X143853671Y-94628748D01*
X143786328Y-94763435D01*
X143617969Y-94931793D01*
X144695465Y-93854297D02*
X144291404Y-94258358D01*
X144493435Y-94056328D02*
X143786328Y-93349221D01*
X143820000Y-93517580D01*
X143820000Y-93652267D01*
X143786328Y-93753282D01*
G04 #@! TO.C,D2*
X146507969Y-90891793D02*
X145800862Y-90184687D01*
X145969221Y-90016328D01*
X146103908Y-89948984D01*
X146238595Y-89948984D01*
X146339610Y-89982656D01*
X146507969Y-90083671D01*
X146608984Y-90184687D01*
X146710000Y-90353045D01*
X146743671Y-90454061D01*
X146743671Y-90588748D01*
X146676328Y-90723435D01*
X146507969Y-90891793D01*
X146541641Y-89578595D02*
X146541641Y-89511251D01*
X146575312Y-89410236D01*
X146743671Y-89241877D01*
X146844687Y-89208206D01*
X146912030Y-89208206D01*
X147013045Y-89241877D01*
X147080389Y-89309221D01*
X147147732Y-89443908D01*
X147147732Y-90252030D01*
X147585465Y-89814297D01*
G04 #@! TO.C,D3*
X163812380Y-128808095D02*
X162812380Y-128808095D01*
X162812380Y-128570000D01*
X162860000Y-128427142D01*
X162955238Y-128331904D01*
X163050476Y-128284285D01*
X163240952Y-128236666D01*
X163383809Y-128236666D01*
X163574285Y-128284285D01*
X163669523Y-128331904D01*
X163764761Y-128427142D01*
X163812380Y-128570000D01*
X163812380Y-128808095D01*
X162812380Y-127903333D02*
X162812380Y-127284285D01*
X163193333Y-127617619D01*
X163193333Y-127474761D01*
X163240952Y-127379523D01*
X163288571Y-127331904D01*
X163383809Y-127284285D01*
X163621904Y-127284285D01*
X163717142Y-127331904D01*
X163764761Y-127379523D01*
X163812380Y-127474761D01*
X163812380Y-127760476D01*
X163764761Y-127855714D01*
X163717142Y-127903333D01*
G04 #@! TO.C,D4*
X157928206Y-93867969D02*
X158635312Y-93160862D01*
X158803671Y-93329221D01*
X158871015Y-93463908D01*
X158871015Y-93598595D01*
X158837343Y-93699610D01*
X158736328Y-93867969D01*
X158635312Y-93968984D01*
X158466954Y-94070000D01*
X158365938Y-94103671D01*
X158231251Y-94103671D01*
X158096564Y-94036328D01*
X157928206Y-93867969D01*
X159409763Y-94406717D02*
X158938358Y-94878122D01*
X159510778Y-93968984D02*
X158837343Y-94305702D01*
X159275076Y-94743435D01*
G04 #@! TO.C,D5*
X154928205Y-89797969D02*
X155635311Y-89090862D01*
X155803670Y-89259221D01*
X155871014Y-89393908D01*
X155871014Y-89528595D01*
X155837342Y-89629610D01*
X155736327Y-89797969D01*
X155635311Y-89898984D01*
X155466953Y-90000000D01*
X155365937Y-90033671D01*
X155231250Y-90033671D01*
X155096563Y-89966328D01*
X154928205Y-89797969D01*
X156679136Y-90134687D02*
X156342418Y-89797969D01*
X155972029Y-90101015D01*
X156039373Y-90101015D01*
X156140388Y-90134687D01*
X156308747Y-90303045D01*
X156342418Y-90404061D01*
X156342418Y-90471404D01*
X156308747Y-90572419D01*
X156140388Y-90740778D01*
X156039373Y-90774450D01*
X155972029Y-90774450D01*
X155871014Y-90740778D01*
X155702655Y-90572419D01*
X155668983Y-90471404D01*
X155668983Y-90404061D01*
G04 #@! TO.C,D6*
X138162380Y-118768095D02*
X137162380Y-118768095D01*
X137162380Y-118530000D01*
X137210000Y-118387142D01*
X137305238Y-118291904D01*
X137400476Y-118244285D01*
X137590952Y-118196666D01*
X137733809Y-118196666D01*
X137924285Y-118244285D01*
X138019523Y-118291904D01*
X138114761Y-118387142D01*
X138162380Y-118530000D01*
X138162380Y-118768095D01*
X137162380Y-117339523D02*
X137162380Y-117530000D01*
X137210000Y-117625238D01*
X137257619Y-117672857D01*
X137400476Y-117768095D01*
X137590952Y-117815714D01*
X137971904Y-117815714D01*
X138067142Y-117768095D01*
X138114761Y-117720476D01*
X138162380Y-117625238D01*
X138162380Y-117434761D01*
X138114761Y-117339523D01*
X138067142Y-117291904D01*
X137971904Y-117244285D01*
X137733809Y-117244285D01*
X137638571Y-117291904D01*
X137590952Y-117339523D01*
X137543333Y-117434761D01*
X137543333Y-117625238D01*
X137590952Y-117720476D01*
X137638571Y-117768095D01*
X137733809Y-117815714D01*
G04 #@! TO.C,D7*
X136582380Y-119178095D02*
X135582380Y-119178095D01*
X135582380Y-118940000D01*
X135630000Y-118797142D01*
X135725238Y-118701904D01*
X135820476Y-118654285D01*
X136010952Y-118606666D01*
X136153809Y-118606666D01*
X136344285Y-118654285D01*
X136439523Y-118701904D01*
X136534761Y-118797142D01*
X136582380Y-118940000D01*
X136582380Y-119178095D01*
X135582380Y-118273333D02*
X135582380Y-117606666D01*
X136582380Y-118035238D01*
G04 #@! TO.C,*
G04 #@! TO.C,L3*
X160143333Y-129162380D02*
X159667142Y-129162380D01*
X159667142Y-128162380D01*
X160381428Y-128162380D02*
X161000476Y-128162380D01*
X160667142Y-128543333D01*
X160810000Y-128543333D01*
X160905238Y-128590952D01*
X160952857Y-128638571D01*
X161000476Y-128733809D01*
X161000476Y-128971904D01*
X160952857Y-129067142D01*
X160905238Y-129114761D01*
X160810000Y-129162380D01*
X160524285Y-129162380D01*
X160429047Y-129114761D01*
X160381428Y-129067142D01*
G04 #@! TO.C,L4*
X143202380Y-126586666D02*
X143202380Y-127062857D01*
X142202380Y-127062857D01*
X142535714Y-125824761D02*
X143202380Y-125824761D01*
X142154761Y-126062857D02*
X142869047Y-126300952D01*
X142869047Y-125681904D01*
G04 #@! TO.C,L5*
X153132380Y-112246666D02*
X153132380Y-112722857D01*
X152132380Y-112722857D01*
X152132380Y-111437142D02*
X152132380Y-111913333D01*
X152608571Y-111960952D01*
X152560952Y-111913333D01*
X152513333Y-111818095D01*
X152513333Y-111580000D01*
X152560952Y-111484761D01*
X152608571Y-111437142D01*
X152703809Y-111389523D01*
X152941904Y-111389523D01*
X153037142Y-111437142D01*
X153084761Y-111484761D01*
X153132380Y-111580000D01*
X153132380Y-111818095D01*
X153084761Y-111913333D01*
X153037142Y-111960952D01*
G04 #@! TO.C,LS1*
X145392380Y-112172857D02*
X145392380Y-112649047D01*
X144392380Y-112649047D01*
X145344761Y-111887142D02*
X145392380Y-111744285D01*
X145392380Y-111506190D01*
X145344761Y-111410952D01*
X145297142Y-111363333D01*
X145201904Y-111315714D01*
X145106666Y-111315714D01*
X145011428Y-111363333D01*
X144963809Y-111410952D01*
X144916190Y-111506190D01*
X144868571Y-111696666D01*
X144820952Y-111791904D01*
X144773333Y-111839523D01*
X144678095Y-111887142D01*
X144582857Y-111887142D01*
X144487619Y-111839523D01*
X144440000Y-111791904D01*
X144392380Y-111696666D01*
X144392380Y-111458571D01*
X144440000Y-111315714D01*
X145392380Y-110363333D02*
X145392380Y-110934761D01*
X145392380Y-110649047D02*
X144392380Y-110649047D01*
X144535238Y-110744285D01*
X144630476Y-110839523D01*
X144678095Y-110934761D01*
G04 #@! TO.C,Q1*
X136767619Y-100075238D02*
X136720000Y-100170476D01*
X136624761Y-100265714D01*
X136481904Y-100408571D01*
X136434285Y-100503809D01*
X136434285Y-100599047D01*
X136672380Y-100551428D02*
X136624761Y-100646666D01*
X136529523Y-100741904D01*
X136339047Y-100789523D01*
X136005714Y-100789523D01*
X135815238Y-100741904D01*
X135720000Y-100646666D01*
X135672380Y-100551428D01*
X135672380Y-100360952D01*
X135720000Y-100265714D01*
X135815238Y-100170476D01*
X136005714Y-100122857D01*
X136339047Y-100122857D01*
X136529523Y-100170476D01*
X136624761Y-100265714D01*
X136672380Y-100360952D01*
X136672380Y-100551428D01*
X136672380Y-99170476D02*
X136672380Y-99741904D01*
X136672380Y-99456190D02*
X135672380Y-99456190D01*
X135815238Y-99551428D01*
X135910476Y-99646666D01*
X135958095Y-99741904D01*
G04 #@! TO.C,Q2*
X158124761Y-130977619D02*
X158029523Y-130930000D01*
X157934285Y-130834761D01*
X157791428Y-130691904D01*
X157696190Y-130644285D01*
X157600952Y-130644285D01*
X157648571Y-130882380D02*
X157553333Y-130834761D01*
X157458095Y-130739523D01*
X157410476Y-130549047D01*
X157410476Y-130215714D01*
X157458095Y-130025238D01*
X157553333Y-129930000D01*
X157648571Y-129882380D01*
X157839047Y-129882380D01*
X157934285Y-129930000D01*
X158029523Y-130025238D01*
X158077142Y-130215714D01*
X158077142Y-130549047D01*
X158029523Y-130739523D01*
X157934285Y-130834761D01*
X157839047Y-130882380D01*
X157648571Y-130882380D01*
X158458095Y-129977619D02*
X158505714Y-129930000D01*
X158600952Y-129882380D01*
X158839047Y-129882380D01*
X158934285Y-129930000D01*
X158981904Y-129977619D01*
X159029523Y-130072857D01*
X159029523Y-130168095D01*
X158981904Y-130310952D01*
X158410476Y-130882380D01*
X159029523Y-130882380D01*
G04 #@! TO.C,Q3*
X166774761Y-98107619D02*
X166679523Y-98060000D01*
X166584285Y-97964761D01*
X166441428Y-97821904D01*
X166346190Y-97774285D01*
X166250952Y-97774285D01*
X166298571Y-98012380D02*
X166203333Y-97964761D01*
X166108095Y-97869523D01*
X166060476Y-97679047D01*
X166060476Y-97345714D01*
X166108095Y-97155238D01*
X166203333Y-97060000D01*
X166298571Y-97012380D01*
X166489047Y-97012380D01*
X166584285Y-97060000D01*
X166679523Y-97155238D01*
X166727142Y-97345714D01*
X166727142Y-97679047D01*
X166679523Y-97869523D01*
X166584285Y-97964761D01*
X166489047Y-98012380D01*
X166298571Y-98012380D01*
X167060476Y-97012380D02*
X167679523Y-97012380D01*
X167346190Y-97393333D01*
X167489047Y-97393333D01*
X167584285Y-97440952D01*
X167631904Y-97488571D01*
X167679523Y-97583809D01*
X167679523Y-97821904D01*
X167631904Y-97917142D01*
X167584285Y-97964761D01*
X167489047Y-98012380D01*
X167203333Y-98012380D01*
X167108095Y-97964761D01*
X167060476Y-97917142D01*
G04 #@! TO.C,Q4*
X151054761Y-84047619D02*
X150959523Y-84000000D01*
X150864285Y-83904761D01*
X150721428Y-83761904D01*
X150626190Y-83714285D01*
X150530952Y-83714285D01*
X150578571Y-83952380D02*
X150483333Y-83904761D01*
X150388095Y-83809523D01*
X150340476Y-83619047D01*
X150340476Y-83285714D01*
X150388095Y-83095238D01*
X150483333Y-83000000D01*
X150578571Y-82952380D01*
X150769047Y-82952380D01*
X150864285Y-83000000D01*
X150959523Y-83095238D01*
X151007142Y-83285714D01*
X151007142Y-83619047D01*
X150959523Y-83809523D01*
X150864285Y-83904761D01*
X150769047Y-83952380D01*
X150578571Y-83952380D01*
X151864285Y-83285714D02*
X151864285Y-83952380D01*
X151626190Y-82904761D02*
X151388095Y-83619047D01*
X152007142Y-83619047D01*
G04 #@! TO.C,R1*
X138372380Y-93246666D02*
X137896190Y-93580000D01*
X138372380Y-93818095D02*
X137372380Y-93818095D01*
X137372380Y-93437142D01*
X137420000Y-93341904D01*
X137467619Y-93294285D01*
X137562857Y-93246666D01*
X137705714Y-93246666D01*
X137800952Y-93294285D01*
X137848571Y-93341904D01*
X137896190Y-93437142D01*
X137896190Y-93818095D01*
X138372380Y-92294285D02*
X138372380Y-92865714D01*
X138372380Y-92580000D02*
X137372380Y-92580000D01*
X137515238Y-92675238D01*
X137610476Y-92770476D01*
X137658095Y-92865714D01*
G04 #@! TO.C,R2*
X136622380Y-97196666D02*
X136146190Y-97530000D01*
X136622380Y-97768095D02*
X135622380Y-97768095D01*
X135622380Y-97387142D01*
X135670000Y-97291904D01*
X135717619Y-97244285D01*
X135812857Y-97196666D01*
X135955714Y-97196666D01*
X136050952Y-97244285D01*
X136098571Y-97291904D01*
X136146190Y-97387142D01*
X136146190Y-97768095D01*
X135717619Y-96815714D02*
X135670000Y-96768095D01*
X135622380Y-96672857D01*
X135622380Y-96434761D01*
X135670000Y-96339523D01*
X135717619Y-96291904D01*
X135812857Y-96244285D01*
X135908095Y-96244285D01*
X136050952Y-96291904D01*
X136622380Y-96863333D01*
X136622380Y-96244285D01*
G04 #@! TO.C,R3*
X153352380Y-96611666D02*
X152876190Y-96945000D01*
X153352380Y-97183095D02*
X152352380Y-97183095D01*
X152352380Y-96802142D01*
X152400000Y-96706904D01*
X152447619Y-96659285D01*
X152542857Y-96611666D01*
X152685714Y-96611666D01*
X152780952Y-96659285D01*
X152828571Y-96706904D01*
X152876190Y-96802142D01*
X152876190Y-97183095D01*
X152352380Y-96278333D02*
X152352380Y-95659285D01*
X152733333Y-95992619D01*
X152733333Y-95849761D01*
X152780952Y-95754523D01*
X152828571Y-95706904D01*
X152923809Y-95659285D01*
X153161904Y-95659285D01*
X153257142Y-95706904D01*
X153304761Y-95754523D01*
X153352380Y-95849761D01*
X153352380Y-96135476D01*
X153304761Y-96230714D01*
X153257142Y-96278333D01*
G04 #@! TO.C,R4*
X165292380Y-92936666D02*
X164816190Y-93270000D01*
X165292380Y-93508095D02*
X164292380Y-93508095D01*
X164292380Y-93127142D01*
X164340000Y-93031904D01*
X164387619Y-92984285D01*
X164482857Y-92936666D01*
X164625714Y-92936666D01*
X164720952Y-92984285D01*
X164768571Y-93031904D01*
X164816190Y-93127142D01*
X164816190Y-93508095D01*
X164625714Y-92079523D02*
X165292380Y-92079523D01*
X164244761Y-92317619D02*
X164959047Y-92555714D01*
X164959047Y-91936666D01*
G04 #@! TO.C,R5*
X160518333Y-96592380D02*
X160185000Y-96116190D01*
X159946904Y-96592380D02*
X159946904Y-95592380D01*
X160327857Y-95592380D01*
X160423095Y-95640000D01*
X160470714Y-95687619D01*
X160518333Y-95782857D01*
X160518333Y-95925714D01*
X160470714Y-96020952D01*
X160423095Y-96068571D01*
X160327857Y-96116190D01*
X159946904Y-96116190D01*
X161423095Y-95592380D02*
X160946904Y-95592380D01*
X160899285Y-96068571D01*
X160946904Y-96020952D01*
X161042142Y-95973333D01*
X161280238Y-95973333D01*
X161375476Y-96020952D01*
X161423095Y-96068571D01*
X161470714Y-96163809D01*
X161470714Y-96401904D01*
X161423095Y-96497142D01*
X161375476Y-96544761D01*
X161280238Y-96592380D01*
X161042142Y-96592380D01*
X160946904Y-96544761D01*
X160899285Y-96497142D01*
G04 #@! TO.C,R6*
X169268333Y-129382380D02*
X168935000Y-128906190D01*
X168696904Y-129382380D02*
X168696904Y-128382380D01*
X169077857Y-128382380D01*
X169173095Y-128430000D01*
X169220714Y-128477619D01*
X169268333Y-128572857D01*
X169268333Y-128715714D01*
X169220714Y-128810952D01*
X169173095Y-128858571D01*
X169077857Y-128906190D01*
X168696904Y-128906190D01*
X170125476Y-128382380D02*
X169935000Y-128382380D01*
X169839761Y-128430000D01*
X169792142Y-128477619D01*
X169696904Y-128620476D01*
X169649285Y-128810952D01*
X169649285Y-129191904D01*
X169696904Y-129287142D01*
X169744523Y-129334761D01*
X169839761Y-129382380D01*
X170030238Y-129382380D01*
X170125476Y-129334761D01*
X170173095Y-129287142D01*
X170220714Y-129191904D01*
X170220714Y-128953809D01*
X170173095Y-128858571D01*
X170125476Y-128810952D01*
X170030238Y-128763333D01*
X169839761Y-128763333D01*
X169744523Y-128810952D01*
X169696904Y-128858571D01*
X169649285Y-128953809D01*
G04 #@! TO.C,R7*
X150942380Y-137211666D02*
X150466190Y-137545000D01*
X150942380Y-137783095D02*
X149942380Y-137783095D01*
X149942380Y-137402142D01*
X149990000Y-137306904D01*
X150037619Y-137259285D01*
X150132857Y-137211666D01*
X150275714Y-137211666D01*
X150370952Y-137259285D01*
X150418571Y-137306904D01*
X150466190Y-137402142D01*
X150466190Y-137783095D01*
X149942380Y-136878333D02*
X149942380Y-136211666D01*
X150942380Y-136640238D01*
G04 #@! TO.C,R8*
X130883333Y-129382380D02*
X130550000Y-128906190D01*
X130311904Y-129382380D02*
X130311904Y-128382380D01*
X130692857Y-128382380D01*
X130788095Y-128430000D01*
X130835714Y-128477619D01*
X130883333Y-128572857D01*
X130883333Y-128715714D01*
X130835714Y-128810952D01*
X130788095Y-128858571D01*
X130692857Y-128906190D01*
X130311904Y-128906190D01*
X131454761Y-128810952D02*
X131359523Y-128763333D01*
X131311904Y-128715714D01*
X131264285Y-128620476D01*
X131264285Y-128572857D01*
X131311904Y-128477619D01*
X131359523Y-128430000D01*
X131454761Y-128382380D01*
X131645238Y-128382380D01*
X131740476Y-128430000D01*
X131788095Y-128477619D01*
X131835714Y-128572857D01*
X131835714Y-128620476D01*
X131788095Y-128715714D01*
X131740476Y-128763333D01*
X131645238Y-128810952D01*
X131454761Y-128810952D01*
X131359523Y-128858571D01*
X131311904Y-128906190D01*
X131264285Y-129001428D01*
X131264285Y-129191904D01*
X131311904Y-129287142D01*
X131359523Y-129334761D01*
X131454761Y-129382380D01*
X131645238Y-129382380D01*
X131740476Y-129334761D01*
X131788095Y-129287142D01*
X131835714Y-129191904D01*
X131835714Y-129001428D01*
X131788095Y-128906190D01*
X131740476Y-128858571D01*
X131645238Y-128810952D01*
G04 #@! TO.C,R9*
X148042380Y-98761666D02*
X147566190Y-99095000D01*
X148042380Y-99333095D02*
X147042380Y-99333095D01*
X147042380Y-98952142D01*
X147090000Y-98856904D01*
X147137619Y-98809285D01*
X147232857Y-98761666D01*
X147375714Y-98761666D01*
X147470952Y-98809285D01*
X147518571Y-98856904D01*
X147566190Y-98952142D01*
X147566190Y-99333095D01*
X148042380Y-98285476D02*
X148042380Y-98095000D01*
X147994761Y-97999761D01*
X147947142Y-97952142D01*
X147804285Y-97856904D01*
X147613809Y-97809285D01*
X147232857Y-97809285D01*
X147137619Y-97856904D01*
X147090000Y-97904523D01*
X147042380Y-97999761D01*
X147042380Y-98190238D01*
X147090000Y-98285476D01*
X147137619Y-98333095D01*
X147232857Y-98380714D01*
X147470952Y-98380714D01*
X147566190Y-98333095D01*
X147613809Y-98285476D01*
X147661428Y-98190238D01*
X147661428Y-97999761D01*
X147613809Y-97904523D01*
X147566190Y-97856904D01*
X147470952Y-97809285D01*
G04 #@! TO.C,R10*
X163922380Y-102842857D02*
X163446190Y-103176190D01*
X163922380Y-103414285D02*
X162922380Y-103414285D01*
X162922380Y-103033333D01*
X162970000Y-102938095D01*
X163017619Y-102890476D01*
X163112857Y-102842857D01*
X163255714Y-102842857D01*
X163350952Y-102890476D01*
X163398571Y-102938095D01*
X163446190Y-103033333D01*
X163446190Y-103414285D01*
X163922380Y-101890476D02*
X163922380Y-102461904D01*
X163922380Y-102176190D02*
X162922380Y-102176190D01*
X163065238Y-102271428D01*
X163160476Y-102366666D01*
X163208095Y-102461904D01*
X162922380Y-101271428D02*
X162922380Y-101176190D01*
X162970000Y-101080952D01*
X163017619Y-101033333D01*
X163112857Y-100985714D01*
X163303333Y-100938095D01*
X163541428Y-100938095D01*
X163731904Y-100985714D01*
X163827142Y-101033333D01*
X163874761Y-101080952D01*
X163922380Y-101176190D01*
X163922380Y-101271428D01*
X163874761Y-101366666D01*
X163827142Y-101414285D01*
X163731904Y-101461904D01*
X163541428Y-101509523D01*
X163303333Y-101509523D01*
X163112857Y-101461904D01*
X163017619Y-101414285D01*
X162970000Y-101366666D01*
X162922380Y-101271428D01*
G04 #@! TO.C,R11*
X162152380Y-105432857D02*
X161676190Y-105766190D01*
X162152380Y-106004285D02*
X161152380Y-106004285D01*
X161152380Y-105623333D01*
X161200000Y-105528095D01*
X161247619Y-105480476D01*
X161342857Y-105432857D01*
X161485714Y-105432857D01*
X161580952Y-105480476D01*
X161628571Y-105528095D01*
X161676190Y-105623333D01*
X161676190Y-106004285D01*
X162152380Y-104480476D02*
X162152380Y-105051904D01*
X162152380Y-104766190D02*
X161152380Y-104766190D01*
X161295238Y-104861428D01*
X161390476Y-104956666D01*
X161438095Y-105051904D01*
X162152380Y-103528095D02*
X162152380Y-104099523D01*
X162152380Y-103813809D02*
X161152380Y-103813809D01*
X161295238Y-103909047D01*
X161390476Y-104004285D01*
X161438095Y-104099523D01*
G04 #@! TO.C,R12*
X144837142Y-103832380D02*
X144503809Y-103356190D01*
X144265714Y-103832380D02*
X144265714Y-102832380D01*
X144646666Y-102832380D01*
X144741904Y-102880000D01*
X144789523Y-102927619D01*
X144837142Y-103022857D01*
X144837142Y-103165714D01*
X144789523Y-103260952D01*
X144741904Y-103308571D01*
X144646666Y-103356190D01*
X144265714Y-103356190D01*
X145789523Y-103832380D02*
X145218095Y-103832380D01*
X145503809Y-103832380D02*
X145503809Y-102832380D01*
X145408571Y-102975238D01*
X145313333Y-103070476D01*
X145218095Y-103118095D01*
X146170476Y-102927619D02*
X146218095Y-102880000D01*
X146313333Y-102832380D01*
X146551428Y-102832380D01*
X146646666Y-102880000D01*
X146694285Y-102927619D01*
X146741904Y-103022857D01*
X146741904Y-103118095D01*
X146694285Y-103260952D01*
X146122857Y-103832380D01*
X146741904Y-103832380D01*
G04 #@! TO.C,R13*
X141492380Y-102452857D02*
X141016190Y-102786190D01*
X141492380Y-103024285D02*
X140492380Y-103024285D01*
X140492380Y-102643333D01*
X140540000Y-102548095D01*
X140587619Y-102500476D01*
X140682857Y-102452857D01*
X140825714Y-102452857D01*
X140920952Y-102500476D01*
X140968571Y-102548095D01*
X141016190Y-102643333D01*
X141016190Y-103024285D01*
X141492380Y-101500476D02*
X141492380Y-102071904D01*
X141492380Y-101786190D02*
X140492380Y-101786190D01*
X140635238Y-101881428D01*
X140730476Y-101976666D01*
X140778095Y-102071904D01*
X140492380Y-101167142D02*
X140492380Y-100548095D01*
X140873333Y-100881428D01*
X140873333Y-100738571D01*
X140920952Y-100643333D01*
X140968571Y-100595714D01*
X141063809Y-100548095D01*
X141301904Y-100548095D01*
X141397142Y-100595714D01*
X141444761Y-100643333D01*
X141492380Y-100738571D01*
X141492380Y-101024285D01*
X141444761Y-101119523D01*
X141397142Y-101167142D01*
G04 #@! TO.C,R15*
X154612142Y-130422380D02*
X154278809Y-129946190D01*
X154040714Y-130422380D02*
X154040714Y-129422380D01*
X154421666Y-129422380D01*
X154516904Y-129470000D01*
X154564523Y-129517619D01*
X154612142Y-129612857D01*
X154612142Y-129755714D01*
X154564523Y-129850952D01*
X154516904Y-129898571D01*
X154421666Y-129946190D01*
X154040714Y-129946190D01*
X155564523Y-130422380D02*
X154993095Y-130422380D01*
X155278809Y-130422380D02*
X155278809Y-129422380D01*
X155183571Y-129565238D01*
X155088333Y-129660476D01*
X154993095Y-129708095D01*
X156469285Y-129422380D02*
X155993095Y-129422380D01*
X155945476Y-129898571D01*
X155993095Y-129850952D01*
X156088333Y-129803333D01*
X156326428Y-129803333D01*
X156421666Y-129850952D01*
X156469285Y-129898571D01*
X156516904Y-129993809D01*
X156516904Y-130231904D01*
X156469285Y-130327142D01*
X156421666Y-130374761D01*
X156326428Y-130422380D01*
X156088333Y-130422380D01*
X155993095Y-130374761D01*
X155945476Y-130327142D01*
G04 #@! TO.C,R16*
X164772380Y-126752857D02*
X164296190Y-127086190D01*
X164772380Y-127324285D02*
X163772380Y-127324285D01*
X163772380Y-126943333D01*
X163820000Y-126848095D01*
X163867619Y-126800476D01*
X163962857Y-126752857D01*
X164105714Y-126752857D01*
X164200952Y-126800476D01*
X164248571Y-126848095D01*
X164296190Y-126943333D01*
X164296190Y-127324285D01*
X164772380Y-125800476D02*
X164772380Y-126371904D01*
X164772380Y-126086190D02*
X163772380Y-126086190D01*
X163915238Y-126181428D01*
X164010476Y-126276666D01*
X164058095Y-126371904D01*
X163772380Y-124943333D02*
X163772380Y-125133809D01*
X163820000Y-125229047D01*
X163867619Y-125276666D01*
X164010476Y-125371904D01*
X164200952Y-125419523D01*
X164581904Y-125419523D01*
X164677142Y-125371904D01*
X164724761Y-125324285D01*
X164772380Y-125229047D01*
X164772380Y-125038571D01*
X164724761Y-124943333D01*
X164677142Y-124895714D01*
X164581904Y-124848095D01*
X164343809Y-124848095D01*
X164248571Y-124895714D01*
X164200952Y-124943333D01*
X164153333Y-125038571D01*
X164153333Y-125229047D01*
X164200952Y-125324285D01*
X164248571Y-125371904D01*
X164343809Y-125419523D01*
G04 #@! TO.C,R17*
X140027142Y-124852380D02*
X139693809Y-124376190D01*
X139455714Y-124852380D02*
X139455714Y-123852380D01*
X139836666Y-123852380D01*
X139931904Y-123900000D01*
X139979523Y-123947619D01*
X140027142Y-124042857D01*
X140027142Y-124185714D01*
X139979523Y-124280952D01*
X139931904Y-124328571D01*
X139836666Y-124376190D01*
X139455714Y-124376190D01*
X140979523Y-124852380D02*
X140408095Y-124852380D01*
X140693809Y-124852380D02*
X140693809Y-123852380D01*
X140598571Y-123995238D01*
X140503333Y-124090476D01*
X140408095Y-124138095D01*
X141312857Y-123852380D02*
X141979523Y-123852380D01*
X141550952Y-124852380D01*
G04 #@! TO.C,R18*
X141292380Y-128837857D02*
X140816190Y-129171190D01*
X141292380Y-129409285D02*
X140292380Y-129409285D01*
X140292380Y-129028333D01*
X140340000Y-128933095D01*
X140387619Y-128885476D01*
X140482857Y-128837857D01*
X140625714Y-128837857D01*
X140720952Y-128885476D01*
X140768571Y-128933095D01*
X140816190Y-129028333D01*
X140816190Y-129409285D01*
X141292380Y-127885476D02*
X141292380Y-128456904D01*
X141292380Y-128171190D02*
X140292380Y-128171190D01*
X140435238Y-128266428D01*
X140530476Y-128361666D01*
X140578095Y-128456904D01*
X140720952Y-127314047D02*
X140673333Y-127409285D01*
X140625714Y-127456904D01*
X140530476Y-127504523D01*
X140482857Y-127504523D01*
X140387619Y-127456904D01*
X140340000Y-127409285D01*
X140292380Y-127314047D01*
X140292380Y-127123571D01*
X140340000Y-127028333D01*
X140387619Y-126980714D01*
X140482857Y-126933095D01*
X140530476Y-126933095D01*
X140625714Y-126980714D01*
X140673333Y-127028333D01*
X140720952Y-127123571D01*
X140720952Y-127314047D01*
X140768571Y-127409285D01*
X140816190Y-127456904D01*
X140911428Y-127504523D01*
X141101904Y-127504523D01*
X141197142Y-127456904D01*
X141244761Y-127409285D01*
X141292380Y-127314047D01*
X141292380Y-127123571D01*
X141244761Y-127028333D01*
X141197142Y-126980714D01*
X141101904Y-126933095D01*
X140911428Y-126933095D01*
X140816190Y-126980714D01*
X140768571Y-127028333D01*
X140720952Y-127123571D01*
G04 #@! TO.C,R19*
X146967142Y-105292380D02*
X146633809Y-104816190D01*
X146395714Y-105292380D02*
X146395714Y-104292380D01*
X146776666Y-104292380D01*
X146871904Y-104340000D01*
X146919523Y-104387619D01*
X146967142Y-104482857D01*
X146967142Y-104625714D01*
X146919523Y-104720952D01*
X146871904Y-104768571D01*
X146776666Y-104816190D01*
X146395714Y-104816190D01*
X147919523Y-105292380D02*
X147348095Y-105292380D01*
X147633809Y-105292380D02*
X147633809Y-104292380D01*
X147538571Y-104435238D01*
X147443333Y-104530476D01*
X147348095Y-104578095D01*
X148395714Y-105292380D02*
X148586190Y-105292380D01*
X148681428Y-105244761D01*
X148729047Y-105197142D01*
X148824285Y-105054285D01*
X148871904Y-104863809D01*
X148871904Y-104482857D01*
X148824285Y-104387619D01*
X148776666Y-104340000D01*
X148681428Y-104292380D01*
X148490952Y-104292380D01*
X148395714Y-104340000D01*
X148348095Y-104387619D01*
X148300476Y-104482857D01*
X148300476Y-104720952D01*
X148348095Y-104816190D01*
X148395714Y-104863809D01*
X148490952Y-104911428D01*
X148681428Y-104911428D01*
X148776666Y-104863809D01*
X148824285Y-104816190D01*
X148871904Y-104720952D01*
G04 #@! TO.C,R20*
X147702380Y-108712857D02*
X147226190Y-109046190D01*
X147702380Y-109284285D02*
X146702380Y-109284285D01*
X146702380Y-108903333D01*
X146750000Y-108808095D01*
X146797619Y-108760476D01*
X146892857Y-108712857D01*
X147035714Y-108712857D01*
X147130952Y-108760476D01*
X147178571Y-108808095D01*
X147226190Y-108903333D01*
X147226190Y-109284285D01*
X146797619Y-108331904D02*
X146750000Y-108284285D01*
X146702380Y-108189047D01*
X146702380Y-107950952D01*
X146750000Y-107855714D01*
X146797619Y-107808095D01*
X146892857Y-107760476D01*
X146988095Y-107760476D01*
X147130952Y-107808095D01*
X147702380Y-108379523D01*
X147702380Y-107760476D01*
X146702380Y-107141428D02*
X146702380Y-107046190D01*
X146750000Y-106950952D01*
X146797619Y-106903333D01*
X146892857Y-106855714D01*
X147083333Y-106808095D01*
X147321428Y-106808095D01*
X147511904Y-106855714D01*
X147607142Y-106903333D01*
X147654761Y-106950952D01*
X147702380Y-107046190D01*
X147702380Y-107141428D01*
X147654761Y-107236666D01*
X147607142Y-107284285D01*
X147511904Y-107331904D01*
X147321428Y-107379523D01*
X147083333Y-107379523D01*
X146892857Y-107331904D01*
X146797619Y-107284285D01*
X146750000Y-107236666D01*
X146702380Y-107141428D01*
G04 #@! TO.C,R21*
X155542380Y-97402857D02*
X155066190Y-97736190D01*
X155542380Y-97974285D02*
X154542380Y-97974285D01*
X154542380Y-97593333D01*
X154590000Y-97498095D01*
X154637619Y-97450476D01*
X154732857Y-97402857D01*
X154875714Y-97402857D01*
X154970952Y-97450476D01*
X155018571Y-97498095D01*
X155066190Y-97593333D01*
X155066190Y-97974285D01*
X154637619Y-97021904D02*
X154590000Y-96974285D01*
X154542380Y-96879047D01*
X154542380Y-96640952D01*
X154590000Y-96545714D01*
X154637619Y-96498095D01*
X154732857Y-96450476D01*
X154828095Y-96450476D01*
X154970952Y-96498095D01*
X155542380Y-97069523D01*
X155542380Y-96450476D01*
X155542380Y-95498095D02*
X155542380Y-96069523D01*
X155542380Y-95783809D02*
X154542380Y-95783809D01*
X154685238Y-95879047D01*
X154780476Y-95974285D01*
X154828095Y-96069523D01*
G04 #@! TO.C,R22*
X158192380Y-105467857D02*
X157716190Y-105801190D01*
X158192380Y-106039285D02*
X157192380Y-106039285D01*
X157192380Y-105658333D01*
X157240000Y-105563095D01*
X157287619Y-105515476D01*
X157382857Y-105467857D01*
X157525714Y-105467857D01*
X157620952Y-105515476D01*
X157668571Y-105563095D01*
X157716190Y-105658333D01*
X157716190Y-106039285D01*
X157287619Y-105086904D02*
X157240000Y-105039285D01*
X157192380Y-104944047D01*
X157192380Y-104705952D01*
X157240000Y-104610714D01*
X157287619Y-104563095D01*
X157382857Y-104515476D01*
X157478095Y-104515476D01*
X157620952Y-104563095D01*
X158192380Y-105134523D01*
X158192380Y-104515476D01*
X157287619Y-104134523D02*
X157240000Y-104086904D01*
X157192380Y-103991666D01*
X157192380Y-103753571D01*
X157240000Y-103658333D01*
X157287619Y-103610714D01*
X157382857Y-103563095D01*
X157478095Y-103563095D01*
X157620952Y-103610714D01*
X158192380Y-104182142D01*
X158192380Y-103563095D01*
G04 #@! TO.C,R23*
X158192380Y-107567857D02*
X157716190Y-107901190D01*
X158192380Y-108139285D02*
X157192380Y-108139285D01*
X157192380Y-107758333D01*
X157240000Y-107663095D01*
X157287619Y-107615476D01*
X157382857Y-107567857D01*
X157525714Y-107567857D01*
X157620952Y-107615476D01*
X157668571Y-107663095D01*
X157716190Y-107758333D01*
X157716190Y-108139285D01*
X157287619Y-107186904D02*
X157240000Y-107139285D01*
X157192380Y-107044047D01*
X157192380Y-106805952D01*
X157240000Y-106710714D01*
X157287619Y-106663095D01*
X157382857Y-106615476D01*
X157478095Y-106615476D01*
X157620952Y-106663095D01*
X158192380Y-107234523D01*
X158192380Y-106615476D01*
X157192380Y-106282142D02*
X157192380Y-105663095D01*
X157573333Y-105996428D01*
X157573333Y-105853571D01*
X157620952Y-105758333D01*
X157668571Y-105710714D01*
X157763809Y-105663095D01*
X158001904Y-105663095D01*
X158097142Y-105710714D01*
X158144761Y-105758333D01*
X158192380Y-105853571D01*
X158192380Y-106139285D01*
X158144761Y-106234523D01*
X158097142Y-106282142D01*
G04 #@! TO.C,R24*
X143047142Y-106312380D02*
X142713809Y-105836190D01*
X142475714Y-106312380D02*
X142475714Y-105312380D01*
X142856666Y-105312380D01*
X142951904Y-105360000D01*
X142999523Y-105407619D01*
X143047142Y-105502857D01*
X143047142Y-105645714D01*
X142999523Y-105740952D01*
X142951904Y-105788571D01*
X142856666Y-105836190D01*
X142475714Y-105836190D01*
X143428095Y-105407619D02*
X143475714Y-105360000D01*
X143570952Y-105312380D01*
X143809047Y-105312380D01*
X143904285Y-105360000D01*
X143951904Y-105407619D01*
X143999523Y-105502857D01*
X143999523Y-105598095D01*
X143951904Y-105740952D01*
X143380476Y-106312380D01*
X143999523Y-106312380D01*
X144856666Y-105645714D02*
X144856666Y-106312380D01*
X144618571Y-105264761D02*
X144380476Y-105979047D01*
X144999523Y-105979047D01*
G04 #@! TO.C,R25*
X165184380Y-97700857D02*
X164708190Y-98034190D01*
X165184380Y-98272285D02*
X164184380Y-98272285D01*
X164184380Y-97891333D01*
X164232000Y-97796095D01*
X164279619Y-97748476D01*
X164374857Y-97700857D01*
X164517714Y-97700857D01*
X164612952Y-97748476D01*
X164660571Y-97796095D01*
X164708190Y-97891333D01*
X164708190Y-98272285D01*
X164279619Y-97319904D02*
X164232000Y-97272285D01*
X164184380Y-97177047D01*
X164184380Y-96938952D01*
X164232000Y-96843714D01*
X164279619Y-96796095D01*
X164374857Y-96748476D01*
X164470095Y-96748476D01*
X164612952Y-96796095D01*
X165184380Y-97367523D01*
X165184380Y-96748476D01*
X164184380Y-95843714D02*
X164184380Y-96319904D01*
X164660571Y-96367523D01*
X164612952Y-96319904D01*
X164565333Y-96224666D01*
X164565333Y-95986571D01*
X164612952Y-95891333D01*
X164660571Y-95843714D01*
X164755809Y-95796095D01*
X164993904Y-95796095D01*
X165089142Y-95843714D01*
X165136761Y-95891333D01*
X165184380Y-95986571D01*
X165184380Y-96224666D01*
X165136761Y-96319904D01*
X165089142Y-96367523D01*
G04 #@! TO.C,R26*
X165232380Y-100502857D02*
X164756190Y-100836190D01*
X165232380Y-101074285D02*
X164232380Y-101074285D01*
X164232380Y-100693333D01*
X164280000Y-100598095D01*
X164327619Y-100550476D01*
X164422857Y-100502857D01*
X164565714Y-100502857D01*
X164660952Y-100550476D01*
X164708571Y-100598095D01*
X164756190Y-100693333D01*
X164756190Y-101074285D01*
X164327619Y-100121904D02*
X164280000Y-100074285D01*
X164232380Y-99979047D01*
X164232380Y-99740952D01*
X164280000Y-99645714D01*
X164327619Y-99598095D01*
X164422857Y-99550476D01*
X164518095Y-99550476D01*
X164660952Y-99598095D01*
X165232380Y-100169523D01*
X165232380Y-99550476D01*
X164232380Y-98693333D02*
X164232380Y-98883809D01*
X164280000Y-98979047D01*
X164327619Y-99026666D01*
X164470476Y-99121904D01*
X164660952Y-99169523D01*
X165041904Y-99169523D01*
X165137142Y-99121904D01*
X165184761Y-99074285D01*
X165232380Y-98979047D01*
X165232380Y-98788571D01*
X165184761Y-98693333D01*
X165137142Y-98645714D01*
X165041904Y-98598095D01*
X164803809Y-98598095D01*
X164708571Y-98645714D01*
X164660952Y-98693333D01*
X164613333Y-98788571D01*
X164613333Y-98979047D01*
X164660952Y-99074285D01*
X164708571Y-99121904D01*
X164803809Y-99169523D01*
G04 #@! TO.C,R27*
X149892380Y-116432857D02*
X149416190Y-116766190D01*
X149892380Y-117004285D02*
X148892380Y-117004285D01*
X148892380Y-116623333D01*
X148940000Y-116528095D01*
X148987619Y-116480476D01*
X149082857Y-116432857D01*
X149225714Y-116432857D01*
X149320952Y-116480476D01*
X149368571Y-116528095D01*
X149416190Y-116623333D01*
X149416190Y-117004285D01*
X148987619Y-116051904D02*
X148940000Y-116004285D01*
X148892380Y-115909047D01*
X148892380Y-115670952D01*
X148940000Y-115575714D01*
X148987619Y-115528095D01*
X149082857Y-115480476D01*
X149178095Y-115480476D01*
X149320952Y-115528095D01*
X149892380Y-116099523D01*
X149892380Y-115480476D01*
X148892380Y-115147142D02*
X148892380Y-114480476D01*
X149892380Y-114909047D01*
G04 #@! TO.C,R28*
X142162380Y-115812857D02*
X141686190Y-116146190D01*
X142162380Y-116384285D02*
X141162380Y-116384285D01*
X141162380Y-116003333D01*
X141210000Y-115908095D01*
X141257619Y-115860476D01*
X141352857Y-115812857D01*
X141495714Y-115812857D01*
X141590952Y-115860476D01*
X141638571Y-115908095D01*
X141686190Y-116003333D01*
X141686190Y-116384285D01*
X141257619Y-115431904D02*
X141210000Y-115384285D01*
X141162380Y-115289047D01*
X141162380Y-115050952D01*
X141210000Y-114955714D01*
X141257619Y-114908095D01*
X141352857Y-114860476D01*
X141448095Y-114860476D01*
X141590952Y-114908095D01*
X142162380Y-115479523D01*
X142162380Y-114860476D01*
X141590952Y-114289047D02*
X141543333Y-114384285D01*
X141495714Y-114431904D01*
X141400476Y-114479523D01*
X141352857Y-114479523D01*
X141257619Y-114431904D01*
X141210000Y-114384285D01*
X141162380Y-114289047D01*
X141162380Y-114098571D01*
X141210000Y-114003333D01*
X141257619Y-113955714D01*
X141352857Y-113908095D01*
X141400476Y-113908095D01*
X141495714Y-113955714D01*
X141543333Y-114003333D01*
X141590952Y-114098571D01*
X141590952Y-114289047D01*
X141638571Y-114384285D01*
X141686190Y-114431904D01*
X141781428Y-114479523D01*
X141971904Y-114479523D01*
X142067142Y-114431904D01*
X142114761Y-114384285D01*
X142162380Y-114289047D01*
X142162380Y-114098571D01*
X142114761Y-114003333D01*
X142067142Y-113955714D01*
X141971904Y-113908095D01*
X141781428Y-113908095D01*
X141686190Y-113955714D01*
X141638571Y-114003333D01*
X141590952Y-114098571D01*
G04 #@! TO.C,R29*
X140542380Y-117232857D02*
X140066190Y-117566190D01*
X140542380Y-117804285D02*
X139542380Y-117804285D01*
X139542380Y-117423333D01*
X139590000Y-117328095D01*
X139637619Y-117280476D01*
X139732857Y-117232857D01*
X139875714Y-117232857D01*
X139970952Y-117280476D01*
X140018571Y-117328095D01*
X140066190Y-117423333D01*
X140066190Y-117804285D01*
X139637619Y-116851904D02*
X139590000Y-116804285D01*
X139542380Y-116709047D01*
X139542380Y-116470952D01*
X139590000Y-116375714D01*
X139637619Y-116328095D01*
X139732857Y-116280476D01*
X139828095Y-116280476D01*
X139970952Y-116328095D01*
X140542380Y-116899523D01*
X140542380Y-116280476D01*
X140542380Y-115804285D02*
X140542380Y-115613809D01*
X140494761Y-115518571D01*
X140447142Y-115470952D01*
X140304285Y-115375714D01*
X140113809Y-115328095D01*
X139732857Y-115328095D01*
X139637619Y-115375714D01*
X139590000Y-115423333D01*
X139542380Y-115518571D01*
X139542380Y-115709047D01*
X139590000Y-115804285D01*
X139637619Y-115851904D01*
X139732857Y-115899523D01*
X139970952Y-115899523D01*
X140066190Y-115851904D01*
X140113809Y-115804285D01*
X140161428Y-115709047D01*
X140161428Y-115518571D01*
X140113809Y-115423333D01*
X140066190Y-115375714D01*
X139970952Y-115328095D01*
G04 #@! TO.C,R31*
X146647142Y-85722380D02*
X146313809Y-85246190D01*
X146075714Y-85722380D02*
X146075714Y-84722380D01*
X146456666Y-84722380D01*
X146551904Y-84770000D01*
X146599523Y-84817619D01*
X146647142Y-84912857D01*
X146647142Y-85055714D01*
X146599523Y-85150952D01*
X146551904Y-85198571D01*
X146456666Y-85246190D01*
X146075714Y-85246190D01*
X146980476Y-84722380D02*
X147599523Y-84722380D01*
X147266190Y-85103333D01*
X147409047Y-85103333D01*
X147504285Y-85150952D01*
X147551904Y-85198571D01*
X147599523Y-85293809D01*
X147599523Y-85531904D01*
X147551904Y-85627142D01*
X147504285Y-85674761D01*
X147409047Y-85722380D01*
X147123333Y-85722380D01*
X147028095Y-85674761D01*
X146980476Y-85627142D01*
X148551904Y-85722380D02*
X147980476Y-85722380D01*
X148266190Y-85722380D02*
X148266190Y-84722380D01*
X148170952Y-84865238D01*
X148075714Y-84960476D01*
X147980476Y-85008095D01*
G04 #@! TO.C,R32*
X154897142Y-85702380D02*
X154563809Y-85226190D01*
X154325714Y-85702380D02*
X154325714Y-84702380D01*
X154706666Y-84702380D01*
X154801904Y-84750000D01*
X154849523Y-84797619D01*
X154897142Y-84892857D01*
X154897142Y-85035714D01*
X154849523Y-85130952D01*
X154801904Y-85178571D01*
X154706666Y-85226190D01*
X154325714Y-85226190D01*
X155230476Y-84702380D02*
X155849523Y-84702380D01*
X155516190Y-85083333D01*
X155659047Y-85083333D01*
X155754285Y-85130952D01*
X155801904Y-85178571D01*
X155849523Y-85273809D01*
X155849523Y-85511904D01*
X155801904Y-85607142D01*
X155754285Y-85654761D01*
X155659047Y-85702380D01*
X155373333Y-85702380D01*
X155278095Y-85654761D01*
X155230476Y-85607142D01*
X156230476Y-84797619D02*
X156278095Y-84750000D01*
X156373333Y-84702380D01*
X156611428Y-84702380D01*
X156706666Y-84750000D01*
X156754285Y-84797619D01*
X156801904Y-84892857D01*
X156801904Y-84988095D01*
X156754285Y-85130952D01*
X156182857Y-85702380D01*
X156801904Y-85702380D01*
G04 #@! TO.C,*
G04 #@! TO.C,U10*
X142272380Y-103648095D02*
X143081904Y-103648095D01*
X143177142Y-103600476D01*
X143224761Y-103552857D01*
X143272380Y-103457619D01*
X143272380Y-103267142D01*
X143224761Y-103171904D01*
X143177142Y-103124285D01*
X143081904Y-103076666D01*
X142272380Y-103076666D01*
X143272380Y-102076666D02*
X143272380Y-102648095D01*
X143272380Y-102362380D02*
X142272380Y-102362380D01*
X142415238Y-102457619D01*
X142510476Y-102552857D01*
X142558095Y-102648095D01*
X142272380Y-101457619D02*
X142272380Y-101362380D01*
X142320000Y-101267142D01*
X142367619Y-101219523D01*
X142462857Y-101171904D01*
X142653333Y-101124285D01*
X142891428Y-101124285D01*
X143081904Y-101171904D01*
X143177142Y-101219523D01*
X143224761Y-101267142D01*
X143272380Y-101362380D01*
X143272380Y-101457619D01*
X143224761Y-101552857D01*
X143177142Y-101600476D01*
X143081904Y-101648095D01*
X142891428Y-101695714D01*
X142653333Y-101695714D01*
X142462857Y-101648095D01*
X142367619Y-101600476D01*
X142320000Y-101552857D01*
X142272380Y-101457619D01*
G04 #@! TO.C,U11*
X157402380Y-127848095D02*
X158211904Y-127848095D01*
X158307142Y-127800476D01*
X158354761Y-127752857D01*
X158402380Y-127657619D01*
X158402380Y-127467142D01*
X158354761Y-127371904D01*
X158307142Y-127324285D01*
X158211904Y-127276666D01*
X157402380Y-127276666D01*
X158402380Y-126276666D02*
X158402380Y-126848095D01*
X158402380Y-126562380D02*
X157402380Y-126562380D01*
X157545238Y-126657619D01*
X157640476Y-126752857D01*
X157688095Y-126848095D01*
X158402380Y-125324285D02*
X158402380Y-125895714D01*
X158402380Y-125610000D02*
X157402380Y-125610000D01*
X157545238Y-125705238D01*
X157640476Y-125800476D01*
X157688095Y-125895714D01*
G04 #@! TO.C,U12*
X144132380Y-127528095D02*
X144941904Y-127528095D01*
X145037142Y-127480476D01*
X145084761Y-127432857D01*
X145132380Y-127337619D01*
X145132380Y-127147142D01*
X145084761Y-127051904D01*
X145037142Y-127004285D01*
X144941904Y-126956666D01*
X144132380Y-126956666D01*
X145132380Y-125956666D02*
X145132380Y-126528095D01*
X145132380Y-126242380D02*
X144132380Y-126242380D01*
X144275238Y-126337619D01*
X144370476Y-126432857D01*
X144418095Y-126528095D01*
X144227619Y-125575714D02*
X144180000Y-125528095D01*
X144132380Y-125432857D01*
X144132380Y-125194761D01*
X144180000Y-125099523D01*
X144227619Y-125051904D01*
X144322857Y-125004285D01*
X144418095Y-125004285D01*
X144560952Y-125051904D01*
X145132380Y-125623333D01*
X145132380Y-125004285D01*
G04 #@! TO.C,*
G04 #@! TO.C,L1*
X145183333Y-122922380D02*
X144707142Y-122922380D01*
X144707142Y-121922380D01*
X146040476Y-122922380D02*
X145469047Y-122922380D01*
X145754761Y-122922380D02*
X145754761Y-121922380D01*
X145659523Y-122065238D01*
X145564285Y-122160476D01*
X145469047Y-122208095D01*
G04 #@! TO.C,L2*
X157013333Y-122782380D02*
X156537142Y-122782380D01*
X156537142Y-121782380D01*
X157299047Y-121877619D02*
X157346666Y-121830000D01*
X157441904Y-121782380D01*
X157680000Y-121782380D01*
X157775238Y-121830000D01*
X157822857Y-121877619D01*
X157870476Y-121972857D01*
X157870476Y-122068095D01*
X157822857Y-122210952D01*
X157251428Y-122782380D01*
X157870476Y-122782380D01*
G04 #@! TO.C,U9*
X159042380Y-102781904D02*
X159851904Y-102781904D01*
X159947142Y-102734285D01*
X159994761Y-102686666D01*
X160042380Y-102591428D01*
X160042380Y-102400952D01*
X159994761Y-102305714D01*
X159947142Y-102258095D01*
X159851904Y-102210476D01*
X159042380Y-102210476D01*
X160042380Y-101686666D02*
X160042380Y-101496190D01*
X159994761Y-101400952D01*
X159947142Y-101353333D01*
X159804285Y-101258095D01*
X159613809Y-101210476D01*
X159232857Y-101210476D01*
X159137619Y-101258095D01*
X159090000Y-101305714D01*
X159042380Y-101400952D01*
X159042380Y-101591428D01*
X159090000Y-101686666D01*
X159137619Y-101734285D01*
X159232857Y-101781904D01*
X159470952Y-101781904D01*
X159566190Y-101734285D01*
X159613809Y-101686666D01*
X159661428Y-101591428D01*
X159661428Y-101400952D01*
X159613809Y-101305714D01*
X159566190Y-101258095D01*
X159470952Y-101210476D01*
G04 #@! TO.C,*
G04 #@! TD*
M02*
