G04 #@! TF.GenerationSoftware,KiCad,Pcbnew,(5.0.1-3-g963ef8bb5)*
G04 #@! TF.CreationDate,2019-05-10T02:41:28+09:00*
G04 #@! TF.ProjectId,mouse_v2,6D6F7573655F76322E6B696361645F70,rev?*
G04 #@! TF.SameCoordinates,Original*
G04 #@! TF.FileFunction,Profile,NP*
%FSLAX46Y46*%
G04 Gerber Fmt 4.6, Leading zero omitted, Abs format (unit mm)*
G04 Created by KiCad (PCBNEW (5.0.1-3-g963ef8bb5)) date 2019年05月10日 金曜日 02:41:28*
%MOMM*%
%LPD*%
G01*
G04 APERTURE LIST*
%ADD10C,0.200000*%
%ADD11C,0.150000*%
G04 APERTURE END LIST*
D10*
X172470000Y-126810000D02*
X172470000Y-122810000D01*
X135020000Y-127860000D02*
G75*
G02X134020000Y-126860000I0J1000000D01*
G01*
X162720000Y-132110000D02*
X162620000Y-132110000D01*
X144420000Y-134010000D02*
X144470000Y-134010000D01*
D11*
X160020000Y-134310000D02*
X154270000Y-134310000D01*
X164270000Y-134310000D02*
X162620000Y-134310000D01*
X160020000Y-132110000D02*
X154520000Y-132110000D01*
X162620000Y-132110000D02*
X162620000Y-134310000D01*
X160020000Y-132110000D02*
X160020000Y-134310000D01*
X164270000Y-144310000D02*
X164270000Y-134310000D01*
X154270000Y-144310000D02*
X164270000Y-144310000D01*
X154270000Y-134310000D02*
X154270000Y-144310000D01*
X144520000Y-132110000D02*
X139820000Y-132110000D01*
X146220000Y-132110000D02*
X147970000Y-132110000D01*
X148420000Y-134010000D02*
X146220000Y-134010000D01*
X146220000Y-132110000D02*
X146220000Y-134010000D01*
X144520000Y-134010000D02*
X144520000Y-132110000D01*
X135470000Y-122910000D02*
X135470000Y-121660000D01*
X135470000Y-125360000D02*
X135470000Y-124310000D01*
X134020000Y-126860000D02*
X134020000Y-124310000D01*
X134020000Y-124310000D02*
X135470000Y-124310000D01*
X134020000Y-122910000D02*
X135470000Y-122910000D01*
X167070000Y-123210000D02*
X167070000Y-121660000D01*
X168470000Y-123210000D02*
X168470000Y-122810000D01*
X168470000Y-126810000D02*
X168470000Y-124660000D01*
X167070000Y-125360000D02*
X167070000Y-124660000D01*
X168470000Y-123210000D02*
X167070000Y-123210000D01*
X168470000Y-124660000D02*
X167070000Y-124660000D01*
X139270000Y-111010000D02*
X139270000Y-104110000D01*
X139270000Y-115110000D02*
X139270000Y-112760000D01*
X136870000Y-111010000D02*
X136870000Y-109910000D01*
X136870000Y-113910000D02*
X136870000Y-112760000D01*
X139270000Y-111010000D02*
X136870000Y-111010000D01*
X136870000Y-112760000D02*
X139270000Y-112760000D01*
X163270000Y-111610000D02*
X163270000Y-104110000D01*
X163270000Y-115060000D02*
X163270000Y-113110000D01*
X165270000Y-111610000D02*
X165270000Y-110310000D01*
X165270000Y-114310000D02*
X165270000Y-113110000D01*
X165270000Y-113110000D02*
X163270000Y-113110000D01*
X165270000Y-111610000D02*
X163270000Y-111610000D01*
D10*
X166970000Y-128310000D02*
G75*
G02X167470000Y-127810000I500000J0D01*
G01*
X168470000Y-126810000D02*
G75*
G02X167470000Y-127810000I-1000000J0D01*
G01*
X171970000Y-122310000D02*
G75*
G02X172470000Y-122810000I0J-500000D01*
G01*
X166970000Y-130510000D02*
X167970000Y-130510000D01*
X166970000Y-130510000D02*
X166970000Y-128310000D01*
X167970000Y-129810000D02*
X172970000Y-129810000D01*
X167970000Y-129810000D02*
X167970000Y-130510000D01*
X168970000Y-122310000D02*
X171970000Y-122310000D01*
X173470000Y-127810000D02*
G75*
G02X172470000Y-126810000I0J1000000D01*
G01*
X173470000Y-127810000D02*
G75*
G02X173970000Y-128310000I0J-500000D01*
G01*
X173970000Y-130510000D02*
X173970000Y-128310000D01*
X168470000Y-122810000D02*
G75*
G02X168970000Y-122310000I500000J0D01*
G01*
X173970000Y-130510000D02*
X172970000Y-130510000D01*
X172970000Y-129810000D02*
X172970000Y-130510000D01*
X143920000Y-134510000D02*
G75*
G02X144420000Y-134010000I500000J0D01*
G01*
X149420000Y-133010000D02*
G75*
G02X148420000Y-134010000I-1000000J0D01*
G01*
X151420000Y-138510000D02*
X152120000Y-138510000D01*
X149420000Y-133010000D02*
G75*
G02X149920000Y-132510000I500000J0D01*
G01*
X152120000Y-132510000D02*
X149920000Y-132510000D01*
X152120000Y-132510000D02*
X152120000Y-133510000D01*
X151420000Y-133510000D02*
X152120000Y-133510000D01*
X151420000Y-138510000D02*
X151420000Y-133510000D01*
X152120000Y-139510000D02*
X149920000Y-139510000D01*
X152120000Y-139510000D02*
X152120000Y-138510000D01*
X148420000Y-138010000D02*
G75*
G02X149420000Y-139010000I0J-1000000D01*
G01*
X144420000Y-138010000D02*
G75*
G02X143920000Y-137510000I0J500000D01*
G01*
X143920000Y-137510000D02*
X143920000Y-134510000D01*
X149920000Y-139510000D02*
G75*
G02X149420000Y-139010000I0J500000D01*
G01*
X148420000Y-138010000D02*
X144420000Y-138010000D01*
X135520000Y-130560000D02*
X134520000Y-130560000D01*
X129520000Y-129860000D02*
X134520000Y-129860000D01*
X135020000Y-127860000D02*
G75*
G02X135520000Y-128360000I0J-500000D01*
G01*
X130020000Y-122860000D02*
G75*
G02X130520000Y-122360000I500000J0D01*
G01*
X129520000Y-129860000D02*
X129520000Y-130560000D01*
X133520000Y-122360000D02*
G75*
G02X134020000Y-122860000I0J-500000D01*
G01*
X130520000Y-122360000D02*
X133520000Y-122360000D01*
X128520000Y-130560000D02*
X129520000Y-130560000D01*
X128520000Y-130560000D02*
X128520000Y-128360000D01*
X128520000Y-128360000D02*
G75*
G02X129020000Y-127860000I500000J0D01*
G01*
X134520000Y-129860000D02*
X134520000Y-130560000D01*
X130020000Y-126860000D02*
X130020000Y-122860000D01*
X135520000Y-130560000D02*
X135520000Y-128360000D01*
X130020000Y-126860000D02*
G75*
G02X129020000Y-127860000I-1000000J0D01*
G01*
X174270000Y-114810000D02*
X174270000Y-115810000D01*
X174270000Y-115810000D02*
X172270000Y-115810000D01*
X172270000Y-115810000D02*
G75*
G02X171770000Y-115310000I0J500000D01*
G01*
X171270000Y-114810000D02*
G75*
G02X171770000Y-115310000I0J-500000D01*
G01*
X171270000Y-114810000D02*
X165770000Y-114810000D01*
X165770000Y-114810000D02*
G75*
G02X165270000Y-114310000I0J500000D01*
G01*
X165270000Y-110310000D02*
G75*
G02X165770000Y-109810000I500000J0D01*
G01*
X171270000Y-109810000D02*
X165770000Y-109810000D01*
X171770000Y-109310000D02*
G75*
G02X171270000Y-109810000I-500000J0D01*
G01*
X171770000Y-109310000D02*
G75*
G02X172270000Y-108810000I500000J0D01*
G01*
X174270000Y-108810000D02*
X172270000Y-108810000D01*
X174270000Y-109810000D02*
X174270000Y-108810000D01*
X174270000Y-109810000D02*
X173570000Y-109810000D01*
X173570000Y-114810000D02*
X173570000Y-109810000D01*
X174270000Y-114810000D02*
X173570000Y-114810000D01*
X127870000Y-109410000D02*
X127870000Y-108410000D01*
X127870000Y-108410000D02*
X129870000Y-108410000D01*
X129870000Y-108410000D02*
G75*
G02X130370000Y-108910000I0J-500000D01*
G01*
X130870000Y-109410000D02*
G75*
G02X130370000Y-108910000I0J500000D01*
G01*
X130870000Y-109410000D02*
X136370000Y-109410000D01*
X136370000Y-109410000D02*
G75*
G02X136870000Y-109910000I0J-500000D01*
G01*
X136870000Y-113910000D02*
G75*
G02X136370000Y-114410000I-500000J0D01*
G01*
X130870000Y-114410000D02*
X136370000Y-114410000D01*
X130370000Y-114910000D02*
G75*
G02X130870000Y-114410000I500000J0D01*
G01*
X130370000Y-114910000D02*
G75*
G02X129870000Y-115410000I-500000J0D01*
G01*
X127870000Y-115410000D02*
X129870000Y-115410000D01*
X127870000Y-114410000D02*
X127870000Y-115410000D01*
X127870000Y-114410000D02*
X128570000Y-114410000D01*
X128570000Y-109410000D02*
X128570000Y-114410000D01*
X127870000Y-109410000D02*
X128570000Y-109410000D01*
X133420000Y-117930000D02*
X133240000Y-118020000D01*
X169280000Y-118020000D02*
X169130000Y-117930000D01*
X135596904Y-125890000D02*
X138968345Y-131611488D01*
X133458452Y-121155041D02*
G75*
G02X132958452Y-120655041I0J500000D01*
G01*
X133458452Y-121155041D02*
X134958452Y-121155041D01*
X135596904Y-125890000D02*
G75*
G02X135458452Y-125382324I861548J507676D01*
G01*
X148890598Y-130367004D02*
X148354246Y-131840620D01*
X132958452Y-118468436D02*
G75*
G02X133240507Y-118018436I500000J0D01*
G01*
X163548559Y-131611488D02*
G75*
G02X162687011Y-132103812I-861548J507676D01*
G01*
X139829893Y-132103812D02*
G75*
G02X138968345Y-131611488I0J1000000D01*
G01*
X154538535Y-132103812D02*
G75*
G02X154162658Y-131840620I0J400000D01*
G01*
X153626306Y-130367004D02*
X154162658Y-131840620D01*
X167058452Y-121655041D02*
G75*
G02X167558452Y-121155041I500000J0D01*
G01*
X153250429Y-130103812D02*
G75*
G02X153626306Y-130367004I0J-400000D01*
G01*
X149266475Y-130103812D02*
X153250429Y-130103812D01*
X169276397Y-118018436D02*
G75*
G02X169558452Y-118468436I-217945J-450000D01*
G01*
X132958452Y-118468436D02*
X132958452Y-120655041D01*
X148354246Y-131840620D02*
G75*
G02X147978369Y-132103812I-375877J136808D01*
G01*
X148890598Y-130367004D02*
G75*
G02X149266475Y-130103812I375877J-136808D01*
G01*
X169558452Y-118468436D02*
X169558452Y-120655041D01*
X169558452Y-120655041D02*
G75*
G02X169058452Y-121155041I-500000J0D01*
G01*
X169058452Y-121155041D02*
X167558452Y-121155041D01*
X134958452Y-121155041D02*
G75*
G02X135458452Y-121655041I0J-500000D01*
G01*
X167058452Y-125382324D02*
G75*
G02X166920000Y-125890000I-1000000J0D01*
G01*
X166920000Y-125890000D02*
X163548559Y-131611488D01*
X139272055Y-115091229D02*
X133410154Y-117930277D01*
X137919234Y-90825354D02*
G75*
G02X138735552Y-89867017I2250000J-1089725D01*
G01*
X138735552Y-89867017D02*
X150698582Y-81492671D01*
X150698583Y-81492670D02*
G75*
G02X151845528Y-81492671I573472J-819225D01*
G01*
X163808558Y-89867017D02*
X151845528Y-81492671D01*
X163808558Y-89867017D02*
G75*
G02X164624876Y-90825354I-1433682J-2048062D01*
G01*
X169354110Y-100590000D02*
X164624876Y-90825354D01*
X169354110Y-100590000D02*
G75*
G02X169122055Y-101257945I-450000J-217945D01*
G01*
X163272055Y-104091229D02*
X169122055Y-101257945D01*
X163272055Y-115091229D02*
X169133956Y-117930277D01*
X162372055Y-109591229D02*
G75*
G03X162372055Y-109591229I-700000J0D01*
G01*
X162372055Y-122491229D02*
G75*
G03X162372055Y-122491229I-700000J0D01*
G01*
X141572055Y-122491229D02*
G75*
G03X141572055Y-122491229I-700000J0D01*
G01*
X141572055Y-109591229D02*
G75*
G03X141572055Y-109591229I-700000J0D01*
G01*
X139272055Y-104091229D02*
X133422055Y-101257945D01*
X133422055Y-101257945D02*
G75*
G02X133190000Y-100590000I217945J450000D01*
G01*
X133190000Y-100590000D02*
X137919234Y-90825354D01*
M02*
